<svg xmlns="http://www.w3.org/2000/svg" version="1" width="513.518" height="199.278"><path d="M131.968 47.899l.872-1.612c-8.086-4.307-16.404-7.133-24.769-8.328a74.225 74.225 0 0 0-10.377-.74c-27.598 0-52.288 16.601-61.44 41.308l8.883 3.289c7.781-21.009 28.903-35.124 52.558-35.124 2.978 0 6.021.217 9.042.646 16.037 2.291 31.447 11.039 45.803 26l5.229-5.019c-7.064-7.549-15.685-14.948-25.801-20.42z" fill="#62aeb2"/><path d="M67.21 158.517c-23.789-11.059-39.16-34.446-39.16-59.582a63.92 63.92 0 0 1 10.776-35.588 67.062 67.062 0 0 1 9.416-11.21l4.367 4.562a60.651 60.651 0 0 0-8.53 10.15 57.627 57.627 0 0 0-9.715 32.085c0 23.038 13.605 43.675 35.508 53.855zm115.882-51.827l-2.738-6.389a97.642 97.642 0 0 0-1.013-1.933c-4.795 9.08-30.021 53.416-71.498 59.339-3.387.484-6.88 1.592-10.183 1.592-9.66-.004-18.926-2.037-27.538-6.044l-3.162 5.795c9.61 4.471 19.938 6.739 30.705 6.743 3.651 0 7.397-.271 11.134-.805 40.02-5.716 65.279-42.317 74.582-58.423z" fill="#62aeb2"/><path d="M191.866 137.55c-8.114 11.026-17.068 20.572-26.674 28.371l2.318 2.854c9.499-7.713 18.374-17.07 26.441-27.847 16.509 22.525 43.977 49.245 83.794 54.929l.943-6.603c-40.696-5.811-67.953-34.586-84.16-59.075-.763-1.156-2.662 7.371-2.662 7.371z" fill="#e47128"/><path d="M298.22 165a77.204 77.204 0 0 1-15.971-.622c-12.228-1.748-24.078-6.63-35.223-14.511l-3.465 4.898c11.929 8.436 24.659 13.668 37.838 15.552a84.32 84.32 0 0 0 11.891.854c1.651 0 3.293-.063 4.93-.163z" fill="#e5ad24"/><path d="M186.261 105.332l-3.17 1.358-2.738-6.389c-2.051-4.038-9.736-18.259-22.584-31.983l-5.229 5.019c11.268 11.742 18.037 23.381 20.425 27.84l9.612 16.774 8.217-4.711z" fill="#e47128"/><path d="M293.291 159.662a72.3 72.3 0 0 1-10.263-.738c-42.807-6.113-67.851-49.576-72.437-58.228l6.623-3.51c2.628 4.957 26.83 48.599 66.878 54.318 3.056.439 6.148.663 9.198.663v7.495z" fill="#62aeb2"/><path d="M352.937 82.235c-2.853-9.264-8.175-17.812-15.393-24.721-9.459-9.048-21.471-14.832-34.738-16.726l1.213-8.492c15.051 2.147 28.694 8.725 39.456 19.02 8.272 7.918 14.379 17.736 17.661 28.394z" fill="#00878f"/><path d="M238.345 54.946l-4.043-4.604c14.56-12.787 30.402-20.478 47.089-22.858a84.198 84.198 0 0 1 11.867-.849c20.32 0 39.357 7.507 53.604 21.139l-4.236 4.428c-13.101-12.535-30.633-19.439-49.367-19.439a78.08 78.08 0 0 0-11.001.788c-15.489 2.209-30.263 9.408-43.913 21.395z" fill="#00878f"/><path d="M207.218 114.623l-21.253-10.11 5.055-10.627c3.283-6.899 15.691-30.904 37.54-50.085l8.844-7.764 15.527 17.688-8.844 7.764c-18.944 16.63-29.825 38.328-31.813 42.509z" fill="#e5ad24"/><path d="M27.319 127.312c-3.925-8.957-5.915-18.505-5.915-28.377 0-19.555 7.901-37.88 22.248-51.602A75.923 75.923 0 0 1 60.464 35.18l3.455 6.49a68.59 68.59 0 0 0-15.186 10.978c-12.882 12.32-19.977 28.759-19.977 46.287 0 8.851 1.782 17.404 5.296 25.426z" fill="#00878f"/><path d="M52.645 56.739l-4.439-4.643c13.137-12.562 30.713-19.48 49.489-19.48 3.66 0 7.372.265 11.032.787 8.964 1.281 17.812 4.258 26.297 8.846l-3.055 5.65c-7.816-4.226-15.941-6.963-24.151-8.137a71.969 71.969 0 0 0-10.123-.723c-17.114.001-33.113 6.287-45.05 17.7zM8.657 98.935H4.735c0-24.146 9.729-46.749 27.395-63.645l2.711 2.834C17.956 54.273 8.657 75.869 8.657 98.935z" fill="#e5ad24"/><path d="M163.856 31.893c-15.847-12.668-33.217-20.424-51.628-23.053a103.25 103.25 0 0 0-14.533-1.036c-19.073 0-37.384 5.363-52.953 15.511l-2.855-4.381c16.42-10.703 35.719-16.36 55.809-16.36 5.067 0 10.206.366 15.272 1.089 19.349 2.763 37.568 10.887 54.154 24.145zm36.783 33.948l-10.318-7.281C206.827 35.164 235.345 6.014 277.467 0l1.785 12.502c-37.663 5.378-63.538 31.974-78.613 53.339z" fill="#00878f"/><path d="M212.453 67.348l-7.301-5.52c14.446-19.11 39.062-42.947 74.293-47.974a97.955 97.955 0 0 1 13.813-.987c11.874 0 23.376 2.166 34.187 6.438l-3.363 8.512c-9.735-3.847-20.105-5.797-30.823-5.797-4.151 0-8.363.302-12.52.896-32.146 4.586-54.877 26.693-68.286 44.432z" fill="#62aeb2"/><path d="M197.734 82.25l-10.215-4.158 3.037-7.463.262-.413c13.188-20.874 42.108-56.862 87.627-63.356a105.13 105.13 0 0 1 14.813-1.058v11.029c-4.394 0-8.854.319-13.254.947-38.844 5.542-64.693 34.458-79.603 57.918z" fill="#62aeb2"/><path d="M197.56 70.946l-5.285-6.484c-8.783-12.447-18.619-23.062-29.235-31.549l4.898-6.128c11.16 8.922 21.479 20.038 30.667 33.04l5.031 6.158z" fill="#62aeb2"/><path d="M359.884 34.17c-17.769-17.003-41.43-26.366-66.625-26.366-4.817 0-9.706.349-14.53 1.036l-.738-5.178a108.476 108.476 0 0 1 15.269-1.089c26.549 0 51.494 9.879 70.24 27.817z" fill="#e47128"/><path d="M110.953 180.085l-1.906-13.346c53.362-7.618 79.951-69.773 80.213-70.4 1.182-2.841 29.705-69.851 90.745-78.562l1.904 13.346c-53.525 7.638-79.944 69.772-80.205 70.399-1.186 2.85-29.727 69.85-90.751 78.563z" fill="#00878f"/><path d="M54.884 166.593l5.853-10.072c14.362 8.344 31.006 11.457 48.135 9.006l1.65 11.526c11.158-1.593 22.06-5.413 32.401-11.353l-9.766-17.004c-8.176 4.696-16.726 7.706-25.413 8.946a71.563 71.563 0 0 1-10.084.725c-16.981-.001-32.855-6.243-44.698-17.576-5.736-5.49-10.21-11.846-13.295-18.889l-16.833 7.373c4.019 9.171 9.881 17.582 17.419 24.796l-.848.886a82 82 0 0 0 15.479 11.636z" fill="#00878f"/><path d="M97.665 183.104c-23.386-.001-45.333-8.682-61.805-24.441l3.701-3.868c15.471 14.803 36.104 22.955 58.098 22.956 4.24 0 8.554-.31 12.827-.921 44.007-6.285 70.607-43.525 82.582-65.257l3.037-7.188 4.932 2.084-3.211 7.564c-12.424 22.588-40.193 61.472-86.582 68.096a96.395 96.395 0 0 1-13.579.975z" fill="#00878f"/><path d="M97.665 197.586c-27.139-.004-52.641-10.112-71.815-28.463l6.779-7.084c17.341 16.597 40.436 25.738 65.031 25.742 4.719 0 9.51-.344 14.243-1.022 18.344-2.621 35.622-10.432 51.357-23.216l6.182 7.609c-17.134 13.92-36.025 22.437-56.15 25.312a110.533 110.533 0 0 1-15.627 1.122z" fill="#00878f"/><path d="M112.339 189.79l-1.213-8.492c39.533-5.645 65.689-35.059 80.683-58.772.459-.796 4.496-7.801 6.042-10.741l7.594 3.992c-1.712 3.255-6.065 10.794-6.25 11.113l-.087.146c-15.953 25.253-43.955 56.641-86.769 62.754z" fill="#e5ad24"/><path d="M55.196 166.058c-24.613-14.292-39.307-39.385-39.307-67.123 0-4.036.317-8.083.944-12.027l6.051.961a70.913 70.913 0 0 0-.868 11.066c0 25.529 13.554 48.642 36.256 61.824z" fill="#62aeb2"/><path d="M25.671 88.31l-11.623-1.844c3.364-21.195 15.08-39.924 32.991-52.735 18.191-13.013 40.842-18.38 63.796-15.105a89.979 89.979 0 0 1 15.307 3.584l-3.674 11.18a78.223 78.223 0 0 0-13.297-3.114c-40.727-5.797-77.413 19.682-83.5 58.034z" fill="#e47128"/><path d="M24.156 170.894C13.425 160.627 5.298 148.568 0 135.051l13.691-5.367c4.514 11.515 11.455 21.805 20.631 30.584z" fill="#e5ad24"/><path d="M97.665 190.843c-25.394-.003-49.241-9.446-67.157-26.591-16.307-15.605-26.196-36.384-27.847-58.507l-.009-.159-.242-6.491 8.572-.32.239 6.41c1.51 19.978 10.464 38.75 25.218 52.87 16.312 15.609 38.054 24.207 61.221 24.21 4.453 0 8.982-.325 13.465-.967l1.215 8.492a104.1 104.1 0 0 1-14.675 1.053z" fill="#62aeb2"/><path d="M137.05 160.853l-2.665-4.644 2.321-1.332c30.274-17.379 47.186-50.602 50.269-57.085l1.149-2.417 4.834 2.299-1.149 2.417c-3.202 6.735-20.781 41.258-52.437 59.429z" fill="#e5ad24"/><path d="M203.932 95.419c-.268-.643-2.177-5.146-5.808-11.729l1.363-.751c-12.627-22.914-40.847-62.358-87.973-69.085a98.042 98.042 0 0 0-13.82-.987v9.152c4.154 0 8.368.302 12.526.896a86.71 86.71 0 0 1 14.571 3.399l-3.348 10.179c43.5 14.308 65.375 65.454 65.586 65.956 1.206 2.899 30.249 71.119 92.633 80.023l2.586-18.121c-51.977-7.419-78.062-68.328-78.316-68.932z" fill="#00878f"/><path d="M375.655 98.935h-7.354c0-20.25-8.935-39.615-24.514-53.13-16.736-14.519-39.445-20.973-62.312-17.715l-1.037-7.279c24.973-3.564 49.821 3.523 68.168 19.439 17.19 14.912 27.049 36.302 27.049 58.685zM88.386 68.092h19.887v61.699H88.386z" fill="#e5ad24"/><path d="M67.481 88.999h61.695v19.89H67.481z" fill="#00878f"/><path d="M393.894 107.923l-7.859-.729c.251-2.714.379-5.492.379-8.26 0-24.208-9.749-46.866-27.451-63.803l5.457-5.703c19.272 18.439 29.887 43.124 29.887 69.506a98.131 98.131 0 0 1-.413 8.989z" fill="#62aeb2"/><path d="M366.853 112.516l-5.131-1.02a65.172 65.172 0 0 0 1.242-12.669c0-17.818-7.21-34.53-20.301-47.057l3.615-3.779c14.133 13.523 21.916 31.577 21.916 50.836.001 4.6-.451 9.205-1.341 13.689z" fill="#00878f"/><path d="M357.868 113.775l-11.875-3.027a47.879 47.879 0 0 0 1.474-11.814c0-28.039-24.317-50.851-54.208-50.851-2.91 0-5.886.213-8.845.632-.783.112-1.564.241-2.342.384l-2.211-12.055a73.013 73.013 0 0 1 2.827-.462 75.522 75.522 0 0 1 10.57-.755c36.648 0 66.464 28.311 66.464 63.107a60.175 60.175 0 0 1-1.854 14.841z" fill="#e47128"/><path d="M259.678 50.848l-1.413-2.549c-28.136 15.598-44.606 46.13-47.623 52.093l-2.979 6.064-3.151-1.549-1.299 2.885 11.18 5.02 5.012-11.162c2.948-5.463 25.839-45.765 62.673-52.552l-1.108-6.016c-7.232 1.336-14.381 3.938-21.292 7.766z" fill="#00878f"/><path d="M293.291 185.941c-4.619 0-9.324-.338-13.984-1.004-20.805-2.971-40.108-12.638-57.375-28.731l7.52-8.068c15.586 14.527 32.885 23.235 51.415 25.882 4.951.706 9.925.976 14.812.861l.258 11.027c-.883.021-1.763.033-2.646.033z" fill="#62aeb2"/><path d="M311.326 144.072l5.867-18.696h5.206l5.954 18.696h-4.918l-1.036-3.825h-5.378l-.949 3.825zm8.283-14.266l-1.696 6.846h3.537zm11.708-4.43h7.536c5.177 0 7.133 2.646 7.133 6.242 0 2.56-1.035 4.516-3.077 5.608l3.652 6.846h-5.465l-2.818-5.925h-2.33v5.925h-4.631zm9.751 6.271c0-1.668-.604-2.502-2.762-2.502h-2.358v5.292h2.445c1.611 0 2.675-.719 2.675-2.79zm8.66-6.271h6.126c6.989 0 9.319 3.309 9.319 9.176 0 4.43-1.352 9.521-9.29 9.521h-6.155zm4.631 3.769v11.103h1.754c3.826 0 4.113-2.33 4.113-5.494 0-3.652-.374-5.608-4.516-5.608h-1.351zm24.507-3.769h4.458v12.282c0 5.522-4.228 6.702-7.535 6.702-3.193 0-7.277-1.064-7.277-6.731v-12.253h4.631v11.391c0 3.106 1.093 3.825 2.848 3.825 2.1 0 2.876-.949 2.876-3.797v-11.419zm8.601 14.871h4.832v-11.045h-4.832v-3.826h14.324v3.826h-4.861v11.045h4.861v3.825h-14.324zm22.524 3.825h-4.372v-18.696h5.034l6.068 11.218v-11.218h4.314v18.696h-4.688l-6.386-11.965zm29.973-9.347c0 5.407-1.984 9.636-7.996 9.636-5.379 0-7.853-3.251-7.853-9.435 0-5.638 2.157-9.809 7.824-9.809 5.32 0 8.025 2.474 8.025 9.608zm-4.918 0c0-4.573-.374-5.839-3.106-5.839-2.474 0-2.905 1.467-2.905 6.04 0 3.768.259 5.666 2.934 5.666 2.703 0 3.077-1.553 3.077-5.867z" fill="#00878f"/><path d="M327.72 162.183c0 5.465-2.243 9.636-7.967 9.636-5.408 0-7.795-3.423-7.795-9.492 0-5.695 2.301-9.751 7.852-9.751 5.379-.001 7.91 2.819 7.91 9.607zm-3.94 0c0-4.688-.69-6.529-3.97-6.529-3.135 0-3.911 1.898-3.911 6.673 0 4.171.575 6.414 3.854 6.414 3.251-.001 4.027-2.129 4.027-6.558zm8.228-9.349h7.047c5.005 0 6.874 2.618 6.874 6.271 0 3.912-2.502 6.472-7.018 6.472h-3.192v5.954h-3.711zm9.98 6.415c0-1.956-.69-3.337-3.308-3.337h-2.962v6.587h3.077c2.014 0 3.193-.834 3.193-3.25zm21.949-6.415v3.078h-9.521v4.545h8.628v3.049h-8.628v4.918h9.491v3.106h-13.202v-18.696zm8.113 18.696h-3.51v-18.696h4.056l7.277 12.714v-12.714h3.451v18.696h-3.768l-7.536-13.288zm18.639-5.781v-3.021h7.881v3.021zm16.139-7.968c0-3.049 3.077-5.206 6.932-5.206 2.1 0 3.969.432 5.724 1.41l-1.035 3.451c-1.208-1.064-2.762-1.783-4.66-1.783-1.754 0-3.02.546-3.02 1.869 0 3.365 9.463 2.244 9.463 8.773 0 3.911-3.596 5.522-7.564 5.522-2.043 0-4.314-.461-6.213-1.697l1.208-3.423c1.467 1.294 3.278 2.071 5.378 2.071 1.812 0 3.222-.604 3.222-2.101-.002-3.967-9.435-2.528-9.435-8.886zm33.078 4.402c0 5.465-2.243 9.636-7.967 9.636-5.408 0-7.795-3.423-7.795-9.492 0-5.695 2.301-9.751 7.852-9.751 5.379-.001 7.91 2.819 7.91 9.607zm-3.94 0c0-4.688-.69-6.529-3.97-6.529-3.135 0-3.911 1.898-3.911 6.673 0 4.171.575 6.414 3.854 6.414 3.25-.001 4.027-2.129 4.027-6.558zm18.324-9.349h3.596v12.052c0 5.034-3.193 6.933-7.277 6.933-3.969 0-7.075-1.64-7.075-6.846v-12.139h3.71v11.506c0 3.48 1.18 4.43 3.509 4.43 2.646 0 3.538-1.209 3.538-4.487v-11.449zm8.285 0h6.932c5.005 0 6.903 2.388 6.903 6.041 0 2.56-1.122 4.458-3.222 5.465l3.94 7.19h-4.4l-3.279-6.472h-3.163v6.472h-3.711zm9.894 6.099c0-2.101-.863-3.021-3.308-3.021h-2.876v6.126h2.962c1.871 0 3.222-.776 3.222-3.105zm22.839 11.418c-1.898 1.007-3.739 1.468-5.867 1.468-5.379 0-8.456-3.193-8.456-9.607 0-6.155 3.509-9.636 8.944-9.636 1.928 0 3.739.489 5.207 1.381l-1.237 3.164c-1.352-1.064-2.675-1.467-4.142-1.467-3.164 0-4.832 2.157-4.832 6.472 0 4.372 1.524 6.645 4.86 6.645 1.812 0 3.423-.547 4.66-1.381zm18.21-17.517v3.078h-9.521v4.545h8.628v3.049h-8.628v4.918h9.491v3.106h-13.202v-18.696z" fill="#8c7965"/><path d="M327.03 197.81c-1.898 1.007-3.739 1.468-5.867 1.468-5.379 0-8.456-3.193-8.456-9.607 0-6.155 3.509-9.636 8.944-9.636 1.928 0 3.739.489 5.206 1.381l-1.236 3.164c-1.352-1.064-2.675-1.467-4.142-1.467-3.164 0-4.832 2.157-4.832 6.472 0 4.372 1.524 6.645 4.86 6.645 1.812 0 3.423-.547 4.66-1.381zm19.388-8.168c0 5.465-2.243 9.636-7.967 9.636-5.408 0-7.795-3.423-7.795-9.492 0-5.695 2.301-9.751 7.852-9.751 5.378-.001 7.91 2.819 7.91 9.607zm-3.941 0c0-4.688-.69-6.529-3.97-6.529-3.135 0-3.911 1.898-3.911 6.673 0 4.171.575 6.414 3.854 6.414 3.251-.001 4.027-2.129 4.027-6.558zm19.36-3.567l-3.192 6.442h-2.646l-3.451-6.702v13.174h-2.991v-18.696h3.279l4.486 8.572 4.372-8.572h3.192v18.696h-3.049zm18.697 0l-3.192 6.442h-2.646l-3.451-6.702v13.174h-2.991v-18.696h3.279l4.486 8.572 4.372-8.572h3.192v18.696h-3.049zm17.662-5.782h3.596v12.052c0 5.034-3.193 6.933-7.277 6.933-3.969 0-7.075-1.64-7.075-6.846v-12.139h3.71v11.506c0 3.48 1.18 4.43 3.509 4.43 2.646 0 3.538-1.209 3.538-4.487v-11.449zm11.249 18.696h-3.51v-18.696h4.056l7.277 12.714v-12.714h3.451v18.696h-3.768l-7.536-13.288zm15.734-3.106h4.976V183.4h-4.976v-3.106h13.749v3.106h-5.062v12.483h5.062v3.106h-13.749zm33.282-12.512h-5.896v15.618h-3.711v-15.618h-5.896v-3.078h15.503zm11.276 5.292l3.854-8.37h3.71l-5.867 11.333v7.363h-3.739v-7.277l-6.155-11.419h3.998z" fill="#e47128"/></svg>