<svg xmlns="http://www.w3.org/2000/svg" viewBox="0 0 511.999 511.999"><path fill="#e8594f" d="M95.411 299.17h49.568v116.956H95.411z"/><path fill="#f4ad47" d="M186.119 239.811h50.343v176.315h-50.343z"/><path fill="#61c7d2" d="M277.603 113.452h49.568v302.674h-49.568z"/><path fill="#f4ad47" d="M368.311 183.978h50.343v232.148h-50.343z"/><path d="M509.108 409.559l-35.748-34.31c-3.747-3.597-9.701-3.475-13.295.273a9.403 9.403 0 0 0 .273 13.297l18.649 17.899h-50.928V183.973a9.403 9.403 0 0 0-9.403-9.403h-50.343a9.403 9.403 0 0 0-9.403 9.403v222.745h-22.333V113.447a9.403 9.403 0 0 0-9.403-9.403h-49.569a9.403 9.403 0 0 0-9.403 9.403v293.271h-22.333V239.806a9.403 9.403 0 0 0-9.403-9.403H186.12a9.403 9.403 0 0 0-9.403 9.403v166.912h-22.333V299.166a9.403 9.403 0 0 0-9.403-9.403H95.412a9.403 9.403 0 0 0-9.403 9.403v107.552H54.272V85.217l19.221 20.637a9.375 9.375 0 0 0 6.883 2.994 9.37 9.37 0 0 0 6.406-2.522c3.8-3.539 4.012-9.489.473-13.291L51.77 54.937a9.405 9.405 0 0 0-13.762 0L2.522 93.036c-3.539 3.8-3.328 9.75.473 13.291a9.404 9.404 0 0 0 13.291-.471l19.178-20.592v330.86a9.403 9.403 0 0 0 9.403 9.403h434.582l-19.113 18.343a9.404 9.404 0 0 0-.273 13.297 9.373 9.373 0 0 0 6.785 2.892c2.341 0 4.686-.87 6.51-2.619l35.748-34.309a9.404 9.404 0 0 0 .002-13.572zm-404.293-2.841v-98.149h30.762v98.149h-30.762zm90.71 0V249.21h31.536v157.508h-31.536zm91.482 0V122.851h30.762v283.867h-30.762zm90.71 0V193.377h31.536v213.341h-31.536z" fill="#231f20"/></svg>