<svg xmlns="http://www.w3.org/2000/svg" viewBox="0 0 512.001 512.001"><path d="M98.419 465.275h-6.183c-7.668 0-13.885-6.217-13.885-13.885v-14.006h33.954v14.006c0 7.668-6.217 13.885-13.886 13.885z" fill="#780f13"/><path d="M419.764 465.275h-6.183c-7.668 0-13.885-6.217-13.885-13.885v-14.006h33.954v14.006c-.001 7.668-6.218 13.885-13.886 13.885z" fill="#451016"/><path d="M416.672 178.215H95.328c-8.821 0-15.973-7.152-15.973-15.973V77.783c0-8.821 7.152-15.973 15.973-15.973h321.345c8.822 0 15.974 7.152 15.974 15.973v84.458c-.001 8.822-7.152 15.974-15.975 15.974zm-305.371-31.946h289.397V93.756H111.301v52.513z" fill="#690812"/><path d="M457.119 444.103H54.881c-17.317 0-31.355-14.038-31.355-31.355V168.962c0-17.317 14.038-31.355 31.355-31.355H457.12c17.317 0 31.355 14.038 31.355 31.355v243.787c-.001 17.316-14.039 31.354-31.356 31.354z" fill="#de3205"/><path d="M327.061 112.11h-135.28c-9.064 0-16.413-7.348-16.413-16.413V63.139c0-9.064 7.348-16.413 16.413-16.413h135.28c9.064 0 16.413 7.348 16.413 16.413v32.559c0 9.064-7.349 16.412-16.413 16.412z" fill="#57565c"/><g fill="#9d2217"><path d="M457.119 137.607H257.54v306.496h199.58c17.317 0 31.355-14.038 31.355-31.355V168.962c-.001-17.317-14.039-31.355-31.356-31.355z"/><path d="M484.388 274.13H27.612C12.362 274.13 0 261.768 0 246.519v-26.023c0-15.25 12.362-27.612 27.612-27.612H484.39c15.25 0 27.612 12.362 27.612 27.612v26.023c-.002 15.249-12.364 27.611-27.614 27.611z"/></g><path d="M484.388 192.884H257.54v81.246h226.849c15.25 0 27.612-12.362 27.612-27.612v-26.023c-.001-15.249-12.363-27.611-27.613-27.611z" fill="#690812"/><path d="M126.153 320.21H94.818c-5.411 0-9.798-4.387-9.798-9.798v-67.107c0-5.411 4.387-9.798 9.798-9.798h31.335c5.411 0 9.798 4.387 9.798 9.798v67.107c0 5.411-4.386 9.798-9.798 9.798z" fill="#f7e05d"/><path d="M426.979 310.412c0 5.411-4.387 9.798-9.798 9.798h-31.335c-5.411 0-9.798-4.387-9.798-9.798v-67.107c0-5.411 4.387-9.798 9.798-9.798h31.335c5.411 0 9.798 4.387 9.798 9.798v67.107z" fill="#c3a534"/><path d="M327.061 46.726H257.54v65.384h69.521c9.064 0 16.413-7.348 16.413-16.413V63.139c0-9.064-7.349-16.413-16.413-16.413z" fill="#2d2e30"/></svg>