<svg xmlns="http://www.w3.org/2000/svg" viewBox="0 0 460 460"><path d="M281.682 214.742H178.318c-11.874 0-21.5-9.626-21.5-21.5v-62.909h146.364v62.909c0 11.874-9.626 21.5-21.5 21.5z" fill="#de3e30"/><path d="M281.802 130.333v42.656c0 12.302-9.973 22.275-22.275 22.275H157.713c-.238 0-.469-.028-.706-.036 1.363 10.996 10.721 19.513 22.086 19.513h101.814c12.302 0 22.275-9.973 22.275-22.275v-62.134h-21.38z" opacity=".49" fill="#d0d5d9"/><path d="M259.292 130.333v-26.864c0-16.177-13.114-29.292-29.292-29.292s-29.292 13.114-29.292 29.292v26.864h-22.981V99.94c0-28.869 23.403-52.273 52.273-52.273s52.273 23.403 52.273 52.273v30.394h-22.981z" fill="#f9b65f"/><path d="M230 190.452a7.77 7.77 0 0 1-7.77-7.77v-20.909c0-4.291 3.478-7.77 7.77-7.77s7.77 3.479 7.77 7.77v20.909a7.77 7.77 0 0 1-7.77 7.77z" fill="#fff"/><path d="M35.743 265.969C16.003 265.969 0 281.972 0 301.713v74.877c0 19.74 16.003 35.743 35.743 35.743h313.401V265.969H35.743z" fill="#86c867"/><path d="M48.176 391.283c-19.74 0-35.743-16.003-35.743-35.743v-74.877c0-2.242.216-4.432.611-6.559C5.079 280.658 0 290.592 0 301.713v74.877c0 19.74 16.003 35.743 35.743 35.743h313.401v-21.05H48.176z" opacity=".49" fill="#d0d5d9"/><path d="M424.257 265.969h-75.113v146.364h75.113c19.74 0 35.743-16.003 35.743-35.743v-74.877c0-19.741-16.003-35.744-35.743-35.744z" fill="#6aac4b"/><path d="M424.257 391.283h-75.113v21.05h75.113c19.74 0 35.743-16.003 35.743-35.743v-21.05c0 19.74-16.003 35.743-35.743 35.743z" opacity=".49" fill="#d0d5d9"/><path d="M390.35 373.058a7.771 7.771 0 0 1-5.495-13.265l20.643-20.642-20.643-20.642a7.771 7.771 0 0 1 10.99-10.989l26.137 26.137a7.769 7.769 0 0 1 0 10.988l-26.137 26.136a7.748 7.748 0 0 1-5.495 2.277z" fill="#fff"/><circle cx="64.572" cy="339.151" r="20.294" fill="#ecf0f1"/><circle cx="125.455" cy="339.151" r="20.294" fill="#ecf0f1"/><circle cx="186.337" cy="339.151" r="20.294" fill="#ecf0f1"/><path d="M271.818 346.921h-31.363c-4.292 0-7.77-3.479-7.77-7.77s3.478-7.77 7.77-7.77h31.363c4.292 0 7.77 3.479 7.77 7.77s-3.478 7.77-7.77 7.77z" fill="#fff"/></svg>