<svg xmlns="http://www.w3.org/2000/svg" viewBox="0 0 473.931 473.931"><circle cx="236.966" cy="236.966" r="236.966" fill="#e8e8df"/><g fill="#93793d"><path d="M239.701 183.788c-12.389 0-22.436 15.73-22.436 35.128l-12.688 193.067c0 19.397 15.719 21.863 35.124 21.863 19.412 0 35.124-2.466 35.124-21.863l-12.688-193.067c0-19.394-10.055-35.128-22.436-35.128z"/><path d="M255.196 311.913l96.32-51.247 3.39 3.311-86.453 86.813zm-23.847 3.757l-103.74-133.865-3.068 2.207 86.483 167.882zm-28.186-198.807l-2.93 2.413 19.491 93.046 30.488-22.529z"/><path d="M238.279 196.42l42.772-42.282 2.286 1.856-21.87 57.653z"/></g><path d="M160.993 165.378c-10.817 4.307-17.713 1.014-23.876 6.978-4.599 4.46-4.707 11.816-.247 16.415 4.464 4.599 11.816 4.711 16.423.247 8.482-8.235 7.7-23.64 7.7-23.64zm-38.454-48.579c-6.556 9.515-14.069 10.604-15.865 18.922-1.328 6.223 2.63 12.359 8.857 13.695 6.219 1.336 12.352-2.619 13.68-8.842 2.469-11.483-6.672-23.775-6.672-23.775zm-43.397-7.861c3.121 11.124-.849 17.597 4.393 24.299 3.94 4.999 11.188 5.882 16.187 1.957 5.014-3.933 5.89-11.173 1.964-16.179-7.248-9.25-22.544-10.077-22.544-10.077zm23.599 102.965c6.937-7.266 6.526-13.867 13.294-16.872 5.059-2.249 10.978.037 13.235 5.085 2.245 5.066-.045 10.993-5.093 13.242-9.342 4.147-21.436-1.455-21.436-1.455zm32.98-65.971c-6.511 6.567-12.591 6.357-15.188 12.655a9.235 9.235 0 0 0 5.044 12.045c4.7 1.938 10.092-.311 12.03-5.021 3.573-8.697-1.886-19.679-1.886-19.679zm-61.664 36.707c13.601-7.629 15.981-17.598 27.382-18.986 8.505-1.036 16.269 5.044 17.313 13.564 1.021 8.527-5.051 16.277-13.571 17.324-15.742 1.898-31.124-11.902-31.124-11.902zm4.011-29.425c7.873-5.07 8.954-11.135 15.712-12.378 5.078-.928 9.946 2.428 10.881 7.491.92 5.078-2.432 9.946-7.491 10.881-9.366 1.71-19.102-5.994-19.102-5.994zM372.193 296.46c-4.041-10.907-.576-17.732-6.395-24.033-4.348-4.707-11.693-4.999-16.4-.655-4.707 4.352-5.006 11.697-.651 16.404 8.011 8.688 23.446 8.284 23.446 8.284zm49.503-37.231c-9.347-6.788-10.245-14.327-18.518-16.333-6.189-1.482-12.423 2.324-13.916 8.505-1.497 6.193 2.316 12.419 8.498 13.908 11.424 2.754 23.936-6.08 23.936-6.08zm8.939-43.191c-11.203 2.844-17.583-1.287-24.4 3.79-5.108 3.813-6.155 11.031-2.361 16.134 3.809 5.111 11.027 6.159 16.138 2.365 9.407-7.023 10.623-22.289 10.623-22.289zm-103.527 21.047c7.094 7.106 13.702 6.862 16.539 13.699 2.118 5.104-.307 10.982-5.414 13.107-5.115 2.114-10.978-.307-13.104-5.422-3.91-9.436 1.979-21.384 1.979-21.384zm65.137 34.6c-6.395-6.668-6.035-12.744-12.262-15.498-4.677-2.047-10.121.071-12.176 4.741-2.054 4.651.067 10.103 4.722 12.15 8.607 3.794 19.716-1.393 19.716-1.393zm-35.173-62.558c7.293 13.788 17.205 16.419 18.32 27.842.819 8.531-5.452 16.142-13.987 16.98-8.55.808-16.157-5.459-16.991-13.998-1.508-15.782 12.658-30.824 12.658-30.824zm29.317 4.748c4.883 7.989 10.911 9.22 11.992 16.007.804 5.096-2.675 9.889-7.768 10.694-5.093.793-9.875-2.679-10.69-7.76-1.485-9.407 6.466-18.941 6.466-18.941zm-84.347 5.306c-5.658-10.163-3.274-17.437-9.983-22.772-5.014-3.989-12.322-3.158-16.31 1.856-3.981 5.018-3.151 12.322 1.856 16.31 9.25 7.364 24.437 4.606 24.437 4.606zm21.456-24.666c-7.476-13.455-4.348-23.087-13.212-30.155-6.642-5.268-16.303-4.172-21.594 2.47-5.276 6.634-4.18 16.303 2.462 21.59 12.254 9.755 32.344 6.095 32.344 6.095zm13.174-45.537c-10.282-5.283-12.314-12.595-20.8-13.313-6.35-.52-11.929 4.195-12.453 10.533-.535 6.346 4.187 11.921 10.526 12.445 11.715.977 22.727-9.665 22.727-9.665zm16.898-36.306c-10.634 4.516-17.553 1.411-23.539 7.469-4.456 4.546-4.393 11.846.138 16.303 4.546 4.471 11.839 4.408 16.303-.123 8.239-8.375 7.098-23.649 7.098-23.649zm-90.693-.958c2.601 17.927 12.415 24.703 9.156 37.646-2.425 9.669-12.277 15.551-21.96 13.126-9.669-2.455-15.536-12.269-13.119-21.968 4.524-17.863 25.923-28.804 25.923-28.804zm-19.296-5.504c-4.576 11.049-1.287 18.219-7.521 24.46-4.632 4.666-12.236 4.677-16.898.034-4.662-4.666-4.67-12.217-.03-16.909 8.621-8.61 24.449-7.585 24.449-7.585zm-68.556-6.152c9.324 12.512 19.506 13.601 22.357 24.722 2.11 8.303-2.922 16.782-11.233 18.918-8.325 2.103-16.801-2.93-18.922-11.244-3.91-15.363 7.798-32.396 7.798-32.396zm-5.546 98.431c12.812-7.891 14.72-17.586 25.631-19.382 8.165-1.325 15.888 4.221 17.22 12.389 1.328 8.176-4.224 15.887-12.389 17.22-15.087 2.446-30.462-10.227-30.462-10.227zM318.607 90.745c3.435 9.777 9.699 12.501 9.295 20.104-.307 5.706-5.175 10.099-10.874 9.792-5.687-.314-10.069-5.171-9.785-10.866.558-10.529 11.364-19.03 11.364-19.03zm-39.105.648c9.897 11.727 19.988 12.209 23.446 22.944 2.567 8.067-1.863 16.703-9.916 19.274-8.052 2.563-16.67-1.86-19.263-9.901-4.77-14.87 5.733-32.317 5.733-32.317zm-78.188-11.911c3.442 9.777 9.706 12.501 9.295 20.101-.299 5.706-5.175 10.099-10.866 9.8-5.691-.314-10.084-5.175-9.792-10.866.546-10.533 11.363-19.035 11.363-19.035zm-30.024 75.816c11.349-1.489 15.689-7.629 23.846-5.482 6.065 1.624 9.706 7.876 8.09 13.972-1.631 6.08-7.876 9.714-13.972 8.097-11.24-2.989-17.964-16.587-17.964-16.587z" fill="#b7c133"/></svg>