<svg xmlns="http://www.w3.org/2000/svg" viewBox="0 0 512 512"><circle cx="256" cy="256" r="256" fill="#273b7a"/><path d="M510.409 284.536l-161.87-161.87-37.154-12.447-22.809 22.809v117.374c-16.808 4.227-44.356 11.167-67.232 17.003l-31.891-7.552.467 6.025-15.039-14.441-26.498.824-16.956 16.956v10.216l-2.451 27.555 36.238 38.331-2.419 16.601-49.764-49.985-.417 10.026-1.488-1.379-3.25 18.706 24.142 22.73-2.955 9.544 22.649 21.22-1.717 29.182 89.491 89.491c5.463.348 10.966.545 16.517.545 131.734 0 240.211-99.512 254.406-227.464z" fill="#121149"/><g fill="#71e2ef"><path d="M165.21 362.93a3.45 3.45 0 0 1-3.448-3.448v-22.828c0-1.903 1.545-3.448 3.448-3.448s3.448 1.545 3.448 3.448v22.828a3.447 3.447 0 0 1-3.448 3.448zm-33.666 9.685a3.45 3.45 0 0 1-3.448-3.448V346.34c0-1.903 1.545-3.448 3.448-3.448s3.448 1.545 3.448 3.448v22.828a3.448 3.448 0 0 1-3.448 3.447zm-21.214-32.282a3.45 3.45 0 0 1-3.448-3.448v-22.828a3.45 3.45 0 0 1 3.448-3.448 3.45 3.45 0 0 1 3.448 3.448v22.828a3.449 3.449 0 0 1-3.448 3.448zm39.662 81.629a3.45 3.45 0 0 1-3.448-3.448v-22.828c0-1.903 1.545-3.448 3.448-3.448s3.448 1.545 3.448 3.448v22.828a3.448 3.448 0 0 1-3.448 3.448zm-4.303-98.911a3.45 3.45 0 0 1-3.448-3.448v-38.629c0-8.575 6.975-15.55 15.548-15.55h12.343c1.903 0 3.448 1.545 3.448 3.448s-1.545 3.448-3.448 3.448h-12.343c-4.772 0-8.652 3.882-8.652 8.654v38.629a3.449 3.449 0 0 1-3.448 3.448z"/><path d="M131.391 308.05a3.45 3.45 0 0 1-3.448-3.448v-25.135c0-16.015 13.029-29.044 29.044-29.044h15.45c1.903 0 3.448 1.545 3.448 3.448s-1.545 3.448-3.448 3.448h-15.45c-12.212 0-22.149 9.937-22.149 22.149v25.135a3.447 3.447 0 0 1-3.447 3.447z"/></g><path d="M363.746 219.87l-7.892-7.892c9.33-9.33 8.19-58.432-19.527-86.149-9.952-9.952-26.246-9.852-36.323.224-9.952 9.952-9.952 26.146 0 36.099l-7.892 7.892c-14.303-14.303-14.305-37.578 0-51.883 14.427-14.427 37.802-14.527 52.107-.224 13.633 13.633 23.381 34.202 26.748 56.432 2.433 16.074 1.812 36.466-7.221 45.501z" fill="#fee187"/><path fill="#eaa22f" d="M263.521 227.58l-25.827 25.827-46.906 2.183-1.336 9.221 114.841 28.636-34.953-32.88.279.048z"/><path d="M382.159 250.733l-53.303 53.303c-8.083 8.083-21.352 7.525-28.727-1.21l-74.705-88.479 67.044-67.046 88.479 74.705c8.737 7.377 9.297 20.644 1.212 28.727z" fill="#ffc61b"/><g fill="#eaa22f"><path d="M380.949 222.006l-88.479-74.705-33.652 33.652 97.532 95.591 25.812-25.812c8.082-8.082 7.522-21.349-1.213-28.726z"/><path d="M292.469 147.303l-67.044 67.044 15.82 18.739 69.963-69.963z"/></g><path d="M311.208 163.123l-18.739-15.82-33.652 33.652 17.453 17.106zm-116.152 78.811l-2.275 36.496-10.695-.667 2.274-36.496z" fill="#ff5419"/></svg>