<svg xmlns="http://www.w3.org/2000/svg" viewBox="0 0 491.315 491.315"><path fill="#ebf0f3" d="M75.443 0h340.429v491.315H75.443z"/><path d="M210.296 48.327c-10.358-10.37-24.673-16.788-40.487-16.797-15.814-.008-30.136 6.394-40.505 16.752l40.474 40.519 40.518-40.474z" fill="#e56353"/><path d="M120.586 48.277c-10.37 10.359-16.788 24.673-16.797 40.487-.009 15.815 6.394 30.136 16.752 40.506l40.518-40.474-40.473-40.519z" fill="#d15241"/><path d="M210.296 48.327l-40.518 40.474 40.474 40.518c10.369-10.359 16.788-24.673 16.796-40.488.008-15.814-6.394-30.135-16.752-40.504z" fill="#fcd462"/><path d="M169.777 88.801l-40.518 40.474c10.359 10.37 24.673 16.788 40.487 16.797h.001l.03-57.271z" fill="#d5d6db"/><path d="M169.777 88.801l-.03 57.27c15.814.008 30.136-6.394 40.505-16.752l-40.475-40.518z" fill="#44c4a1"/><path fill="#d15241" d="M250.885 31.58h16.773v16.773h-16.773z"/><path fill="#d5d6db" d="M250.885 55.757h16.773V72.53h-16.773z"/><path fill="#e56353" d="M250.834 79.939h16.773v16.773h-16.773z"/><path fill="#44c4a1" d="M250.834 104.12h16.773v16.773h-16.773z"/><path fill="#fcd462" d="M250.834 128.307h16.773v16.773h-16.773z"/><path d="M109.573 181.299h273.971v7.496H109.573zm274.451-40.915l-102.666.179.003-7.495 102.666-.179zm-.538-24.181l-102.666.179.003-7.495 102.667-.178zm.013-24.18l-102.667.179.005-7.494 102.666-.18zm.047-24.179l-102.667.178.004-7.494 102.666-.18zm.045-24.181l-102.666.18.004-7.495 102.667-.179zM109.517 209.556h273.971v7.496H109.517zm-.051 28.268h273.971v7.496H109.466zm-.057 28.252H383.38v7.496H109.409zm148.493 35.585l-148.548.092.004-7.495 148.549-.092z" fill="#d5d6db"/><g fill="#64798a"><path d="M116.756 456.167l.076-139.227-7.337-.005-.075 139.228-.004 7.336 7.336.005 266.653.144.005-7.336z"/><path d="M137.614 436.657a2.83 2.83 0 0 1-2.191-4.614l35.319-43.443 51.252 24.849 31.83-24.504 39.33 15.63 35.112-19.695 15.938-39.191a2.829 2.829 0 0 1 5.242 2.129l-16.685 41.025-39.189 21.984-38.845-15.436-32.052 24.676-50.368-24.422-32.491 39.97a2.843 2.843 0 0 1-2.202 1.042z"/></g><circle cx="171.566" cy="393.216" r="6.82" fill="#fcd462"/><circle cx="221.906" cy="415.949" r="6.82" fill="#44c4a1"/><circle cx="254.802" cy="393.267" r="6.82" fill="#e56353"/><circle cx="293.176" cy="406.886" r="6.82" fill="#d5d6db"/><circle cx="330.091" cy="386.458" r="6.82" fill="#dc8744"/></svg>