<svg xmlns="http://www.w3.org/2000/svg" viewBox="0 0 512 512"><path fill="#d3effd" d="M190.335 340.816h230.098v163.085H190.335z"/><path opacity=".5" fill="#fff" d="M430.697 395.353L185.051 504.97l-15.447-34.618L415.25 360.736z"/><path fill="#d3effd" d="M53.984 81.613v35.298L65.803 242.24h201.391l11.819-125.329V81.613z"/><path d="M142.651 255.341h47.684v248.912h-47.684zm98.862 88.773h31.949v160.128h-31.949z" fill="#5d5d5d"/><path d="M190.335 414.456h51.167v22.793h-51.167zm83.119 0h51.167v22.793h-51.167zm83.118 0h51.167v22.793h-51.167z" fill="#3e3b43"/><path d="M324.621 344.114h31.949v160.128h-31.949zm82.892 0h31.949v160.128h-31.949z" fill="#5d5d5d"/><path fill="#f7b737" d="M190.335 304.028h230.098v30.764H190.335z"/><path d="M147.763 90.189V54.785c0-3.411 2.791-6.202 6.202-6.202h25.067c3.411 0 6.202 2.791 6.202 6.202v35.404h-37.471z" fill="#2d774e"/><path opacity=".5" d="M53.984 81.613v35.298L65.803 242.24h44.003V81.613zm112.514 0h54.165v160.624h-54.165z" fill="#fff"/><path d="M223.306 238.105v35.362c0 3.411-2.791 6.202-6.202 6.202H116.009c-3.411 0-6.202-2.791-6.202-6.202v-35.362h113.499z" fill="#5d5d5d"/><path d="M177.184 50.934V6.502c0-3.577-2.791-6.502-6.202-6.502h-8.851c-3.411 0-6.202 2.926-6.202 6.502v44.432h21.255z" fill="#2d774e"/><path d="M439.456 512H142.655a7.753 7.753 0 1 1 0-15.506h296.801a7.753 7.753 0 1 1 0 15.506z" fill="#3e3b43"/><path fill="#54ce8e" d="M53.982 81.613h225.033v35.3H53.982z"/><path fill="#5d5d5d" d="M62.91 211.568l2.893 30.672h201.391l2.892-30.672z"/><path d="M109.801 242.244H223.3v13.098H109.801zm131.712 113.954h31.949v13.098h-31.949zm-98.862-76.524h47.684v13.098h-47.684zm181.97 76.524h31.949v13.098h-31.949zm82.892 0h31.949v13.098h-31.949z" fill="#3e3b43"/><path fill="#54ce8e" d="M190.335 324.66h267.683v31.949H190.335z"/></svg>