<?xml version="1.0" encoding="iso-8859-1"?>
<!-- Generator: Adobe Illustrator 18.0.0, SVG Export Plug-In . SVG Version: 6.00 Build 0)  -->
<!DOCTYPE svg PUBLIC "-//W3C//DTD SVG 1.1//EN" "http://www.w3.org/Graphics/SVG/1.1/DTD/svg11.dtd">
<svg version="1.1" id="Capa_1" xmlns="http://www.w3.org/2000/svg" xmlns:xlink="http://www.w3.org/1999/xlink" x="0px" y="0px"
	 viewBox="0 0 633.363 633.363" style="enable-background:new 0 0 633.363 633.363;" xml:space="preserve">
<g>
	<path id="_x3C_Rectagulo_x3E_" style="fill:#7F7F7F;" d="M105.737,633.363h370.089V0H290.562
		C188.486,0,105.737,82.749,105.737,184.825V633.363z"/>
	<rect id="_x3C_Rectangulo_x3E_" x="306.885" y="0" style="fill:#CACACA;" width="265.632" height="330.105"/>
	<rect id="_x3C_Rectangulo_x3E__1_" x="344.3" y="419.311" style="fill:#CACACA;" width="265.632" height="214.053"/>
	<polygon style="fill:#979797;" points="609.931,419.311 344.3,419.311 306.885,330.105 572.516,330.105 	"/>
	<polygon style="fill:#ACCAD5;" points="578.896,398.685 358.024,398.685 341.518,359.328 337.907,350.732 558.797,350.732 	"/>
	<polygon style="fill:#C2E2F2;" points="570.127,398.685 358.024,398.685 341.518,359.328 553.638,359.328 	"/>
	<g>
		<rect x="506.95" y="215.472" style="fill:#7A8990;" width="38.056" height="87.822"/>
		<rect x="497.192" y="215.472" style="fill:#374E54;" width="9.758" height="87.822"/>
		<rect x="518.66" y="227.182" style="fill:#374E54;" width="14.637" height="64.403"/>
		<polygon style="fill:#7F7F7F;" points="582.321,304.036 574.046,312.311 518.66,256.924 518.66,240.375 		"/>
		<circle style="fill:#D47857;" cx="578.184" cy="308.173" r="13.661"/>
	</g>
	<g>
		<rect x="425.552" y="215.472" style="fill:#7A8990;" width="38.056" height="87.822"/>
		<rect x="415.794" y="215.472" style="fill:#374E54;" width="9.758" height="87.822"/>
		<rect x="437.261" y="227.182" style="fill:#374E54;" width="14.637" height="64.403"/>
		<polygon style="fill:#7F7F7F;" points="500.923,214.731 492.648,206.456 437.261,261.843 437.261,278.392 		"/>
		<circle style="fill:#D47857;" cx="496.785" cy="210.594" r="13.661"/>
	</g>
	<g>
		<rect x="344.153" y="215.472" style="fill:#7A8990;" width="38.056" height="87.822"/>
		<rect x="334.395" y="215.472" style="fill:#374E54;" width="9.758" height="87.822"/>
		<rect x="355.863" y="227.182" style="fill:#374E54;" width="14.637" height="64.403"/>
		<polygon style="fill:#7F7F7F;" points="419.524,304.036 411.249,312.311 355.863,256.924 355.863,240.375 		"/>
		<circle style="fill:#D47857;" cx="415.387" cy="308.173" r="13.661"/>
	</g>
	<path style="fill:#82A1AC;" d="M178.177,633.363H93.354v-17.194h84.823c9.797,0,17.767-7.97,17.767-17.766V486.449
		c0-19.278,15.684-34.961,34.96-34.961v17.194c-9.797,0-17.766,7.971-17.766,17.767v111.954
		C213.138,617.68,197.454,633.363,178.177,633.363z"/>
	<path style="fill:#F4EB86;" d="M126.022,633.363H41.199v-17.194h84.823c9.797,0,17.767-7.97,17.767-17.766V486.449
		c0-19.278,15.684-34.961,34.961-34.961v17.194c-9.797,0-17.767,7.971-17.767,17.767v111.954
		C160.983,617.68,145.299,633.363,126.022,633.363z"/>
	<path style="fill:#D47857;" d="M230.331,633.363H32.029c-4.748,0-8.597-3.849-8.597-8.597l0,0c0-4.748,3.849-8.597,8.597-8.597
		h198.303c9.812,0,17.766-7.954,17.766-17.766V486.449c0-19.278,15.684-34.961,34.961-34.961v17.194
		c-9.797,0-17.767,7.971-17.767,17.767v111.954C265.292,617.711,249.639,633.363,230.331,633.363z"/>
	<rect id="_x3C_Rectangulo_x3E__2_" x="326.917" y="27.51" style="fill:#7F7F7F;" width="7.479" height="151.455"/>
	<g>
		<rect x="334.395" y="27.51" style="fill:#979797;" width="210.611" height="151.455"/>
		<rect x="357.683" y="44.589" style="fill:#CACACA;" width="45.972" height="45.972"/>
		<rect x="349.198" y="44.589" style="fill:#7F7F7F;" width="8.485" height="45.972"/>
		<path style="fill:#BA674D;" d="M382.496,48.677h8.525v37.797h-8.525c-10.437,0-18.899-8.461-18.899-18.899v0
			C363.597,57.138,372.058,48.677,382.496,48.677z"/>
		<circle style="fill:#D47857;" cx="390.992" cy="67.575" r="18.899"/>
		<rect x="419.709" y="44.589" style="fill:#CACACA;" width="45.972" height="45.972"/>
		<rect x="411.224" y="44.589" style="fill:#7F7F7F;" width="8.485" height="45.972"/>
		<path style="fill:#556A71;" d="M444.521,48.677h8.525v37.797h-8.525c-10.437,0-18.899-8.461-18.899-18.899v0
			C425.623,57.138,434.084,48.677,444.521,48.677z"/>
		<circle style="fill:#7A8990;" cx="453.018" cy="67.575" r="18.899"/>
		<rect x="481.735" y="44.589" style="fill:#CACACA;" width="45.972" height="45.972"/>
		<rect x="473.249" y="44.589" style="fill:#7F7F7F;" width="8.485" height="45.972"/>
		<path style="fill:#BA674D;" d="M506.547,48.677h8.525v37.797h-8.525c-10.437,0-18.899-8.461-18.899-18.899v0
			C487.648,57.138,496.11,48.677,506.547,48.677z"/>
		<circle style="fill:#D47857;" cx="515.044" cy="67.575" r="18.899"/>
		<rect x="357.683" y="102.602" style="fill:#CACACA;" width="45.972" height="45.972"/>
		<rect x="349.198" y="102.602" style="fill:#7F7F7F;" width="8.485" height="45.972"/>
		<path style="fill:#556A71;" d="M382.496,106.689h8.525v37.797h-8.525c-10.437,0-18.899-8.461-18.899-18.899v0
			C363.597,115.15,372.058,106.689,382.496,106.689z"/>
		<circle style="fill:#7A8990;" cx="390.992" cy="125.588" r="18.899"/>
		<rect x="419.709" y="102.602" style="fill:#CACACA;" width="45.972" height="45.972"/>
		<rect x="411.224" y="102.602" style="fill:#7F7F7F;" width="8.485" height="45.972"/>
		<path style="fill:#BA674D;" d="M444.521,106.689h8.525v37.797h-8.525c-10.437,0-18.899-8.461-18.899-18.899v0
			C425.623,115.15,434.084,106.689,444.521,106.689z"/>
		<circle style="fill:#D47857;" cx="453.018" cy="125.588" r="18.899"/>
		<rect x="481.735" y="102.602" style="fill:#CACACA;" width="45.972" height="45.972"/>
		<rect x="473.249" y="102.602" style="fill:#7F7F7F;" width="8.485" height="45.972"/>
		<path style="fill:#556A71;" d="M506.547,106.689h8.525v37.797h-8.525c-10.437,0-18.899-8.461-18.899-18.899v0
			C487.648,115.15,496.11,106.689,506.547,106.689z"/>
		<circle style="fill:#7A8990;" cx="515.044" cy="125.588" r="18.899"/>
	</g>
	<polygon style="opacity:0.49;fill:#F1F1F1;" points="404.465,398.685 358.024,398.685 341.518,359.328 337.907,350.732 
		356.494,350.732 	"/>
	<polygon style="opacity:0.49;fill:#F1F1F1;" points="578.896,398.685 522.552,398.685 474.598,350.732 558.797,350.732 	"/>
	<path style="fill:#556A71;" d="M521.48,460.902c-22.819-22.819-59.815-22.819-82.633,0c-22.819,22.819-22.819,59.815,0,82.633
		c22.819,22.819,59.815,22.819,82.633,0C544.299,520.716,544.299,483.72,521.48,460.902z M510.723,525.994l-17.912-17.912
		c1.721-3.713,1.72-8.015,0-11.728l17.912-17.912C521.599,492.387,521.599,512.05,510.723,525.994z M503.939,471.659l-17.912,17.912
		c-3.713-1.72-8.015-1.721-11.728,0l-17.912-17.912C470.332,460.783,489.995,460.783,503.939,471.659z M449.604,478.443
		l17.912,17.912c-1.721,3.713-1.72,8.015,0,11.728l-17.912,17.912C438.729,512.05,438.729,492.387,449.604,478.443z
		 M456.388,532.778l17.912-17.912c3.713,1.72,8.015,1.721,11.728,0l17.912,17.912C489.995,543.653,470.332,543.653,456.388,532.778z
		"/>
</g>
<g>
</g>
<g>
</g>
<g>
</g>
<g>
</g>
<g>
</g>
<g>
</g>
<g>
</g>
<g>
</g>
<g>
</g>
<g>
</g>
<g>
</g>
<g>
</g>
<g>
</g>
<g>
</g>
<g>
</g>
</svg>
