<svg xmlns="http://www.w3.org/2000/svg" viewBox="0 0 633.363 633.363"><path d="M105.737 633.363h370.089V0H290.562C188.486 0 105.737 82.749 105.737 184.825v448.538z" fill="#7f7f7f"/><path fill="#cacaca" d="M306.885 0h265.632v330.105H306.885zM344.3 419.311h265.632v214.053H344.3z"/><path fill="#979797" d="M609.931 419.311H344.3l-37.415-89.206h265.631z"/><path fill="#accad5" d="M578.896 398.685H358.024l-16.506-39.357-3.611-8.596h220.89z"/><path fill="#c2e2f2" d="M570.127 398.685H358.024l-16.506-39.357h212.12z"/><path fill="#7a8990" d="M506.95 215.472h38.056v87.822H506.95z"/><path fill="#374e54" d="M497.192 215.472h9.758v87.822h-9.758zm21.468 11.71h14.637v64.403H518.66z"/><path fill="#7f7f7f" d="M582.321 304.036l-8.275 8.275-55.386-55.387v-16.549z"/><circle cx="578.184" cy="308.173" r="13.661" fill="#d47857"/><path fill="#7a8990" d="M425.552 215.472h38.056v87.822h-38.056z"/><path fill="#374e54" d="M415.794 215.472h9.758v87.822h-9.758zm21.467 11.71h14.637v64.403h-14.637z"/><path fill="#7f7f7f" d="M500.923 214.731l-8.275-8.275-55.387 55.387v16.549z"/><circle cx="496.785" cy="210.594" r="13.661" fill="#d47857"/><path fill="#7a8990" d="M344.153 215.472h38.056v87.822h-38.056z"/><path fill="#374e54" d="M334.395 215.472h9.758v87.822h-9.758zm21.468 11.71H370.5v64.403h-14.637z"/><path fill="#7f7f7f" d="M419.524 304.036l-8.275 8.275-55.386-55.387v-16.549z"/><circle cx="415.387" cy="308.173" r="13.661" fill="#d47857"/><path d="M178.177 633.363H93.354v-17.194h84.823c9.797 0 17.767-7.97 17.767-17.766V486.449c0-19.278 15.684-34.961 34.96-34.961v17.194c-9.797 0-17.766 7.971-17.766 17.767v111.954c0 19.277-15.684 34.96-34.961 34.96z" fill="#82a1ac"/><path d="M126.022 633.363H41.199v-17.194h84.823c9.797 0 17.767-7.97 17.767-17.766V486.449c0-19.278 15.684-34.961 34.961-34.961v17.194c-9.797 0-17.767 7.971-17.767 17.767v111.954c0 19.277-15.684 34.96-34.961 34.96z" fill="#f4eb86"/><path d="M230.331 633.363H32.029a8.597 8.597 0 1 1 0-17.194h198.303c9.812 0 17.766-7.954 17.766-17.766V486.449c0-19.278 15.684-34.961 34.961-34.961v17.194c-9.797 0-17.767 7.971-17.767 17.767v111.954c0 19.308-15.653 34.96-34.961 34.96z" fill="#d47857"/><path fill="#7f7f7f" d="M326.917 27.51h7.479v151.455h-7.479z"/><path fill="#979797" d="M334.395 27.51h210.611v151.455H334.395z"/><path fill="#cacaca" d="M357.683 44.589h45.972v45.972h-45.972z"/><path fill="#7f7f7f" d="M349.198 44.589h8.485v45.972h-8.485z"/><path d="M382.496 48.677h8.525v37.797h-8.525c-10.437 0-18.899-8.461-18.899-18.899 0-10.437 8.461-18.898 18.899-18.898z" fill="#ba674d"/><circle cx="390.992" cy="67.575" r="18.899" fill="#d47857"/><path fill="#cacaca" d="M419.709 44.589h45.972v45.972h-45.972z"/><path fill="#7f7f7f" d="M411.224 44.589h8.485v45.972h-8.485z"/><path d="M444.521 48.677h8.525v37.797h-8.525c-10.437 0-18.899-8.461-18.899-18.899.001-10.437 8.462-18.898 18.899-18.898z" fill="#556a71"/><circle cx="453.018" cy="67.575" r="18.899" fill="#7a8990"/><path fill="#cacaca" d="M481.735 44.589h45.972v45.972h-45.972z"/><path fill="#7f7f7f" d="M473.249 44.589h8.485v45.972h-8.485z"/><path d="M506.547 48.677h8.525v37.797h-8.525c-10.437 0-18.899-8.461-18.899-18.899 0-10.437 8.462-18.898 18.899-18.898z" fill="#ba674d"/><circle cx="515.044" cy="67.575" r="18.899" fill="#d47857"/><path fill="#cacaca" d="M357.683 102.602h45.972v45.972h-45.972z"/><path fill="#7f7f7f" d="M349.198 102.602h8.485v45.972h-8.485z"/><path d="M382.496 106.689h8.525v37.797h-8.525c-10.437 0-18.899-8.461-18.899-18.899 0-10.437 8.461-18.898 18.899-18.898z" fill="#556a71"/><circle cx="390.992" cy="125.588" r="18.899" fill="#7a8990"/><path fill="#cacaca" d="M419.709 102.602h45.972v45.972h-45.972z"/><path fill="#7f7f7f" d="M411.224 102.602h8.485v45.972h-8.485z"/><path d="M444.521 106.689h8.525v37.797h-8.525c-10.437 0-18.899-8.461-18.899-18.899.001-10.437 8.462-18.898 18.899-18.898z" fill="#ba674d"/><circle cx="453.018" cy="125.588" r="18.899" fill="#d47857"/><path fill="#cacaca" d="M481.735 102.602h45.972v45.972h-45.972z"/><path fill="#7f7f7f" d="M473.249 102.602h8.485v45.972h-8.485z"/><path d="M506.547 106.689h8.525v37.797h-8.525c-10.437 0-18.899-8.461-18.899-18.899 0-10.437 8.462-18.898 18.899-18.898z" fill="#556a71"/><circle cx="515.044" cy="125.588" r="18.899" fill="#7a8990"/><path opacity=".49" fill="#f1f1f1" d="M404.465 398.685h-46.441l-16.506-39.357-3.611-8.596h18.587zm174.431 0h-56.344l-47.954-47.953h84.199z"/><path d="M521.48 460.902c-22.819-22.819-59.815-22.819-82.633 0-22.819 22.819-22.819 59.815 0 82.633 22.819 22.819 59.815 22.819 82.633 0 22.819-22.819 22.819-59.815 0-82.633zm-10.757 65.092l-17.912-17.912a13.97 13.97 0 0 0 0-11.728l17.912-17.912c10.876 13.945 10.876 33.608 0 47.552zm-6.784-54.335l-17.912 17.912a13.97 13.97 0 0 0-11.728 0l-17.912-17.912c13.945-10.876 33.608-10.876 47.552 0zm-54.335 6.784l17.912 17.912a13.97 13.97 0 0 0 0 11.728l-17.912 17.912c-10.875-13.945-10.875-33.608 0-47.552zm6.784 54.335l17.912-17.912a13.97 13.97 0 0 0 11.728 0l17.912 17.912c-13.945 10.875-33.608 10.875-47.552 0z" fill="#556a71"/></svg>