<?xml version="1.0" encoding="UTF-8" standalone="no"?>
<svg
   xmlns:dc="http://purl.org/dc/elements/1.1/"
   xmlns:cc="http://creativecommons.org/ns#"
   xmlns:rdf="http://www.w3.org/1999/02/22-rdf-syntax-ns#"
   xmlns:svg="http://www.w3.org/2000/svg"
   xmlns="http://www.w3.org/2000/svg"
   xmlns:sodipodi="http://sodipodi.sourceforge.net/DTD/sodipodi-0.dtd"
   xmlns:inkscape="http://www.inkscape.org/namespaces/inkscape"
   version="1.0"
   width="513.51801"
   height="199.27798"
   id="svg96"
   sodipodi:docname="clean.svg"
   inkscape:version="0.92.4 (5da689c313, 2019-01-14)">
  <metadata
     id="metadata102">
    <rdf:RDF>
      <cc:Work
         rdf:about="">
        <dc:format>image/svg+xml</dc:format>
        <dc:type
           rdf:resource="http://purl.org/dc/dcmitype/StillImage" />
      </cc:Work>
    </rdf:RDF>
  </metadata>
  <defs
     id="defs100" />
  <sodipodi:namedview
     pagecolor="#ffffff"
     bordercolor="#666666"
     borderopacity="1"
     objecttolerance="10"
     gridtolerance="10"
     guidetolerance="10"
     inkscape:pageopacity="0"
     inkscape:pageshadow="2"
     inkscape:window-width="1366"
     inkscape:window-height="705"
     id="namedview98"
     showgrid="false"
     inkscape:snap-page="false"
     inkscape:zoom="0.73265127"
     inkscape:cx="398.77032"
     inkscape:cy="-80.528092"
     inkscape:window-x="-8"
     inkscape:window-y="-8"
     inkscape:window-maximized="1"
     inkscape:current-layer="svg96" />
  <path
     d="m 131.968,47.899 0.872,-1.612 c -8.086,-4.307 -16.404,-7.133 -24.769,-8.328 -3.465,-0.491 -6.956,-0.74 -10.377,-0.74 -27.597997,0 -52.288,16.601 -61.44,41.307997 l 8.883,3.289 C 52.918,60.807 74.040003,46.692 97.695,46.692 c 2.978,0 6.021,0.217 9.042,0.646 16.037,2.291 31.447,11.039 45.803,26 l 5.229,-5.019 C 150.705,60.77 142.084,53.371 131.968,47.899 Z"
     id="path2"
     inkscape:connector-curvature="0"
     style="fill:#62aeb2" />
  <path
     d="M 67.210003,158.51699 C 43.421,147.45799 28.05,124.07099 28.05,98.934992 28.05,86.218992 31.777,73.913 38.826,63.347 c 2.682,-4.024 5.851,-7.796 9.416,-11.21 l 4.367,4.562 c -3.233,3.094 -6.103,6.509 -8.53,10.15 -6.355,9.525997 -9.715,20.619992 -9.715,32.084992 0,23.037998 13.605,43.674998 35.508003,53.854998 z m 115.881997,-51.827 -2.738,-6.389 c -0.25,-0.492998 -0.595,-1.153998 -1.013,-1.932998 -4.795,9.079998 -30.021,53.415998 -71.498,59.338998 -3.387,0.484 -6.88,1.592 -10.183,1.592 -9.66,-0.004 -18.926,-2.037 -27.537997,-6.044 l -3.162,5.795 c 9.61,4.471 19.937997,6.739 30.704997,6.743 3.651,0 7.397,-0.271 11.134,-0.805 40.02,-5.716 65.279,-42.317 74.582,-58.423 z"
     id="path4"
     inkscape:connector-curvature="0"
     style="fill:#62aeb2" />
  <path
     d="m 191.866,137.54999 c -8.114,11.026 -17.068,20.572 -26.674,28.371 l 2.318,2.854 c 9.499,-7.713 18.374,-17.07 26.441,-27.847 16.509,22.525 43.977,49.245 83.794,54.929 l 0.943,-6.603 c -40.696,-5.811 -67.953,-34.586 -84.16,-59.075 -0.763,-1.156 -2.662,7.371 -2.662,7.371 z"
     id="path6"
     inkscape:connector-curvature="0"
     style="fill:#e47128" />
  <path
     d="m 298.22,164.99999 c -5.256,0.344 -10.605,0.145 -15.971,-0.622 -12.228,-1.748 -24.078,-6.63 -35.223,-14.511 l -3.465,4.898 c 11.929,8.436 24.659,13.668 37.838,15.552 3.966,0.567 7.967,0.854 11.891,0.854 1.651,0 3.293,-0.063 4.93,-0.163 z"
     id="path8"
     inkscape:connector-curvature="0"
     style="fill:#e5ad24" />
  <path
     d="m 186.261,105.33199 -3.17,1.358 -2.738,-6.389 C 178.302,96.262992 170.617,82.041997 157.769,68.318 l -5.229,5.019 c 11.268,11.741992 18.037,23.380992 20.425,27.83999 l 9.612,16.774 8.217,-4.711 z"
     id="path10"
     inkscape:connector-curvature="0"
     style="fill:#e47128" />
  <path
     d="m 293.291,159.66199 c -3.405,0 -6.858,-0.248 -10.263,-0.738 -42.807,-6.113 -67.851,-49.576 -72.437,-58.228 l 6.623,-3.509998 c 2.628,4.956998 26.83,48.598998 66.878,54.317998 3.056,0.439 6.148,0.663 9.198,0.663 v 7.495 z"
     id="path12"
     inkscape:connector-curvature="0"
     style="fill:#62aeb2" />
  <path
     d="M 352.937,82.234992 C 350.084,72.971 344.762,64.423 337.544,57.514 328.085,48.466 316.073,42.682 302.806,40.788 l 1.213,-8.492 c 15.051,2.147 28.694,8.725 39.456,19.02 8.272,7.918 14.379,17.736 17.661,28.393997 z"
     id="path14"
     inkscape:connector-curvature="0"
     style="fill:#00878f" />
  <path
     d="m 238.345,54.946 -4.043,-4.604 c 14.56,-12.787 30.402,-20.478 47.089,-22.858 3.94,-0.563 7.934,-0.849 11.867,-0.849 20.32,0 39.357,7.507 53.604,21.139 l -4.236,4.428 C 329.525,39.667 311.993,32.763 293.259,32.763 c -3.645,0 -7.346,0.266 -11.001,0.788 -15.489,2.209 -30.263,9.408 -43.913,21.395 z"
     id="path16"
     inkscape:connector-curvature="0"
     style="fill:#00878f" />
  <path
     d="m 207.218,114.62299 -21.253,-10.11 5.055,-10.626998 C 194.303,86.986992 206.711,62.982 228.56,43.801 l 8.844,-7.764 15.527,17.688 -8.844,7.764 c -18.944,16.629997 -29.825,38.327992 -31.813,42.50899 z"
     id="path18"
     inkscape:connector-curvature="0"
     style="fill:#e5ad24" />
  <path
     d="m 27.319,127.31199 c -3.925,-8.957 -5.915,-18.505 -5.915,-28.376998 C 21.404,79.379997 29.305,61.055 43.652,47.333 48.664,42.539 54.32,38.45 60.464,35.18 l 3.455,6.49 c -5.55,2.955 -10.659,6.647 -15.186,10.978 -12.882,12.32 -19.977,28.758997 -19.977,46.286992 0,8.850998 1.782,17.403998 5.296,25.425998 z"
     id="path20"
     inkscape:connector-curvature="0"
     style="fill:#00878f" />
  <path
     d="m 52.645,56.739 -4.439,-4.643 c 13.137,-12.562 30.713,-19.48 49.489,-19.48 3.66,0 7.372,0.265 11.032,0.787 8.964,1.281 17.812,4.258 26.297,8.846 l -3.055,5.65 c -7.816,-4.226 -15.941,-6.963 -24.151,-8.137 -3.359,-0.479 -6.766,-0.723 -10.123,-0.723 -17.114,10e-4 -33.113,6.287 -45.05,17.7 z M 8.657,98.934992 H 4.735 C 4.735,74.788997 14.464,52.186 32.13,35.29 l 2.711,2.834 C 17.956,54.273 8.657,75.868997 8.657,98.934992 Z"
     id="path22"
     inkscape:connector-curvature="0"
     style="fill:#e5ad24" />
  <path
     d="M 163.856,31.893 C 148.009,19.225 130.639,11.469 112.228,8.84 107.406,8.152 102.516,7.804 97.695,7.804 78.622,7.804 60.311,13.167 44.742,23.315 L 41.887,18.934 C 58.307,8.231 77.606003,2.574 97.696,2.574 c 5.067,0 10.206,0.366 15.272,1.089 19.349,2.763 37.568,10.887 54.154,24.145 z M 200.639,65.841 190.321,58.56 C 206.827,35.164 235.345,6.014 277.467,0 l 1.785,12.502 c -37.663,5.378 -63.538,31.974 -78.613,53.339 z"
     id="path24"
     inkscape:connector-curvature="0"
     style="fill:#00878f" />
  <path
     d="m 212.453,67.348 -7.301,-5.52 c 14.446,-19.11 39.062,-42.947 74.293,-47.974 4.582,-0.655 9.23,-0.987 13.813,-0.987 11.874,0 23.376,2.166 34.187,6.438 l -3.363,8.512 c -9.735,-3.847 -20.105,-5.797 -30.823,-5.797 -4.151,0 -8.363,0.302 -12.52,0.896 -32.146,4.586 -54.877,26.693 -68.286,44.432 z"
     id="path26"
     inkscape:connector-curvature="0"
     style="fill:#62aeb2" />
  <path
     d="m 197.734,82.249992 -10.215,-4.157995 3.037,-7.462997 0.262,-0.413 C 204.006,49.342 232.926,13.354 278.445,6.86 283.36,6.158 288.344,5.802 293.258,5.802 v 11.029 c -4.394,0 -8.854,0.319 -13.254,0.947 -38.844,5.542 -64.693,34.458 -79.603,57.917997 z"
     id="path28"
     inkscape:connector-curvature="0"
     style="fill:#62aeb2" />
  <path
     d="m 197.56,70.946 -5.285,-6.484 C 183.492,52.015 173.656,41.4 163.04,32.913 l 4.898,-6.128 c 11.16,8.922 21.479,20.038 30.667,33.04 l 5.031,6.158 z"
     id="path30"
     inkscape:connector-curvature="0"
     style="fill:#62aeb2" />
  <path
     d="M 359.884,34.17 C 342.115,17.167 318.454,7.804 293.259,7.804 c -4.817,0 -9.706,0.349 -14.53,1.036 l -0.738,-5.178 c 5.067,-0.723 10.205,-1.089 15.269,-1.089 26.549,0 51.494,9.879 70.24,27.817 z"
     id="path32"
     inkscape:connector-curvature="0"
     style="fill:#e47128" />
  <path
     d="m 110.953,180.08499 -1.906,-13.346 c 53.362,-7.618 79.951,-69.772998 80.213,-70.399998 1.182,-2.841 29.705,-69.850992 90.745,-78.561992 l 1.904,13.346 c -53.525,7.638 -79.944,69.77199 -80.205,70.39899 -1.186,2.85 -29.727,69.85 -90.751,78.563 z"
     id="path34"
     inkscape:connector-curvature="0"
     style="fill:#00878f" />
  <path
     d="m 54.884,166.59299 5.853,-10.072 c 14.362003,8.344 31.006,11.457 48.135,9.006 l 1.65,11.526 c 11.158,-1.593 22.06,-5.413 32.401,-11.353 l -9.766,-17.004 c -8.176,4.696 -16.726,7.706 -25.413,8.946 -3.368,0.481 -6.759,0.725 -10.084,0.725 -16.981,-10e-4 -32.855,-6.243 -44.698,-17.576 -5.736,-5.49 -10.21,-11.846 -13.295,-18.889 l -16.833,7.373 c 4.019,9.171 9.881,17.582 17.419,24.796 l -0.848,0.886 c 4.715,4.512 9.913,8.398 15.479,11.636 z"
     id="path36"
     inkscape:connector-curvature="0"
     style="fill:#00878f" />
  <path
     d="m 97.665,183.10399 c -23.385997,-0.001 -45.333,-8.682 -61.805,-24.441 l 3.701,-3.868 c 15.471,14.803 36.104003,22.955 58.098,22.956 4.24,0 8.554,-0.31 12.827,-0.921 44.007,-6.285 70.607,-43.525 82.582,-65.257 l 3.037,-7.188 4.932,2.084 -3.211,7.564 c -12.424,22.588 -40.193,61.472 -86.582,68.096 -4.524,0.646 -9.092,0.975 -13.579,0.975 z"
     id="path38"
     inkscape:connector-curvature="0"
     style="fill:#00878f" />
  <path
     d="m 97.665,197.58599 c -27.138997,-0.004 -52.641,-10.112 -71.815,-28.463 l 6.779,-7.084 c 17.341,16.597 40.436003,25.738 65.031,25.742 4.719,0 9.51,-0.344 14.243,-1.022 18.344,-2.621 35.622,-10.432 51.357,-23.216 l 6.182,7.609 c -17.134,13.92 -36.025,22.437 -56.15,25.312 -5.191,0.744 -10.449,1.122 -15.627,1.122 z"
     id="path40"
     inkscape:connector-curvature="0"
     style="fill:#00878f" />
  <path
     d="m 112.339,189.78999 -1.213,-8.492 c 39.533,-5.645 65.689,-35.059 80.683,-58.772 0.459,-0.796 4.496,-7.801 6.042,-10.741 l 7.594,3.992 c -1.712,3.255 -6.065,10.794 -6.25,11.113 l -0.087,0.146 c -15.953,25.253 -43.955,56.641 -86.769,62.754 z"
     id="path42"
     inkscape:connector-curvature="0"
     style="fill:#e5ad24" />
  <path
     d="m 55.196,166.05799 c -24.613,-14.292 -39.307,-39.385 -39.307,-67.122998 0,-4.036 0.317,-8.083 0.944,-12.027 l 6.051,0.961 c -0.575,3.628 -0.868,7.351 -0.868,11.066 0,25.528998 13.554,48.641998 36.256,61.823998 z"
     id="path44"
     inkscape:connector-curvature="0"
     style="fill:#62aeb2" />
  <path
     d="m 25.671,88.309992 -11.623,-1.844 C 17.412,65.271 29.128,46.542 47.039,33.731 65.23,20.718 87.881,15.351 110.835,18.626 c 5.169,0.739 10.318,1.945 15.307,3.584 l -3.674,11.18 c -4.335,-1.424 -8.809,-2.472 -13.297,-3.114 -40.726997,-5.797 -77.413,19.682 -83.5,58.033992 z"
     id="path46"
     inkscape:connector-curvature="0"
     style="fill:#e47128" />
  <path
     d="M 24.156,170.89399 C 13.425,160.62699 5.298,148.56799 0,135.05099 l 13.691,-5.367 c 4.514,11.515 11.455,21.805 20.631,30.584 z"
     id="path48"
     inkscape:connector-curvature="0"
     style="fill:#e5ad24" />
  <path
     d="m 97.665,190.84299 c -25.393997,-0.003 -49.241,-9.446 -67.157,-26.591 -16.307,-15.605 -26.196,-36.384 -27.847,-58.507 l -0.009,-0.159 -0.242,-6.490998 8.572,-0.32 0.239,6.409998 c 1.51,19.978 10.464,38.75 25.218,52.87 16.312,15.609 38.054003,24.207 61.221,24.21 4.453,0 8.982,-0.325 13.465,-0.967 l 1.215,8.492 c -4.884,0.698 -9.822,1.053 -14.675,1.053 z"
     id="path50"
     inkscape:connector-curvature="0"
     style="fill:#62aeb2" />
  <path
     d="m 137.05,160.85299 -2.665,-4.644 2.321,-1.332 c 30.274,-17.379 47.186,-50.602 50.269,-57.084998 l 1.149,-2.417 4.834,2.299 -1.149,2.416998 c -3.202,6.735 -20.781,41.258 -52.437,59.429 z"
     id="path52"
     inkscape:connector-curvature="0"
     style="fill:#e5ad24" />
  <path
     d="m 203.932,95.418992 c -0.268,-0.643 -2.177,-5.146 -5.808,-11.729 l 1.363,-0.751 C 186.86,60.025 158.64,20.581 111.514,13.854 106.93,13.199 102.28,12.867 97.694,12.867 v 9.152 c 4.154,0 8.368,0.302 12.526,0.896 5.095,0.728 9.944,1.895 14.571,3.399 l -3.348,10.179 c 43.5,14.308 65.375,65.45399 65.586,65.95599 1.206,2.899 30.249,71.119 92.633,80.023 l 2.586,-18.121 c -51.977,-7.419 -78.062,-68.327998 -78.316,-68.931998 z"
     id="path54"
     inkscape:connector-curvature="0"
     style="fill:#00878f" />
  <path
     d="m 375.655,98.934992 h -7.354 C 368.301,78.684997 359.366,59.32 343.787,45.805 327.051,31.286 304.342,24.832 281.475,28.09 l -1.037,-7.279 c 24.973,-3.564 49.821,3.523 68.168,19.439 17.19,14.912 27.049,36.301997 27.049,58.684992 z M 88.386,68.092 h 19.887 v 61.69899 H 88.386 Z"
     id="path56"
     inkscape:connector-curvature="0"
     style="fill:#e5ad24" />
  <path
     d="M 67.481003,88.998992 H 129.176 V 108.88899 H 67.481003 Z"
     id="path58"
     inkscape:connector-curvature="0"
     style="fill:#00878f" />
  <path
     d="m 393.894,107.92299 -7.859,-0.729 c 0.251,-2.714 0.379,-5.492 0.379,-8.259998 0,-24.207995 -9.749,-46.865992 -27.451,-63.802992 l 5.457,-5.703 c 19.272,18.439 29.887,43.124 29.887,69.505992 -0.001,3.008998 -0.139,6.033998 -0.413,8.988998 z"
     id="path60"
     inkscape:connector-curvature="0"
     style="fill:#62aeb2" />
  <path
     d="m 366.853,112.51599 -5.131,-1.02 c 0.824,-4.148 1.242,-8.411 1.242,-12.668998 0,-17.817995 -7.21,-34.529992 -20.301,-47.056992 l 3.615,-3.779 c 14.133,13.523 21.916,31.576997 21.916,50.835992 10e-4,4.599998 -0.451,9.204998 -1.341,13.688998 z"
     id="path62"
     inkscape:connector-curvature="0"
     style="fill:#00878f" />
  <path
     d="m 357.868,113.77499 -11.875,-3.027 c 0.978,-3.834 1.473,-7.809 1.474,-11.813998 C 347.467,70.895 323.15,48.083 293.259,48.083 c -2.91,0 -5.886,0.213 -8.845,0.632 -0.783,0.112 -1.564,0.241 -2.342,0.384 l -2.211,-12.055 c 0.938,-0.172 1.877,-0.326 2.827,-0.462 3.532,-0.501 7.087,-0.755 10.57,-0.755 36.648,0 66.464,28.311 66.464,63.106992 -10e-4,5.026998 -0.625,10.018998 -1.854,14.840998 z"
     id="path64"
     inkscape:connector-curvature="0"
     style="fill:#e47128" />
  <path
     d="m 259.678,50.848 -1.413,-2.549 c -28.136,15.598 -44.606,46.129992 -47.623,52.09299 l -2.979,6.064 -3.151,-1.549 -1.299,2.885 11.18,5.02 5.012,-11.162 C 222.353,96.186992 245.244,55.885 282.078,49.098 l -1.108,-6.016 c -7.232,1.336 -14.381,3.938 -21.292,7.766 z"
     id="path66"
     inkscape:connector-curvature="0"
     style="fill:#00878f" />
  <path
     d="m 293.291,185.94099 c -4.619,0 -9.324,-0.338 -13.984,-1.004 -20.805,-2.971 -40.108,-12.638 -57.375,-28.731 l 7.52,-8.068 c 15.586,14.527 32.885,23.235 51.415,25.882 4.951,0.706 9.925,0.976 14.812,0.861 l 0.258,11.027 c -0.883,0.021 -1.763,0.033 -2.646,0.033 z"
     id="path68"
     inkscape:connector-curvature="0"
     style="fill:#62aeb2" />
  <g
     id="g76"
     transform="translate(-213.262,-197.99901)">
    <path
       d="m 524.588,342.071 5.867,-18.696 h 5.206 l 5.954,18.696 h -4.918 l -1.036,-3.825 h -5.378 l -0.949,3.825 z m 8.283,-14.266 -1.696,6.846 h 3.537 z m 11.708,-4.43 h 7.536 c 5.177,0 7.133,2.646 7.133,6.242 0,2.56 -1.035,4.516 -3.077,5.608 l 3.652,6.846 h -5.465 l -2.818,-5.925 h -2.33 v 5.925 h -4.631 z m 9.751,6.271 c 0,-1.668 -0.604,-2.502 -2.762,-2.502 h -2.358 v 5.292 h 2.445 c 1.611,0 2.675,-0.719 2.675,-2.79 z m 8.66,-6.271 h 6.126 c 6.989,0 9.319,3.309 9.319,9.176 0,4.43 -1.352,9.521 -9.29,9.521 h -6.155 z m 4.631,3.769 v 11.103 h 1.754 c 3.826,0 4.113,-2.33 4.113,-5.494 0,-3.652 -0.374,-5.608 -4.516,-5.608 h -1.351 z m 24.507,-3.769 h 4.458 v 12.282 c 0,5.522 -4.228,6.702 -7.535,6.702 -3.193,0 -7.277,-1.064 -7.277,-6.731 v -12.253 h 4.631 v 11.391 c 0,3.106 1.093,3.825 2.848,3.825 2.1,0 2.876,-0.949 2.876,-3.797 v -11.419 z m 8.601,14.871 h 4.832 v -11.045 h -4.832 v -3.826 h 14.324 v 3.826 h -4.861 v 11.045 h 4.861 v 3.825 h -14.324 z m 22.524,3.825 h -4.372 v -18.696 h 5.034 l 6.068,11.218 v -11.218 h 4.314 v 18.696 h -4.688 l -6.386,-11.965 z m 29.973,-9.347 c 0,5.407 -1.984,9.636 -7.996,9.636 -5.379,0 -7.853,-3.251 -7.853,-9.435 0,-5.638 2.157,-9.809 7.824,-9.809 5.32,0 8.025,2.474 8.025,9.608 z m -4.918,0 c 0,-4.573 -0.374,-5.839 -3.106,-5.839 -2.474,0 -2.905,1.467 -2.905,6.04 0,3.768 0.259,5.666 2.934,5.666 2.703,0 3.077,-1.553 3.077,-5.867 z"
       id="path70"
       inkscape:connector-curvature="0"
       style="fill:#00878f" />
    <path
       d="m 540.982,360.182 c 0,5.465 -2.243,9.636 -7.967,9.636 -5.408,0 -7.795,-3.423 -7.795,-9.492 0,-5.695 2.301,-9.751 7.852,-9.751 5.379,-10e-4 7.91,2.819 7.91,9.607 z m -3.94,0 c 0,-4.688 -0.69,-6.529 -3.97,-6.529 -3.135,0 -3.911,1.898 -3.911,6.673 0,4.171 0.575,6.414 3.854,6.414 3.251,-0.001 4.027,-2.129 4.027,-6.558 z m 8.228,-9.349 h 7.047 c 5.005,0 6.874,2.618 6.874,6.271 0,3.912 -2.502,6.472 -7.018,6.472 h -3.192 v 5.954 h -3.711 z m 9.98,6.415 c 0,-1.956 -0.69,-3.337 -3.308,-3.337 h -2.962 v 6.587 h 3.077 c 2.014,0 3.193,-0.834 3.193,-3.25 z m 21.949,-6.415 v 3.078 h -9.521 v 4.545 h 8.628 v 3.049 h -8.628 v 4.918 h 9.491 v 3.106 h -13.202 v -18.696 z m 8.113,18.696 h -3.51 v -18.696 h 4.056 l 7.277,12.714 v -12.714 h 3.451 v 18.696 h -3.768 l -7.536,-13.288 z m 18.639,-5.781 v -3.021 h 7.881 v 3.021 z m 16.139,-7.968 c 0,-3.049 3.077,-5.206 6.932,-5.206 2.1,0 3.969,0.432 5.724,1.41 l -1.035,3.451 c -1.208,-1.064 -2.762,-1.783 -4.66,-1.783 -1.754,0 -3.02,0.546 -3.02,1.869 0,3.365 9.463,2.244 9.463,8.773 0,3.911 -3.596,5.522 -7.564,5.522 -2.043,0 -4.314,-0.461 -6.213,-1.697 l 1.208,-3.423 c 1.467,1.294 3.278,2.071 5.378,2.071 1.812,0 3.222,-0.604 3.222,-2.101 -0.002,-3.967 -9.435,-2.528 -9.435,-8.886 z m 33.078,4.402 c 0,5.465 -2.243,9.636 -7.967,9.636 -5.408,0 -7.795,-3.423 -7.795,-9.492 0,-5.695 2.301,-9.751 7.852,-9.751 5.379,-10e-4 7.91,2.819 7.91,9.607 z m -3.94,0 c 0,-4.688 -0.69,-6.529 -3.97,-6.529 -3.135,0 -3.911,1.898 -3.911,6.673 0,4.171 0.575,6.414 3.854,6.414 3.25,-0.001 4.027,-2.129 4.027,-6.558 z m 18.324,-9.349 h 3.596 v 12.052 c 0,5.034 -3.193,6.933 -7.277,6.933 -3.969,0 -7.075,-1.64 -7.075,-6.846 v -12.139 h 3.71 v 11.506 c 0,3.48 1.18,4.43 3.509,4.43 2.646,0 3.538,-1.209 3.538,-4.487 v -11.449 z m 8.285,0 h 6.932 c 5.005,0 6.903,2.388 6.903,6.041 0,2.56 -1.122,4.458 -3.222,5.465 l 3.94,7.19 h -4.4 l -3.279,-6.472 h -3.163 v 6.472 h -3.711 z m 9.894,6.099 c 0,-2.101 -0.863,-3.021 -3.308,-3.021 h -2.876 v 6.126 h 2.962 c 1.871,0 3.222,-0.776 3.222,-3.105 z m 22.839,11.418 c -1.898,1.007 -3.739,1.468 -5.867,1.468 -5.379,0 -8.456,-3.193 -8.456,-9.607 0,-6.155 3.509,-9.636 8.944,-9.636 1.928,0 3.739,0.489 5.207,1.381 l -1.237,3.164 c -1.352,-1.064 -2.675,-1.467 -4.142,-1.467 -3.164,0 -4.832,2.157 -4.832,6.472 0,4.372 1.524,6.645 4.86,6.645 1.812,0 3.423,-0.547 4.66,-1.381 z m 18.21,-17.517 v 3.078 h -9.521 v 4.545 h 8.628 v 3.049 h -8.628 v 4.918 h 9.491 v 3.106 h -13.202 v -18.696 z"
       id="path72"
       inkscape:connector-curvature="0"
       style="fill:#8c7965" />
    <path
       d="m 540.292,395.809 c -1.898,1.007 -3.739,1.468 -5.867,1.468 -5.379,0 -8.456,-3.193 -8.456,-9.607 0,-6.155 3.509,-9.636 8.944,-9.636 1.928,0 3.739,0.489 5.206,1.381 l -1.236,3.164 c -1.352,-1.064 -2.675,-1.467 -4.142,-1.467 -3.164,0 -4.832,2.157 -4.832,6.472 0,4.372 1.524,6.645 4.86,6.645 1.812,0 3.423,-0.547 4.66,-1.381 z m 19.388,-8.168 c 0,5.465 -2.243,9.636 -7.967,9.636 -5.408,0 -7.795,-3.423 -7.795,-9.492 0,-5.695 2.301,-9.751 7.852,-9.751 5.378,-10e-4 7.91,2.819 7.91,9.607 z m -3.941,0 c 0,-4.688 -0.69,-6.529 -3.97,-6.529 -3.135,0 -3.911,1.898 -3.911,6.673 0,4.171 0.575,6.414 3.854,6.414 3.251,-0.001 4.027,-2.129 4.027,-6.558 z m 19.36,-3.567 -3.192,6.442 h -2.646 l -3.451,-6.702 v 13.174 h -2.991 v -18.696 h 3.279 l 4.486,8.572 4.372,-8.572 h 3.192 v 18.696 h -3.049 z m 18.697,0 -3.192,6.442 h -2.646 l -3.451,-6.702 v 13.174 h -2.991 v -18.696 h 3.279 l 4.486,8.572 4.372,-8.572 h 3.192 v 18.696 h -3.049 z m 17.662,-5.782 h 3.596 v 12.052 c 0,5.034 -3.193,6.933 -7.277,6.933 -3.969,0 -7.075,-1.64 -7.075,-6.846 v -12.139 h 3.71 v 11.506 c 0,3.48 1.18,4.43 3.509,4.43 2.646,0 3.538,-1.209 3.538,-4.487 v -11.449 z m 11.249,18.696 h -3.51 v -18.696 h 4.056 l 7.277,12.714 v -12.714 h 3.451 v 18.696 h -3.768 L 622.677,383.7 Z m 15.734,-3.106 h 4.976 v -12.483 h -4.976 v -3.106 h 13.749 v 3.106 h -5.062 v 12.483 h 5.062 v 3.106 h -13.749 z m 33.282,-12.512 h -5.896 v 15.618 h -3.711 V 381.37 h -5.896 v -3.078 h 15.503 z m 11.276,5.292 3.854,-8.37 h 3.71 l -5.867,11.333 v 7.363 h -3.739 v -7.277 l -6.155,-11.419 h 3.998 z"
       id="path74"
       inkscape:connector-curvature="0"
       style="fill:#e47128" />
  </g>
</svg>
