<?xml version="1.0" encoding="iso-8859-1"?>
<!-- Generator: Adobe Illustrator 19.0.0, SVG Export Plug-In . SVG Version: 6.00 Build 0)  -->
<svg version="1.1" id="Layer_1" xmlns="http://www.w3.org/2000/svg" xmlns:xlink="http://www.w3.org/1999/xlink" x="0px" y="0px"
	 viewBox="0 0 512.001 512.001" style="enable-background:new 0 0 512.001 512.001;" xml:space="preserve">
<path style="fill:#780F13;" d="M98.419,465.275h-6.183c-7.668,0-13.885-6.217-13.885-13.885v-14.006h33.954v14.006
	C112.305,459.058,106.088,465.275,98.419,465.275z"/>
<path style="fill:#451016;" d="M419.764,465.275h-6.183c-7.668,0-13.885-6.217-13.885-13.885v-14.006h33.954v14.006
	C433.649,459.058,427.432,465.275,419.764,465.275z"/>
<path style="fill:#690812;" d="M416.672,178.215H95.328c-8.821,0-15.973-7.152-15.973-15.973V77.783
	c0-8.821,7.152-15.973,15.973-15.973h321.345c8.822,0,15.974,7.152,15.974,15.973v84.458
	C432.646,171.063,425.495,178.215,416.672,178.215z M111.301,146.269h289.397V93.756H111.301V146.269z"/>
<path style="fill:#DE3205;" d="M457.119,444.103H54.881c-17.317,0-31.355-14.038-31.355-31.355V168.962
	c0-17.317,14.038-31.355,31.355-31.355h402.239c17.317,0,31.355,14.038,31.355,31.355v243.787
	C488.474,430.065,474.436,444.103,457.119,444.103z"/>
<path style="fill:#57565C;" d="M327.061,112.11h-135.28c-9.064,0-16.413-7.348-16.413-16.413V63.139
	c0-9.064,7.348-16.413,16.413-16.413h135.28c9.064,0,16.413,7.348,16.413,16.413v32.559
	C343.474,104.762,336.125,112.11,327.061,112.11z"/>
<g>
	<path style="fill:#9D2217;" d="M457.119,137.607H257.54v306.496h199.58c17.317,0,31.355-14.038,31.355-31.355V168.962
		C488.474,151.645,474.436,137.607,457.119,137.607z"/>
	<path style="fill:#9D2217;" d="M484.388,274.13H27.612C12.362,274.13,0,261.768,0,246.519v-26.023
		c0-15.25,12.362-27.612,27.612-27.612h456.778c15.25,0,27.612,12.362,27.612,27.612v26.023
		C512,261.768,499.638,274.13,484.388,274.13z"/>
</g>
<path style="fill:#690812;" d="M484.388,192.884H257.54v81.246h226.849c15.25,0,27.612-12.362,27.612-27.612v-26.023
	C512,205.246,499.638,192.884,484.388,192.884z"/>
<path style="fill:#F7E05D;" d="M126.153,320.21H94.818c-5.411,0-9.798-4.387-9.798-9.798v-67.107c0-5.411,4.387-9.798,9.798-9.798
	h31.335c5.411,0,9.798,4.387,9.798,9.798v67.107C135.951,315.823,131.565,320.21,126.153,320.21z"/>
<path style="fill:#C3A534;" d="M426.979,310.412c0,5.411-4.387,9.798-9.798,9.798h-31.335c-5.411,0-9.798-4.387-9.798-9.798v-67.107
	c0-5.411,4.387-9.798,9.798-9.798h31.335c5.411,0,9.798,4.387,9.798,9.798V310.412z"/>
<path style="fill:#2D2E30;" d="M327.061,46.726H257.54v65.384h69.521c9.064,0,16.413-7.348,16.413-16.413V63.139
	C343.474,54.075,336.125,46.726,327.061,46.726z"/>
<g>
</g>
<g>
</g>
<g>
</g>
<g>
</g>
<g>
</g>
<g>
</g>
<g>
</g>
<g>
</g>
<g>
</g>
<g>
</g>
<g>
</g>
<g>
</g>
<g>
</g>
<g>
</g>
<g>
</g>
</svg>
