<?xml version="1.0" encoding="iso-8859-1"?>
<!-- Generator: Adobe Illustrator 19.0.0, SVG Export Plug-In . SVG Version: 6.00 Build 0)  -->
<svg version="1.1" id="Layer_1" xmlns="http://www.w3.org/2000/svg" xmlns:xlink="http://www.w3.org/1999/xlink" x="0px" y="0px"
	 viewBox="0 0 512 512" style="enable-background:new 0 0 512 512;" xml:space="preserve">
<g>
	<path style="fill:#36A1CB;" d="M101.005,81.667c-4.465,0-8.084-3.618-8.084-8.084V8.084c0-4.466,3.62-8.084,8.084-8.084
		s8.084,3.618,8.084,8.084v65.498C109.089,78.047,105.471,81.667,101.005,81.667z"/>
	<path style="fill:#36A1CB;" d="M163.004,81.667c-4.465,0-8.084-3.618-8.084-8.084V8.084c0-4.466,3.62-8.084,8.084-8.084
		c4.466,0,8.084,3.618,8.084,8.084v65.498C171.088,78.047,167.468,81.667,163.004,81.667z"/>
	<path style="fill:#36A1CB;" d="M225.001,81.667c-4.465,0-8.084-3.618-8.084-8.084V8.084c0-4.466,3.62-8.084,8.084-8.084
		c4.466,0,8.084,3.618,8.084,8.084v65.498C233.085,78.047,229.467,81.667,225.001,81.667z"/>
	<path style="fill:#36A1CB;" d="M286.999,81.667c-4.465,0-8.084-3.618-8.084-8.084V8.084c0-4.466,3.62-8.084,8.084-8.084
		c4.466,0,8.084,3.618,8.084,8.084v65.498C295.083,78.047,291.464,81.667,286.999,81.667z"/>
	<path style="fill:#36A1CB;" d="M348.999,81.667c-4.466,0-8.084-3.618-8.084-8.084V8.084c0-4.466,3.618-8.084,8.084-8.084
		c4.465,0,8.084,3.618,8.084,8.084v65.498C357.083,78.047,353.463,81.667,348.999,81.667z"/>
	<path style="fill:#36A1CB;" d="M410.997,75.975c-4.466,0-8.084-3.618-8.084-8.084V8.084c0-4.466,3.618-8.084,8.084-8.084
		c4.465,0,8.084,3.618,8.084,8.084v59.807C419.081,72.357,415.461,75.975,410.997,75.975z"/>
	<path style="fill:#36A1CB;" d="M101.005,512c-4.465,0-8.084-3.62-8.084-8.084V432.07c0-4.466,3.62-8.084,8.084-8.084
		s8.084,3.618,8.084,8.084v71.846C109.089,508.38,105.471,512,101.005,512z"/>
	<path style="fill:#36A1CB;" d="M163.004,512c-4.465,0-8.084-3.62-8.084-8.084v-66.178c0-4.466,3.62-8.084,8.084-8.084
		c4.466,0,8.084,3.618,8.084,8.084v66.178C171.088,508.38,167.468,512,163.004,512z"/>
	<path style="fill:#36A1CB;" d="M225.001,512c-4.465,0-8.084-3.62-8.084-8.084v-66.178c0-4.466,3.62-8.084,8.084-8.084
		c4.466,0,8.084,3.618,8.084,8.084v66.178C233.085,508.38,229.467,512,225.001,512z"/>
	<path style="fill:#36A1CB;" d="M286.999,512c-4.465,0-8.084-3.62-8.084-8.084v-66.178c0-4.466,3.62-8.084,8.084-8.084
		c4.466,0,8.084,3.618,8.084,8.084v66.178C295.083,508.38,291.464,512,286.999,512z"/>
	<path style="fill:#36A1CB;" d="M348.999,512c-4.466,0-8.084-3.62-8.084-8.084v-66.178c0-4.466,3.618-8.084,8.084-8.084
		c4.465,0,8.084,3.618,8.084,8.084v66.178C357.083,508.38,353.463,512,348.999,512z"/>
	<path style="fill:#36A1CB;" d="M410.997,512c-4.466,0-8.084-3.62-8.084-8.084v-65.604c0-4.466,3.618-8.084,8.084-8.084
		c4.465,0,8.084,3.618,8.084,8.084v65.604C419.081,508.38,415.461,512,410.997,512z"/>
	<path style="fill:#36A1CB;" d="M76.845,419.081H8.085c-4.466,0-8.084-3.62-8.084-8.084c0-4.466,3.618-8.084,8.084-8.084h68.76
		c4.466,0,8.084,3.618,8.084,8.084C84.929,415.462,81.311,419.081,76.845,419.081z"/>
	<path style="fill:#36A1CB;" d="M76.845,357.083H8.085c-4.466,0-8.084-3.618-8.084-8.084s3.618-8.084,8.084-8.084h68.76
		c4.466,0,8.084,3.618,8.084,8.084C84.929,353.464,81.311,357.083,76.845,357.083z"/>
	<path style="fill:#36A1CB;" d="M76.845,295.086H8.085c-4.466,0-8.084-3.618-8.084-8.084s3.618-8.084,8.084-8.084h68.76
		c4.466,0,8.084,3.618,8.084,8.084C84.929,291.466,81.311,295.086,76.845,295.086z"/>
	<path style="fill:#36A1CB;" d="M76.845,233.087H8.085c-4.466,0-8.084-3.618-8.084-8.084c0-4.466,3.618-8.084,8.084-8.084h68.76
		c4.466,0,8.084,3.618,8.084,8.084C84.929,229.469,81.311,233.087,76.845,233.087z"/>
	<path style="fill:#36A1CB;" d="M76.845,171.088H8.085c-4.466,0-8.084-3.618-8.084-8.084c0-4.466,3.618-8.084,8.084-8.084h68.76
		c4.466,0,8.084,3.618,8.084,8.084C84.929,167.468,81.311,171.088,76.845,171.088z"/>
	<path style="fill:#36A1CB;" d="M70.875,109.089H8.085c-4.466,0-8.084-3.618-8.084-8.084c0-4.466,3.618-8.084,8.084-8.084h62.79
		c4.466,0,8.084,3.618,8.084,8.084C78.959,105.471,75.339,109.089,70.875,109.089z"/>
	<path style="fill:#36A1CB;" d="M503.915,419.081H429.3c-4.466,0-8.084-3.62-8.084-8.084c0-4.466,3.618-8.084,8.084-8.084h74.615
		c4.466,0,8.084,3.618,8.084,8.084C511.999,415.462,508.38,419.081,503.915,419.081z"/>
	<path style="fill:#36A1CB;" d="M503.915,357.083H429.3c-4.466,0-8.084-3.618-8.084-8.084s3.618-8.084,8.084-8.084h74.615
		c4.466,0,8.084,3.618,8.084,8.084C511.999,353.464,508.38,357.083,503.915,357.083z"/>
	<path style="fill:#36A1CB;" d="M503.915,295.086H429.3c-4.466,0-8.084-3.618-8.084-8.084s3.618-8.084,8.084-8.084h74.615
		c4.466,0,8.084,3.618,8.084,8.084C511.999,291.466,508.38,295.086,503.915,295.086z"/>
	<path style="fill:#36A1CB;" d="M503.915,233.087H429.3c-4.466,0-8.084-3.618-8.084-8.084c0-4.466,3.618-8.084,8.084-8.084h74.615
		c4.466,0,8.084,3.618,8.084,8.084C511.999,229.469,508.38,233.087,503.915,233.087z"/>
	<path style="fill:#36A1CB;" d="M503.915,171.088H429.3c-4.466,0-8.084-3.618-8.084-8.084c0-4.466,3.618-8.084,8.084-8.084h74.615
		c4.466,0,8.084,3.618,8.084,8.084C511.999,167.468,508.38,171.088,503.915,171.088z"/>
	<path style="fill:#36A1CB;" d="M503.915,109.089h-68.136c-4.465,0-8.084-3.618-8.084-8.084c0-4.466,3.62-8.084,8.084-8.084h68.136
		c4.466,0,8.084,3.618,8.084,8.084C511.999,105.471,508.38,109.089,503.915,109.089z"/>
</g>
<path style="fill:#FFB92E;" d="M418.889,62.727H93.111c-16.754,0-30.384,13.629-30.384,30.383v325.779
	c0,16.754,13.63,30.384,30.384,30.384h325.779c16.754,0,30.384-13.63,30.384-30.384V93.111
	C449.273,76.357,435.643,62.727,418.889,62.727z"/>
<path style="fill:#4BAF78;" d="M398.612,100.453H113.388c-7.143,0-12.935,5.792-12.935,12.935v285.223
	c0,7.143,5.792,12.935,12.935,12.935h215.179h29.103h40.941c7.144,0,12.935-5.792,12.935-12.935V113.388
	C411.547,106.245,405.756,100.453,398.612,100.453z"/>
<path style="fill:#EF9A1D;" d="M84.565,418.889V93.111c0-16.754,13.629-30.383,30.384-30.383H93.111
	c-16.754,0-30.384,13.629-30.384,30.383v325.779c0,16.754,13.63,30.384,30.384,30.384h21.838
	C98.195,449.273,84.565,435.643,84.565,418.889z"/>
<path style="fill:#299956;" d="M122.291,398.612V113.388c0-7.143,5.79-12.935,12.935-12.935h-21.838
	c-7.143,0-12.935,5.792-12.935,12.935v285.223c0,7.143,5.792,12.935,12.935,12.935h21.838
	C128.082,411.547,122.291,405.755,122.291,398.612z"/>
<g>
	<path style="fill:#80E0A7;" d="M354.241,162.817h-4.654c-4.465,0-8.084-3.618-8.084-8.084c0-4.466,3.62-8.084,8.084-8.084h4.654
		c4.466,0,8.084,3.618,8.084,8.084C362.326,159.197,358.706,162.817,354.241,162.817z"/>
	<path style="fill:#80E0A7;" d="M322.1,162.817H157.759c-4.465,0-8.084-3.618-8.084-8.084c0-4.466,3.62-8.084,8.084-8.084H322.1
		c4.466,0,8.084,3.618,8.084,8.084C330.184,159.197,326.565,162.817,322.1,162.817z"/>
	<path style="fill:#80E0A7;" d="M354.241,248.33h-4.654c-4.465,0-8.084-3.618-8.084-8.084s3.62-8.084,8.084-8.084h4.654
		c4.466,0,8.084,3.618,8.084,8.084C362.326,244.71,358.706,248.33,354.241,248.33z"/>
	<path style="fill:#80E0A7;" d="M322.1,248.33H157.759c-4.465,0-8.084-3.618-8.084-8.084s3.62-8.084,8.084-8.084H322.1
		c4.466,0,8.084,3.618,8.084,8.084C330.184,244.71,326.565,248.33,322.1,248.33z"/>
	<path style="fill:#80E0A7;" d="M162.414,205.574h-4.654c-4.465,0-8.084-3.618-8.084-8.084c0-4.466,3.62-8.084,8.084-8.084h4.654
		c4.466,0,8.084,3.618,8.084,8.084C170.498,201.954,166.879,205.574,162.414,205.574z"/>
	<path style="fill:#80E0A7;" d="M354.241,205.574H189.9c-4.465,0-8.084-3.618-8.084-8.084c0-4.466,3.62-8.084,8.084-8.084h164.341
		c4.466,0,8.084,3.618,8.084,8.084C362.326,201.954,358.706,205.574,354.241,205.574z"/>
</g>
<g>
	<path style="fill:#F5F5F5;" d="M163.004,330.806h-5.244c-4.465,0-8.084-3.618-8.084-8.084c0-4.466,3.62-8.084,8.084-8.084h5.244
		c4.466,0,8.084,3.618,8.084,8.084C171.088,327.187,167.468,330.806,163.004,330.806z"/>
	<path style="fill:#F5F5F5;" d="M201.859,330.806h-5.244c-4.465,0-8.084-3.618-8.084-8.084c0-4.466,3.62-8.084,8.084-8.084h5.244
		c4.466,0,8.084,3.618,8.084,8.084C209.944,327.187,206.325,330.806,201.859,330.806z"/>
	<path style="fill:#F5F5F5;" d="M240.719,330.806h-5.244c-4.466,0-8.084-3.618-8.084-8.084c0-4.466,3.618-8.084,8.084-8.084h5.244
		c4.466,0,8.084,3.618,8.084,8.084C248.803,327.187,245.184,330.806,240.719,330.806z"/>
	<path style="opacity:0.15;fill:#F5F5F5;enable-background:new    ;" d="M503.915,109.089c4.466,0,8.084-3.618,8.084-8.084
		c0-4.466-3.618-8.084-8.084-8.084h-54.646c-0.103-16.602-13.586-30.086-30.188-30.19V8.084c0-4.466-3.62-8.084-8.084-8.084
		c-4.466,0-8.084,3.618-8.084,8.084v54.643h-45.83V8.084c0-4.466-3.62-8.084-8.084-8.084c-4.466,0-8.084,3.618-8.084,8.084v54.643
		h-45.832V8.084c0-4.466-3.618-8.084-8.084-8.084c-4.465,0-8.084,3.618-8.084,8.084v54.643h-45.83V18.092
		c-5.792,7.114-11.2,14.554-16.168,22.304v22.331h-12.678c-16.32,32.614-25.518,69.411-25.518,108.36
		c0,133.926,108.569,242.494,242.495,242.494c24.823,0,48.773-3.738,71.324-10.668h-43.268v-45.83h54.642
		c4.466,0,8.084-3.618,8.084-8.084s-3.618-8.084-8.084-8.084h-54.642v-45.83h54.642c4.466,0,8.084-3.618,8.084-8.084
		s-3.618-8.084-8.084-8.084h-54.642v-45.83h54.642c4.466,0,8.084-3.618,8.084-8.084c0-4.466-3.618-8.084-8.084-8.084h-54.642
		v-45.832h54.642c4.466,0,8.084-3.618,8.084-8.084s-3.618-8.084-8.084-8.084h-54.642v-45.83h54.644V109.089z"/>
</g>
<path style="fill:#36A1CB;" d="M285.151,344.332c0,7.144,5.792,12.935,12.935,12.935h43.221c7.143,0,12.935-5.79,12.935-12.935
	v-43.221c0-7.144-5.792-12.935-12.935-12.935h-43.221c-7.143,0-12.935,5.79-12.935,12.935V344.332z"/>
<path style="fill:#2B80AF;" d="M306.989,344.332v-43.221c0-7.144,5.792-12.935,12.935-12.935h-21.838
	c-7.143,0-12.935,5.79-12.935,12.935v43.221c0,7.144,5.792,12.935,12.935,12.935h21.838
	C312.78,357.267,306.989,351.477,306.989,344.332z"/>
<g>
</g>
<g>
</g>
<g>
</g>
<g>
</g>
<g>
</g>
<g>
</g>
<g>
</g>
<g>
</g>
<g>
</g>
<g>
</g>
<g>
</g>
<g>
</g>
<g>
</g>
<g>
</g>
<g>
</g>
</svg>
