<svg xmlns="http://www.w3.org/2000/svg" viewBox="0 0 512 512"><path d="M101.005 81.667a8.083 8.083 0 0 1-8.084-8.084V8.084c0-4.466 3.62-8.084 8.084-8.084s8.084 3.618 8.084 8.084v65.498a8.084 8.084 0 0 1-8.084 8.085zm61.999 0a8.083 8.083 0 0 1-8.084-8.084V8.084A8.084 8.084 0 0 1 163.004 0a8.082 8.082 0 0 1 8.084 8.084v65.498a8.085 8.085 0 0 1-8.084 8.085zm61.997 0a8.083 8.083 0 0 1-8.084-8.084V8.084A8.084 8.084 0 0 1 225.001 0a8.082 8.082 0 0 1 8.084 8.084v65.498a8.084 8.084 0 0 1-8.084 8.085zm61.998 0a8.083 8.083 0 0 1-8.084-8.084V8.084A8.084 8.084 0 0 1 286.999 0a8.082 8.082 0 0 1 8.084 8.084v65.498a8.084 8.084 0 0 1-8.084 8.085zm62 0a8.082 8.082 0 0 1-8.084-8.084V8.084A8.082 8.082 0 0 1 348.999 0a8.083 8.083 0 0 1 8.084 8.084v65.498a8.085 8.085 0 0 1-8.084 8.085zm61.998-5.692a8.082 8.082 0 0 1-8.084-8.084V8.084A8.082 8.082 0 0 1 410.997 0a8.083 8.083 0 0 1 8.084 8.084v59.807a8.084 8.084 0 0 1-8.084 8.084zM101.005 512a8.084 8.084 0 0 1-8.084-8.084V432.07c0-4.466 3.62-8.084 8.084-8.084s8.084 3.618 8.084 8.084v71.846a8.084 8.084 0 0 1-8.084 8.084zm61.999 0a8.084 8.084 0 0 1-8.084-8.084v-66.178a8.084 8.084 0 0 1 8.084-8.084 8.082 8.082 0 0 1 8.084 8.084v66.178a8.085 8.085 0 0 1-8.084 8.084zm61.997 0a8.084 8.084 0 0 1-8.084-8.084v-66.178a8.084 8.084 0 0 1 8.084-8.084 8.082 8.082 0 0 1 8.084 8.084v66.178a8.084 8.084 0 0 1-8.084 8.084zm61.998 0a8.084 8.084 0 0 1-8.084-8.084v-66.178a8.084 8.084 0 0 1 8.084-8.084 8.082 8.082 0 0 1 8.084 8.084v66.178a8.084 8.084 0 0 1-8.084 8.084zm62 0a8.084 8.084 0 0 1-8.084-8.084v-66.178a8.082 8.082 0 0 1 8.084-8.084 8.083 8.083 0 0 1 8.084 8.084v66.178a8.085 8.085 0 0 1-8.084 8.084zm61.998 0a8.084 8.084 0 0 1-8.084-8.084v-65.604a8.082 8.082 0 0 1 8.084-8.084 8.083 8.083 0 0 1 8.084 8.084v65.604a8.085 8.085 0 0 1-8.084 8.084zM76.845 419.081H8.085a8.084 8.084 0 0 1-8.084-8.084 8.082 8.082 0 0 1 8.084-8.084h68.76a8.082 8.082 0 0 1 8.084 8.084 8.083 8.083 0 0 1-8.084 8.084zm0-61.998H8.085c-4.466 0-8.084-3.618-8.084-8.084s3.618-8.084 8.084-8.084h68.76a8.082 8.082 0 0 1 8.084 8.084 8.083 8.083 0 0 1-8.084 8.084zm0-61.997H8.085c-4.466 0-8.084-3.618-8.084-8.084s3.618-8.084 8.084-8.084h68.76a8.082 8.082 0 0 1 8.084 8.084 8.084 8.084 0 0 1-8.084 8.084zm0-61.999H8.085a8.082 8.082 0 0 1-8.084-8.084 8.082 8.082 0 0 1 8.084-8.084h68.76a8.082 8.082 0 0 1 8.084 8.084 8.082 8.082 0 0 1-8.084 8.084zm0-61.999H8.085a8.082 8.082 0 0 1-8.084-8.084 8.082 8.082 0 0 1 8.084-8.084h68.76a8.082 8.082 0 0 1 8.084 8.084 8.084 8.084 0 0 1-8.084 8.084zm-5.97-61.999H8.085a8.082 8.082 0 0 1-8.084-8.084 8.082 8.082 0 0 1 8.084-8.084h62.79a8.082 8.082 0 0 1 8.084 8.084 8.084 8.084 0 0 1-8.084 8.084zm433.04 309.992H429.3a8.084 8.084 0 0 1-8.084-8.084 8.082 8.082 0 0 1 8.084-8.084h74.615a8.082 8.082 0 0 1 8.084 8.084 8.084 8.084 0 0 1-8.084 8.084zm0-61.998H429.3c-4.466 0-8.084-3.618-8.084-8.084s3.618-8.084 8.084-8.084h74.615a8.082 8.082 0 0 1 8.084 8.084 8.084 8.084 0 0 1-8.084 8.084zm0-61.997H429.3c-4.466 0-8.084-3.618-8.084-8.084s3.618-8.084 8.084-8.084h74.615a8.084 8.084 0 0 1 0 16.168zm0-61.999H429.3a8.082 8.082 0 0 1-8.084-8.084 8.082 8.082 0 0 1 8.084-8.084h74.615a8.082 8.082 0 0 1 8.084 8.084 8.083 8.083 0 0 1-8.084 8.084zm0-61.999H429.3a8.082 8.082 0 0 1-8.084-8.084 8.082 8.082 0 0 1 8.084-8.084h74.615a8.084 8.084 0 0 1 0 16.168zm0-61.999h-68.136a8.083 8.083 0 0 1-8.084-8.084 8.084 8.084 0 0 1 8.084-8.084h68.136a8.082 8.082 0 0 1 8.084 8.084 8.083 8.083 0 0 1-8.084 8.084z" fill="#36a1cb"/><path d="M418.889 62.727H93.111c-16.754 0-30.384 13.629-30.384 30.383v325.779c0 16.754 13.63 30.384 30.384 30.384H418.89c16.754 0 30.384-13.63 30.384-30.384V93.111c-.001-16.754-13.631-30.384-30.385-30.384z" fill="#ffb92e"/><path d="M398.612 100.453H113.388c-7.143 0-12.935 5.792-12.935 12.935v285.223c0 7.143 5.792 12.935 12.935 12.935h285.223c7.144 0 12.935-5.792 12.935-12.935V113.388c.001-7.143-5.79-12.935-12.934-12.935z" fill="#4baf78"/><path d="M84.565 418.889V93.111c0-16.754 13.629-30.383 30.384-30.383H93.111c-16.754 0-30.384 13.629-30.384 30.383V418.89c0 16.754 13.63 30.384 30.384 30.384h21.838c-16.754-.001-30.384-13.631-30.384-30.385z" fill="#ef9a1d"/><path d="M122.291 398.612V113.388c0-7.143 5.79-12.935 12.935-12.935h-21.838c-7.143 0-12.935 5.792-12.935 12.935v285.223c0 7.143 5.792 12.935 12.935 12.935h21.838c-7.144.001-12.935-5.791-12.935-12.934z" fill="#299956"/><path d="M354.241 162.817h-4.654a8.083 8.083 0 0 1-8.084-8.084 8.084 8.084 0 0 1 8.084-8.084h4.654a8.082 8.082 0 0 1 8.084 8.084 8.084 8.084 0 0 1-8.084 8.084zm-32.141 0H157.759a8.083 8.083 0 0 1-8.084-8.084 8.084 8.084 0 0 1 8.084-8.084H322.1a8.084 8.084 0 0 1 0 16.168zm32.141 85.513h-4.654c-4.465 0-8.084-3.618-8.084-8.084s3.62-8.084 8.084-8.084h4.654a8.082 8.082 0 0 1 8.084 8.084 8.084 8.084 0 0 1-8.084 8.084zm-32.141 0H157.759c-4.465 0-8.084-3.618-8.084-8.084s3.62-8.084 8.084-8.084H322.1a8.084 8.084 0 0 1 0 16.168zm-159.686-42.756h-4.654a8.083 8.083 0 0 1-8.084-8.084 8.084 8.084 0 0 1 8.084-8.084h4.654a8.084 8.084 0 0 1 0 16.168zm191.827 0H189.9a8.083 8.083 0 0 1-8.084-8.084 8.084 8.084 0 0 1 8.084-8.084h164.341a8.082 8.082 0 0 1 8.084 8.084 8.084 8.084 0 0 1-8.084 8.084z" fill="#80e0a7"/><g fill="#f5f5f5"><path d="M163.004 330.806h-5.244a8.083 8.083 0 0 1-8.084-8.084 8.084 8.084 0 0 1 8.084-8.084h5.244a8.084 8.084 0 0 1 0 16.168zm38.855 0h-5.244a8.083 8.083 0 0 1-8.084-8.084 8.084 8.084 0 0 1 8.084-8.084h5.244a8.082 8.082 0 0 1 8.084 8.084 8.082 8.082 0 0 1-8.084 8.084zm38.86 0h-5.244a8.082 8.082 0 0 1-8.084-8.084 8.082 8.082 0 0 1 8.084-8.084h5.244a8.082 8.082 0 0 1 8.084 8.084 8.084 8.084 0 0 1-8.084 8.084z"/><path d="M503.915 109.089a8.082 8.082 0 0 0 8.084-8.084 8.082 8.082 0 0 0-8.084-8.084h-54.646c-.103-16.602-13.586-30.086-30.188-30.19V8.084A8.084 8.084 0 0 0 410.997 0a8.082 8.082 0 0 0-8.084 8.084v54.643h-45.83V8.084A8.084 8.084 0 0 0 348.999 0a8.082 8.082 0 0 0-8.084 8.084v54.643h-45.832V8.084A8.082 8.082 0 0 0 286.999 0a8.083 8.083 0 0 0-8.084 8.084v54.643h-45.83V18.092a243.323 243.323 0 0 0-16.168 22.304v22.331h-12.678c-16.32 32.614-25.518 69.411-25.518 108.36 0 133.926 108.569 242.494 242.495 242.494 24.823 0 48.773-3.738 71.324-10.668h-43.268v-45.83h54.642c4.466 0 8.084-3.618 8.084-8.084s-3.618-8.084-8.084-8.084h-54.642v-45.83h54.642c4.466 0 8.084-3.618 8.084-8.084s-3.618-8.084-8.084-8.084h-54.642v-45.83h54.642a8.082 8.082 0 0 0 8.084-8.084 8.082 8.082 0 0 0-8.084-8.084h-54.642v-45.832h54.642c4.466 0 8.084-3.618 8.084-8.084s-3.618-8.084-8.084-8.084h-54.642v-45.83h54.644z" opacity=".15"/></g><path d="M285.151 344.332c0 7.144 5.792 12.935 12.935 12.935h43.221c7.143 0 12.935-5.79 12.935-12.935v-43.221c0-7.144-5.792-12.935-12.935-12.935h-43.221c-7.143 0-12.935 5.79-12.935 12.935v43.221z" fill="#36a1cb"/><path d="M306.989 344.332v-43.221c0-7.144 5.792-12.935 12.935-12.935h-21.838c-7.143 0-12.935 5.79-12.935 12.935v43.221c0 7.144 5.792 12.935 12.935 12.935h21.838c-7.144 0-12.935-5.79-12.935-12.935z" fill="#2b80af"/></svg>