<svg xmlns="http://www.w3.org/2000/svg" viewBox="0 0 468.52 468.52"><path d="M468.52 102.595v251.88c0 11.14-7.571 20.52-17.86 23.25-1.98.531-4.06.81-6.2.81H38.58c-13.29 0-24.061-10.77-24.061-24.06v-251.88c0-13.29 10.771-24.06 24.061-24.06h405.88c2.14 0 4.22.28 6.2.81 10.289 2.73 17.86 12.11 17.86 23.25" fill="#e6e6e6"/><path d="M468.518 102.591v23.94h-454v-23.94c0-13.29 10.771-24.06 24.06-24.06h405.88c13.289.001 24.06 10.771 24.06 24.06" fill="#b3b3b3"/><path fill="#999" d="M42.099 141.002H161v16.532H42.099z"/><path fill="#fff" d="M442.383 222.765H256.652v131.731h185.731V222.765"/><path fill="#29abe2" d="M434.552 329.733h-169v16.532h169v-16.532"/><path fill="#fc7a51" d="M286.552 297.744h-21v16.532h21v-16.532"/><path fill="#f9de58" d="M350.552 265.754h-85v16.532h85v-16.532"/><path fill="#999" d="M411.552 233.765h-146v16.532h146v-16.532"/><circle cx="47.517" cy="102.532" r="15" fill="#fc7a51"/><circle cx="87.517" cy="102.532" r="15" fill="#f9de58"/><path d="M463.696 88.139a23.96 23.96 0 0 1 4.822 14.453v23.94h-23.321c.04 35.899-19.42 70.584-53.444 88.347a119.237 119.237 0 0 1-6.365 2.574l2.774 5.313h54.222v131.731H298.563l7.326 24.038h138.57c2.14 0 4.22-.28 6.2-.81 10.29-2.73 17.86-12.11 17.86-23.25v-251.88a23.95 23.95 0 0 0-4.823-14.456m-.039-.051l.036.047-.036-.047m-.036-.048l.023.03-.023-.03m-.031-.041l.009.012-.009-.012" fill="#eee"/><path d="M444.46 78.535h-11.739c.396.716.784 1.437 1.165 2.167 7.655 14.662 11.293 30.36 11.31 45.83h23.321v-23.94a23.96 23.96 0 0 0-4.822-14.453l-.003-.003-.036-.047-.014-.018-.023-.03a.554.554 0 0 0-.022-.029l-.009-.012a24.054 24.054 0 0 0-19.128-9.465" fill="#cbcbcb"/><path d="M442.383 222.765h-54.222l5.326 10.202c-.519.271-1.04.537-1.561.798h19.626v16.532H266.807l4.711 15.457h79.034v16.532h-73.996l4.711 15.458h5.285v16.532h-.246l4.711 15.457h143.536v16.532H296.055l2.509 8.231h143.819V222.765" fill="#fff"/><path fill="#6ec6eb" d="M434.552 329.733H291.016l5.039 16.532h138.497v-16.532"/><path fill="#fda589" d="M286.552 297.744h-5.285l5.039 16.532h.246v-16.532"/><path fill="#fbe98e" d="M350.552 265.754h-79.034l5.038 16.532h73.996v-16.532"/><path d="M246.265 126.531h-17.178l29.329 96.234h62.908a119.05 119.05 0 0 1-4.384-.929l-1.001-.232c-24.282-7.625-45.651-24.51-58.362-48.855-7.72-14.787-11.356-30.621-11.312-46.218" fill="#eee"/><path d="M258.73 78.535h-44.27l14.628 47.996h17.178a99.753 99.753 0 0 1 4.587-29.594 99.943 99.943 0 0 1 7.877-18.402" fill="#cbcbcb"/><path d="M321.324 222.765h-62.908l7.136 23.415v-12.415h53.983l3.362-10.708c-.524-.094-1.049-.191-1.573-.292" fill="#fff"/><path d="M411.552 233.765h-19.626c-14.25 7.129-29.421 10.514-44.383 10.514a99.751 99.751 0 0 1-29.869-4.586l1.861-5.928h-53.983v12.415l1.255 4.117h144.745v-16.532" fill="#bababa"/><path d="M385.387 217.453a119.453 119.453 0 0 1-18.994 5.313h21.767l-2.773-5.313" fill="#cecece"/><path d="M388.161 222.765h-21.767a119.365 119.365 0 0 1-43.495.292l-3.362 10.708h72.391a104.39 104.39 0 0 0 1.561-.798l-5.328-10.202" fill="#dbdbdb"/><path d="M391.926 233.765h-72.391l-1.861 5.928a99.751 99.751 0 0 0 29.869 4.586c14.962 0 30.134-3.385 44.383-10.514" fill="#a4a4a4"/><path d="M345.64 27.261c-15.507 0-31.24 3.637-45.936 11.309-17.955 9.374-31.855 23.466-40.973 39.961h173.987c-12.828-23.18-33.641-39.288-57.199-46.682a99.813 99.813 0 0 0-29.879-4.588" fill="#dbdbdb"/><path fill="#9f9f9f" d="M432.719 78.532H258.732l-.002.003h173.991l-.002-.003"/><path d="M445.196 126.531H246.265c-.044 15.597 3.592 31.43 11.312 46.218 12.711 24.345 34.08 41.23 58.362 48.855l1.001.232c1.458.338 2.919.647 4.384.929h45.069a119.272 119.272 0 0 0 25.359-7.887c34.024-17.763 53.485-52.447 53.444-88.347" fill="#cecece"/><path d="M432.721 78.535H258.73a99.986 99.986 0 0 0-7.878 18.402 99.758 99.758 0 0 0-4.587 29.594h198.931c-.017-15.469-3.656-31.168-11.31-45.83-.381-.729-.769-1.45-1.165-2.166" fill="#b2b2b2"/><path d="M366.393 222.765h-45.069a119.345 119.345 0 0 0 45.069 0" fill="#dbdbdb"/><path d="M345.73 113.225l-5.24 16.69-24.55 78.18c-24.28-7.62-45.65-24.51-58.36-48.85-12.71-24.35-14.35-51.53-6.73-75.81l83.46 26.2 11.42 3.59z" fill="#f9de58"/><path d="M393.49 219.465c-7.48 3.9-15.23 6.76-23.08 8.63-17.7 4.21-35.91 3.38-52.74-1.91l26.47-84.29 3.32-10.59 46.03 88.16z" fill="#29abe2"/><path d="M391.75 201.375l-46.02-88.15-11.42-3.59-83.46-26.2c7.63-24.29 24.51-45.66 48.85-58.37 2.55-1.33 5.12-2.54 7.73-3.62 22.27-9.33 46.35-9.93 68.09-3.1 24.29 7.62 45.66 24.5 58.37 48.85 25.41 48.69 6.55 108.76-42.14 134.18z" fill="#fc7a51"/><path fill="#fff" d="M226.383 168.765H40.652v185.731h185.731V168.765"/><path fill="#2be0c6" d="M93.6 254.001H57.602v89.995H93.6v-89.995"/><path fill="#f9de58" d="M151.517 224.002h-35.999v119.994h35.999V224.002"/><path fill="#fc7a51" d="M209.432 191.004h-35.997v152.992h35.997V191.004"/><path fill="#29abe2" d="M242.83 325.765v129H0v-129h242.83"/><path fill="#f2f2f2" d="M15 439.765v-99h212.826v99H15"/><path fill="#fc7a51" d="M108.064 430.978L87.408 408.6l-8.744 11.866-6.764-4.983 14.78-20.057 19.669 21.308 30.89-55.775 23.546 37.841 27.608-49.248 7.329 4.108-34.56 61.647-23.501-37.769-29.597 53.44"/><path fill="#999" d="M26 357.765h27v11H26zm0 27h27v11H26zm0 27h27v11H26z"/><path fill="#6ec6eb" d="M242.83 325.765H92.88l4.571 15h130.375v99H127.619l4.571 15h110.64v-129"/><path fill="#f6f6f6" d="M227.826 340.765H97.451l18.091 59.37 21.697-39.176 23.546 37.841 27.608-49.248 7.329 4.108-34.56 61.647-23.501-37.769-18.71 33.782 8.668 28.445h100.207v-99"/><path fill="#fda589" d="M188.393 349.552L160.785 398.8l-23.546-37.841-21.697 39.176 3.409 11.185 18.71-33.782 23.501 37.769 34.56-61.647-7.329-4.108"/><path d="M393.695 417.909l8.485-20.662 25.251 25.251a7.449 7.449 0 0 0 5.303 2.192 7.498 7.498 0 0 0 5.303-12.799l-25.251-25.251 20.669-8.492-78.559-38.792 38.799 78.553z" fill="#ccc"/><path d="M393.695 417.909l8.485-20.662 25.251 25.251a7.449 7.449 0 0 0 5.303 2.192c1.923 0 3.84-.728 5.303-2.192l-83.142-83.142 38.8 78.553z" fill="gray"/></svg>