<svg xmlns="http://www.w3.org/2000/svg" viewBox="0 0 480 480"><path d="M52 337.2c0 9.6-8 17.6-17.6 17.6-9.6 0-17.6-8-17.6-17.6V32.4c0-9.6 8-17.6 17.6-17.6 9.6 0 17.6 8 17.6 17.6v304.8z" fill="#829996"/><path d="M52 323.6c0 9.6-8 17.6-17.6 17.6-9.6 0-17.6-8-17.6-17.6V18.8c.8-9.6 8-17.6 17.6-17.6C44 1.2 52 9.2 52 18.8v304.8z" fill="#b2ccca"/><path d="M34.4 1.2C44 1.2 52 9.2 52 18.8v304.8c0 9.6-8 17.6-17.6 17.6" fill="#9ab2b0"/><path d="M34.4 121.2c15.2 0 27.2 12 28 26.4V146c0-16-12.8-28.8-28.8-28.8S4.8 130 4.8 146v1.6c2.4-15.2 15.2-26.4 29.6-26.4z" fill="#566366"/><g fill="#121c1b"><circle cx="34.4" cy="147.6" r="28.8"/><circle cx="34.4" cy="155.6" r="28.8" opacity=".1"/></g><path d="M14.4 167.6c-11.2-11.2-11.2-28.8 0-40s28.8-11.2 40 0" fill="#283538"/><path d="M148.8 337.2c0 9.6-8 17.6-17.6 17.6-9.6 0-17.6-8-17.6-17.6V32.4c0-9.6 8-17.6 17.6-17.6 9.6 0 17.6 8 17.6 17.6v304.8z" fill="#829996"/><path d="M148.8 323.6c0 9.6-8 17.6-17.6 17.6-9.6 0-17.6-8-17.6-17.6V18.8c0-9.6 8-17.6 17.6-17.6 9.6 0 17.6 8 17.6 17.6v304.8z" fill="#b2ccca"/><path d="M132 1.2c9.6 0 17.6 8 17.6 17.6v304.8c0 9.6-8 17.6-17.6 17.6" fill="#9ab2b0"/><path d="M132 210c15.2 0 27.2 12 28 26.4v-1.6c0-16-12.8-28.8-28.8-28.8s-28.8 12.8-28.8 28.8v1.6C104 222 116.8 210 132 210z" fill="#566366"/><g fill="#121c1b"><circle cx="132" cy="237.2" r="28.8"/><circle cx="132" cy="245.2" r="28.8" opacity=".1"/></g><path d="M111.2 257.2c-11.2-11.2-11.2-28.8 0-40s28.8-11.2 40 0" fill="#283538"/><path d="M245.6 337.2c0 9.6-8 17.6-17.6 17.6-9.6 0-17.6-8-17.6-17.6V32.4c0-9.6 8-17.6 17.6-17.6 9.6 0 17.6 8 17.6 17.6v304.8z" fill="#829996"/><path d="M245.6 323.6c0 9.6-8 17.6-17.6 17.6-9.6 0-17.6-8-17.6-17.6V18.8c0-9.6 8-17.6 17.6-17.6 9.6 0 17.6 8 17.6 17.6v304.8z" fill="#b2ccca"/><path d="M228.8 1.2c9.6 0 17.6 8 17.6 17.6v304.8c0 9.6-8 17.6-17.6 17.6" fill="#9ab2b0"/><path d="M228.8 234.8c15.2 0 27.2 12 28 26.4v-1.6c0-16-12.8-28.8-28.8-28.8s-28.8 12.8-28.8 28.8v1.6c2.4-14.4 14.4-26.4 29.6-26.4z" fill="#566366"/><g fill="#121c1b"><circle cx="228.8" cy="262" r="28.8"/><circle cx="228.8" cy="270" r="28.8" opacity=".1"/></g><path d="M208.8 282c-11.2-11.2-11.2-28.8 0-40s28.8-11.2 40 0" fill="#283538"/><path d="M342.4 337.2c0 9.6-8 17.6-17.6 17.6-9.6 0-17.6-8-17.6-17.6V32.4c0-9.6 8-17.6 17.6-17.6 9.6 0 17.6 8 17.6 17.6v304.8z" fill="#829996"/><path d="M342.4 323.6c0 9.6-8 17.6-17.6 17.6-9.6 0-17.6-8-17.6-17.6V18.8c0-9.6 8-17.6 17.6-17.6 9.6 0 17.6 8 17.6 17.6v304.8z" fill="#b2ccca"/><path d="M325.6 1.2c9.6 0 17.6 8 17.6 17.6v304.8c0 9.6-8 17.6-17.6 17.6" fill="#9ab2b0"/><path d="M325.6 121.2c15.2 0 27.2 12 28 26.4V146c0-16-12.8-28.8-28.8-28.8S296 130 296 146v1.6c2.4-15.2 14.4-26.4 29.6-26.4z" fill="#566366"/><g fill="#121c1b"><circle cx="325.6" cy="147.6" r="28.8"/><circle cx="325.6" cy="155.6" r="28.8" opacity=".1"/></g><path d="M305.6 167.6c-11.2-11.2-11.2-28.8 0-40s28.8-11.2 40 0" fill="#283538"/><path d="M432.8 374c24.8 0 44.8 19.2 46.4 43.2V414c0-25.6-20.8-47.2-47.2-47.2-25.6 0-47.2 20.8-47.2 47.2v3.2c3.2-24 24-43.2 48-43.2z" fill="#566366"/><g fill="#121c1b"><circle cx="432.8" cy="417.2" r="47.2"/><circle cx="432.8" cy="431.6" r="47.2" opacity=".1"/></g><path d="M400 450.8c-18.4-18.4-18.4-48 0-66.4s48-18.4 66.4 0" fill="#283538"/><path d="M414.4 403.6c0 4-3.2 7.2-7.2 7.2s-7.2-3.2-7.2-7.2 3.2-7.2 7.2-7.2 7.2 3.2 7.2 7.2zm52-86.4c0 8.8-7.2 16-16 16H416c-8.8 0-16-7.2-16-16v-300c0-8.8 7.2-16 16-16h35.2c8.8 0 16 7.2 16 16v300h-.8z" fill="#13eaea"/><path d="M450.4 1.2H416c-8.8 0-16 7.2-16 16v21.6c0-8.8 7.2-16 16-16h35.2c8.8 0 16 7.2 16 16V17.2c-.8-8.8-8-16-16.8-16z" fill="#1ec6c1"/><path d="M69.6 443.6c0 12-9.6 21.6-21.6 21.6H21.6c-12 0-21.6-9.6-21.6-21.6v-26.4c0-12 9.6-21.6 21.6-21.6H48c12 0 21.6 9.6 21.6 21.6v26.4z" opacity=".1" fill="#121c1b"/><path d="M69.6 425.2c0 12-9.6 21.6-21.6 21.6H21.6c-12 0-21.6-9.6-21.6-21.6v-25.6c0-12.8 9.6-22.4 21.6-22.4H48c12 0 21.6 9.6 21.6 21.6v26.4z" fill="#9ab2b0"/><path d="M21.6 377.2H48c12 0 21.6 9.6 21.6 21.6v26.4c0 12-9.6 21.6-21.6 21.6" fill="#8ba3a0"/><path d="M166.4 443.6c0 12-9.6 21.6-21.6 21.6h-25.6c-12 0-21.6-9.6-21.6-21.6v-26.4c0-12 9.6-21.6 21.6-21.6h25.6c12 0 21.6 9.6 21.6 21.6v26.4z" opacity=".1" fill="#121c1b"/><path d="M166.4 425.2c0 12-9.6 21.6-21.6 21.6h-25.6c-12 0-21.6-9.6-21.6-21.6v-25.6c0-12 9.6-21.6 21.6-21.6h25.6c12 0 21.6 9.6 21.6 21.6v25.6z" fill="#9ab2b0"/><path d="M118.4 377.2H144c12 0 21.6 9.6 21.6 21.6v26.4c0 12-9.6 21.6-21.6 21.6" fill="#8ba3a0"/><path d="M263.2 443.6c0 12-9.6 21.6-21.6 21.6H216c-12 0-21.6-9.6-21.6-21.6v-26.4c0-12 9.6-21.6 21.6-21.6h25.6c12 0 21.6 9.6 21.6 21.6v26.4z" opacity=".1" fill="#121c1b"/><path d="M263.2 425.2c0 12-9.6 21.6-21.6 21.6H216c-12 0-21.6-9.6-21.6-21.6v-25.6c0-12 9.6-21.6 21.6-21.6h25.6c12 0 21.6 9.6 21.6 21.6v25.6z" fill="#9ab2b0"/><path d="M215.2 377.2h25.6c12 0 21.6 9.6 21.6 21.6v26.4c0 12-9.6 21.6-21.6 21.6" fill="#8ba3a0"/><path d="M360 443.6c0 12-9.6 21.6-21.6 21.6h-25.6c-12 0-21.6-9.6-21.6-21.6v-26.4c0-12 9.6-21.6 21.6-21.6h25.6c12 0 21.6 9.6 21.6 21.6v26.4z" opacity=".1" fill="#121c1b"/><path d="M360 425.2c0 12-9.6 21.6-21.6 21.6h-25.6c-12 0-21.6-9.6-21.6-21.6v-25.6c0-12 9.6-21.6 21.6-21.6h25.6c12 0 21.6 9.6 21.6 21.6v25.6z" fill="#ff7a17"/><path d="M312.8 377.2h25.6c12 0 21.6 9.6 21.6 21.6v26.4c0 12-9.6 21.6-21.6 21.6" fill="#f74d19"/><path d="M456.8 294.8c0 3.2-2.4 6.4-6.4 6.4h-36c-3.2 0-6.4-2.4-6.4-6.4 0-3.2 2.4-6.4 6.4-6.4h36c4 .8 6.4 3.2 6.4 6.4zm0-20.8c0 3.2-2.4 6.4-6.4 6.4h-36c-3.2 0-6.4-2.4-6.4-6.4 0-3.2 2.4-6.4 6.4-6.4h36c4 0 6.4 2.4 6.4 6.4zm0-21.6c0 3.2-2.4 6.4-6.4 6.4h-36c-3.2 0-6.4-2.4-6.4-6.4 0-3.2 2.4-6.4 6.4-6.4h36c4 0 6.4 2.4 6.4 6.4zm0-21.6c0 3.2-2.4 6.4-6.4 6.4h-36c-3.2 0-6.4-2.4-6.4-6.4 0-3.2 2.4-6.4 6.4-6.4h36c4 0 6.4 2.4 6.4 6.4zm0-21.6c0 3.2-2.4 6.4-6.4 6.4h-36c-3.2 0-6.4-2.4-6.4-6.4 0-3.2 2.4-6.4 6.4-6.4h36c4 0 6.4 2.4 6.4 6.4zm0-21.6c0 3.2-2.4 6.4-6.4 6.4h-36c-3.2 0-6.4-2.4-6.4-6.4 0-3.2 2.4-6.4 6.4-6.4h36c4 0 6.4 3.2 6.4 6.4zm0-21.6c0 3.2-2.4 6.4-6.4 6.4h-36c-3.2 0-6.4-2.4-6.4-6.4 0-3.2 2.4-6.4 6.4-6.4h36c4 0 6.4 3.2 6.4 6.4zm0-21.6c0 3.2-2.4 6.4-6.4 6.4h-36c-3.2 0-6.4-2.4-6.4-6.4 0-3.2 2.4-6.4 6.4-6.4h36c4 0 6.4 3.2 6.4 6.4zm0-21.6c0 3.2-2.4 6.4-6.4 6.4h-36c-3.2 0-6.4-2.4-6.4-6.4 0-3.2 2.4-6.4 6.4-6.4h36c4 0 6.4 3.2 6.4 6.4zm0-21.6c0 3.2-2.4 6.4-6.4 6.4h-36c-3.2 0-6.4-2.4-6.4-6.4 0-3.2 2.4-6.4 6.4-6.4h36c4 0 6.4 3.2 6.4 6.4z" fill="#20b1c4"/><path d="M456.8 79.6c0 3.2-2.4 6.4-6.4 6.4h-36c-3.2 0-6.4-2.4-6.4-6.4 0-3.2 2.4-6.4 6.4-6.4h36c4 0 6.4 3.2 6.4 6.4zm0-21.6c0 3.2-2.4 6.4-6.4 6.4h-36c-3.2 0-6.4-2.4-6.4-6.4 0-3.2 2.4-6.4 6.4-6.4h36c4 0 6.4 3.2 6.4 6.4zm0-21.6c0 3.2-2.4 6.4-6.4 6.4h-36c-3.2 0-6.4-2.4-6.4-6.4 0-3.2 2.4-6.4 6.4-6.4h36c4 0 6.4 3.2 6.4 6.4z" fill="#ff7a17"/></svg>