<?xml version="1.0" encoding="iso-8859-1"?>
<!-- Generator: Adobe Illustrator 19.0.0, SVG Export Plug-In . SVG Version: 6.00 Build 0)  -->
<svg version="1.1" id="Layer_1" xmlns="http://www.w3.org/2000/svg" xmlns:xlink="http://www.w3.org/1999/xlink" x="0px" y="0px"
	 viewBox="0 0 480 480" style="enable-background:new 0 0 480 480;" xml:space="preserve">
<path style="fill:#829996;" d="M52,337.2c0,9.6-8,17.6-17.6,17.6l0,0c-9.6,0-17.6-8-17.6-17.6V32.4c0-9.6,8-17.6,17.6-17.6l0,0
	c9.6,0,17.6,8,17.6,17.6V337.2z"/>
<path style="fill:#B2CCCA;" d="M52,323.6c0,9.6-8,17.6-17.6,17.6l0,0c-9.6,0-17.6-8-17.6-17.6V18.8c0.8-9.6,8-17.6,17.6-17.6l0,0
	C44,1.2,52,9.2,52,18.8V323.6z"/>
<path style="fill:#9AB2B0;" d="M34.4,1.2L34.4,1.2C44,1.2,52,9.2,52,18.8v304.8c0,9.6-8,17.6-17.6,17.6l0,0"/>
<path style="fill:#566366;" d="M34.4,121.2c15.2,0,27.2,12,28,26.4c0-0.8,0-0.8,0-1.6c0-16-12.8-28.8-28.8-28.8S4.8,130,4.8,146
	c0,0.8,0,1.6,0,1.6C7.2,132.4,20,121.2,34.4,121.2z"/>
<g>
	<circle style="fill:#121C1B;" cx="34.4" cy="147.6" r="28.8"/>
	<circle style="opacity:0.1;fill:#121C1B;enable-background:new    ;" cx="34.4" cy="155.6" r="28.8"/>
</g>
<path style="fill:#283538;" d="M14.4,167.6c-11.2-11.2-11.2-28.8,0-40s28.8-11.2,40,0"/>
<path style="fill:#829996;" d="M148.8,337.2c0,9.6-8,17.6-17.6,17.6l0,0c-9.6,0-17.6-8-17.6-17.6V32.4c0-9.6,8-17.6,17.6-17.6l0,0
	c9.6,0,17.6,8,17.6,17.6V337.2z"/>
<path style="fill:#B2CCCA;" d="M148.8,323.6c0,9.6-8,17.6-17.6,17.6l0,0c-9.6,0-17.6-8-17.6-17.6V18.8c0-9.6,8-17.6,17.6-17.6l0,0
	c9.6,0,17.6,8,17.6,17.6V323.6z"/>
<path style="fill:#9AB2B0;" d="M132,1.2L132,1.2c9.6,0,17.6,8,17.6,17.6v304.8c0,9.6-8,17.6-17.6,17.6l0,0"/>
<path style="fill:#566366;" d="M132,210c15.2,0,27.2,12,28,26.4c0-0.8,0-0.8,0-1.6c0-16-12.8-28.8-28.8-28.8s-28.8,12.8-28.8,28.8
	c0,0.8,0,0.8,0,1.6C104,222,116.8,210,132,210z"/>
<g>
	<circle style="fill:#121C1B;" cx="132" cy="237.2" r="28.8"/>
	<circle style="opacity:0.1;fill:#121C1B;enable-background:new    ;" cx="132" cy="245.2" r="28.8"/>
</g>
<path style="fill:#283538;" d="M111.2,257.2c-11.2-11.2-11.2-28.8,0-40s28.8-11.2,40,0"/>
<path style="fill:#829996;" d="M245.6,337.2c0,9.6-8,17.6-17.6,17.6l0,0c-9.6,0-17.6-8-17.6-17.6V32.4c0-9.6,8-17.6,17.6-17.6l0,0
	c9.6,0,17.6,8,17.6,17.6V337.2z"/>
<path style="fill:#B2CCCA;" d="M245.6,323.6c0,9.6-8,17.6-17.6,17.6l0,0c-9.6,0-17.6-8-17.6-17.6V18.8c0-9.6,8-17.6,17.6-17.6l0,0
	c9.6,0,17.6,8,17.6,17.6V323.6z"/>
<path style="fill:#9AB2B0;" d="M228.8,1.2L228.8,1.2c9.6,0,17.6,8,17.6,17.6v304.8c0,9.6-8,17.6-17.6,17.6l0,0"/>
<path style="fill:#566366;" d="M228.8,234.8c15.2,0,27.2,12,28,26.4c0-0.8,0-0.8,0-1.6c0-16-12.8-28.8-28.8-28.8
	s-28.8,12.8-28.8,28.8c0,0.8,0,1.6,0,1.6C201.6,246.8,213.6,234.8,228.8,234.8z"/>
<g>
	<circle style="fill:#121C1B;" cx="228.8" cy="262" r="28.8"/>
	<circle style="opacity:0.1;fill:#121C1B;enable-background:new    ;" cx="228.8" cy="270" r="28.8"/>
</g>
<path style="fill:#283538;" d="M208.8,282c-11.2-11.2-11.2-28.8,0-40c11.2-11.2,28.8-11.2,40,0"/>
<path style="fill:#829996;" d="M342.4,337.2c0,9.6-8,17.6-17.6,17.6l0,0c-9.6,0-17.6-8-17.6-17.6V32.4c0-9.6,8-17.6,17.6-17.6l0,0
	c9.6,0,17.6,8,17.6,17.6V337.2z"/>
<path style="fill:#B2CCCA;" d="M342.4,323.6c0,9.6-8,17.6-17.6,17.6l0,0c-9.6,0-17.6-8-17.6-17.6V18.8c0-9.6,8-17.6,17.6-17.6l0,0
	c9.6,0,17.6,8,17.6,17.6V323.6z"/>
<path style="fill:#9AB2B0;" d="M325.6,1.2L325.6,1.2c9.6,0,17.6,8,17.6,17.6v304.8c0,9.6-8,17.6-17.6,17.6l0,0"/>
<path style="fill:#566366;" d="M325.6,121.2c15.2,0,27.2,12,28,26.4c0-0.8,0-0.8,0-1.6c0-16-12.8-28.8-28.8-28.8S296,130,296,146
	c0,0.8,0,1.6,0,1.6C298.4,132.4,310.4,121.2,325.6,121.2z"/>
<g>
	<circle style="fill:#121C1B;" cx="325.6" cy="147.6" r="28.8"/>
	<circle style="opacity:0.1;fill:#121C1B;enable-background:new    ;" cx="325.6" cy="155.6" r="28.8"/>
</g>
<path style="fill:#283538;" d="M305.6,167.6c-11.2-11.2-11.2-28.8,0-40s28.8-11.2,40,0"/>
<path style="fill:#566366;" d="M432.8,374c24.8,0,44.8,19.2,46.4,43.2c0-0.8,0-1.6,0-3.2c0-25.6-20.8-47.2-47.2-47.2
	c-25.6,0-47.2,20.8-47.2,47.2c0,0.8,0,1.6,0,3.2C388,393.2,408.8,374,432.8,374z"/>
<g>
	<circle style="fill:#121C1B;" cx="432.8" cy="417.2" r="47.2"/>
	<circle style="opacity:0.1;fill:#121C1B;enable-background:new    ;" cx="432.8" cy="431.6" r="47.2"/>
</g>
<path style="fill:#283538;" d="M400,450.8c-18.4-18.4-18.4-48,0-66.4s48-18.4,66.4,0"/>
<g>
	<path style="fill:#13EAEA;" d="M414.4,403.6c0,4-3.2,7.2-7.2,7.2s-7.2-3.2-7.2-7.2s3.2-7.2,7.2-7.2
		C411.2,396.4,414.4,399.6,414.4,403.6z"/>
	<path style="fill:#13EAEA;" d="M466.4,317.2c0,8.8-7.2,16-16,16H416c-8.8,0-16-7.2-16-16v-300c0-8.8,7.2-16,16-16h35.2
		c8.8,0,16,7.2,16,16v300H466.4z"/>
</g>
<path style="fill:#1EC6C1;" d="M450.4,1.2H416c-8.8,0-16,7.2-16,16v21.6c0-8.8,7.2-16,16-16h35.2c8.8,0,16,7.2,16,16V17.2
	C466.4,8.4,459.2,1.2,450.4,1.2z"/>
<path style="opacity:0.1;fill:#121C1B;enable-background:new    ;" d="M69.6,443.6c0,12-9.6,21.6-21.6,21.6H21.6
	c-12,0-21.6-9.6-21.6-21.6v-26.4c0-12,9.6-21.6,21.6-21.6H48c12,0,21.6,9.6,21.6,21.6V443.6z"/>
<path style="fill:#9AB2B0;" d="M69.6,425.2c0,12-9.6,21.6-21.6,21.6H21.6c-12,0-21.6-9.6-21.6-21.6v-25.6c0-12.8,9.6-22.4,21.6-22.4
	H48c12,0,21.6,9.6,21.6,21.6V425.2z"/>
<path style="fill:#8BA3A0;" d="M21.6,377.2H48c12,0,21.6,9.6,21.6,21.6v26.4c0,12-9.6,21.6-21.6,21.6"/>
<path style="opacity:0.1;fill:#121C1B;enable-background:new    ;" d="M166.4,443.6c0,12-9.6,21.6-21.6,21.6h-25.6
	c-12,0-21.6-9.6-21.6-21.6v-26.4c0-12,9.6-21.6,21.6-21.6h25.6c12,0,21.6,9.6,21.6,21.6V443.6z"/>
<path style="fill:#9AB2B0;" d="M166.4,425.2c0,12-9.6,21.6-21.6,21.6h-25.6c-12,0-21.6-9.6-21.6-21.6v-25.6c0-12,9.6-21.6,21.6-21.6
	h25.6c12,0,21.6,9.6,21.6,21.6V425.2z"/>
<path style="fill:#8BA3A0;" d="M118.4,377.2H144c12,0,21.6,9.6,21.6,21.6v26.4c0,12-9.6,21.6-21.6,21.6"/>
<path style="opacity:0.1;fill:#121C1B;enable-background:new    ;" d="M263.2,443.6c0,12-9.6,21.6-21.6,21.6H216
	c-12,0-21.6-9.6-21.6-21.6v-26.4c0-12,9.6-21.6,21.6-21.6h25.6c12,0,21.6,9.6,21.6,21.6V443.6z"/>
<path style="fill:#9AB2B0;" d="M263.2,425.2c0,12-9.6,21.6-21.6,21.6H216c-12,0-21.6-9.6-21.6-21.6v-25.6c0-12,9.6-21.6,21.6-21.6
	h25.6c12,0,21.6,9.6,21.6,21.6V425.2z"/>
<path style="fill:#8BA3A0;" d="M215.2,377.2h25.6c12,0,21.6,9.6,21.6,21.6v26.4c0,12-9.6,21.6-21.6,21.6"/>
<path style="opacity:0.1;fill:#121C1B;enable-background:new    ;" d="M360,443.6c0,12-9.6,21.6-21.6,21.6h-25.6
	c-12,0-21.6-9.6-21.6-21.6v-26.4c0-12,9.6-21.6,21.6-21.6h25.6c12,0,21.6,9.6,21.6,21.6V443.6z"/>
<path style="fill:#FF7A17;" d="M360,425.2c0,12-9.6,21.6-21.6,21.6h-25.6c-12,0-21.6-9.6-21.6-21.6v-25.6c0-12,9.6-21.6,21.6-21.6
	h25.6c12,0,21.6,9.6,21.6,21.6V425.2z"/>
<path style="fill:#F74D19;" d="M312.8,377.2h25.6c12,0,21.6,9.6,21.6,21.6v26.4c0,12-9.6,21.6-21.6,21.6"/>
<g>
	<path style="fill:#20B1C4;" d="M456.8,294.8c0,3.2-2.4,6.4-6.4,6.4h-36c-3.2,0-6.4-2.4-6.4-6.4l0,0c0-3.2,2.4-6.4,6.4-6.4h36
		C454.4,289.2,456.8,291.6,456.8,294.8L456.8,294.8z"/>
	<path style="fill:#20B1C4;" d="M456.8,274c0,3.2-2.4,6.4-6.4,6.4h-36c-3.2,0-6.4-2.4-6.4-6.4l0,0c0-3.2,2.4-6.4,6.4-6.4h36
		C454.4,267.6,456.8,270,456.8,274L456.8,274z"/>
	<path style="fill:#20B1C4;" d="M456.8,252.4c0,3.2-2.4,6.4-6.4,6.4h-36c-3.2,0-6.4-2.4-6.4-6.4l0,0c0-3.2,2.4-6.4,6.4-6.4h36
		C454.4,246,456.8,248.4,456.8,252.4L456.8,252.4z"/>
	<path style="fill:#20B1C4;" d="M456.8,230.8c0,3.2-2.4,6.4-6.4,6.4h-36c-3.2,0-6.4-2.4-6.4-6.4l0,0c0-3.2,2.4-6.4,6.4-6.4h36
		C454.4,224.4,456.8,226.8,456.8,230.8L456.8,230.8z"/>
	<path style="fill:#20B1C4;" d="M456.8,209.2c0,3.2-2.4,6.4-6.4,6.4h-36c-3.2,0-6.4-2.4-6.4-6.4l0,0c0-3.2,2.4-6.4,6.4-6.4h36
		C454.4,202.8,456.8,205.2,456.8,209.2L456.8,209.2z"/>
	<path style="fill:#20B1C4;" d="M456.8,187.6c0,3.2-2.4,6.4-6.4,6.4h-36c-3.2,0-6.4-2.4-6.4-6.4l0,0c0-3.2,2.4-6.4,6.4-6.4h36
		C454.4,181.2,456.8,184.4,456.8,187.6L456.8,187.6z"/>
	<path style="fill:#20B1C4;" d="M456.8,166c0,3.2-2.4,6.4-6.4,6.4h-36c-3.2,0-6.4-2.4-6.4-6.4l0,0c0-3.2,2.4-6.4,6.4-6.4h36
		C454.4,159.6,456.8,162.8,456.8,166L456.8,166z"/>
	<path style="fill:#20B1C4;" d="M456.8,144.4c0,3.2-2.4,6.4-6.4,6.4h-36c-3.2,0-6.4-2.4-6.4-6.4l0,0c0-3.2,2.4-6.4,6.4-6.4h36
		C454.4,138,456.8,141.2,456.8,144.4L456.8,144.4z"/>
	<path style="fill:#20B1C4;" d="M456.8,122.8c0,3.2-2.4,6.4-6.4,6.4h-36c-3.2,0-6.4-2.4-6.4-6.4l0,0c0-3.2,2.4-6.4,6.4-6.4h36
		C454.4,116.4,456.8,119.6,456.8,122.8L456.8,122.8z"/>
	<path style="fill:#20B1C4;" d="M456.8,101.2c0,3.2-2.4,6.4-6.4,6.4h-36c-3.2,0-6.4-2.4-6.4-6.4l0,0c0-3.2,2.4-6.4,6.4-6.4h36
		C454.4,94.8,456.8,98,456.8,101.2L456.8,101.2z"/>
</g>
<g>
	<path style="fill:#FF7A17;" d="M456.8,79.6c0,3.2-2.4,6.4-6.4,6.4h-36c-3.2,0-6.4-2.4-6.4-6.4l0,0c0-3.2,2.4-6.4,6.4-6.4h36
		C454.4,73.2,456.8,76.4,456.8,79.6L456.8,79.6z"/>
	<path style="fill:#FF7A17;" d="M456.8,58c0,3.2-2.4,6.4-6.4,6.4h-36c-3.2,0-6.4-2.4-6.4-6.4l0,0c0-3.2,2.4-6.4,6.4-6.4h36
		C454.4,51.6,456.8,54.8,456.8,58L456.8,58z"/>
	<path style="fill:#FF7A17;" d="M456.8,36.4c0,3.2-2.4,6.4-6.4,6.4h-36c-3.2,0-6.4-2.4-6.4-6.4l0,0c0-3.2,2.4-6.4,6.4-6.4h36
		C454.4,30,456.8,33.2,456.8,36.4L456.8,36.4z"/>
</g>
<g>
</g>
<g>
</g>
<g>
</g>
<g>
</g>
<g>
</g>
<g>
</g>
<g>
</g>
<g>
</g>
<g>
</g>
<g>
</g>
<g>
</g>
<g>
</g>
<g>
</g>
<g>
</g>
<g>
</g>
</svg>
