<?xml version="1.0" encoding="iso-8859-1"?>
<!-- Generator: Adobe Illustrator 19.0.0, SVG Export Plug-In . SVG Version: 6.00 Build 0)  -->
<svg version="1.1" id="Layer_1" xmlns="http://www.w3.org/2000/svg" xmlns:xlink="http://www.w3.org/1999/xlink" x="0px" y="0px"
	 viewBox="0 0 512 512" style="enable-background:new 0 0 512 512;" xml:space="preserve">
<circle style="fill:#ECF0F1;" cx="256" cy="256" r="256"/>
<circle style="fill:#E4E7ED;" cx="256" cy="256" r="256"/>
<path style="fill:#6B7F9E;" d="M131.443,320.516c-2.203-95.501,101.353-171.722,118.98-284.368
	c17.627,112.646,121.183,188.936,118.98,284.368C369.403,477.022,131.443,477.022,131.443,320.516z"/>
<path style="fill:#5D718F;" d="M250.423,36.148c17.627,112.646,121.183,188.936,118.98,284.368
	c0,120.564-141.151,148.174-206.012,83.038c53.775,42.208,150.997,25.889,181.431-38.765
	C392.194,264.125,250.216,154.371,250.423,36.148z"/>
<path style="fill:#8597B1;" d="M213.93,159.88c0,0-97.98,115.675-63.966,183.428C178.401,399.974,174.683,236.652,213.93,159.88z"/>
<path style="fill:#5FDC68;" d="M411.817,146.453c-197.061-15.836-143.699,167.66-51.641,110.511
	C402.384,230.73,388.131,163.598,411.817,146.453z"/>
<path style="fill:#FFE356;" d="M390.61,154.647c-76.497,12.876-86.687,160.224-85.586,271.354c-3.167,1.239-7.023,2.685-11.705,4.2
	c1.377-113.334,17.351-267.223,97.222-275.555H390.61z"/>
<path style="fill:#5FDC68;" d="M194.857,239.75c127.311-17.971,99.701,92.265,42.827,61.762
	C209.73,286.571,211.658,248.082,194.857,239.75z"/>
<path style="fill:#FFE356;" d="M302.408,345.442l-3.098,0.207c-11.292-77.668-70.438-84.002-70.576-84.071
	c38.971,6.059,70.713,34.909,73.674,83.933V345.442z"/>
<path style="fill:#5FDC68;" d="M411.817,292.906c-122.836-37.87-113.059,75.327-52.054,54.257
	C389.715,336.835,393.915,298.483,411.817,292.906z"/>
<path style="fill:#FFE356;" d="M294.903,380.351l2.479,4.062c21.827-79.113,78.838-78.356,79.045-78.425
	C335.182,307.159,304.405,329.949,294.903,380.351z"/>
<g>
</g>
<g>
</g>
<g>
</g>
<g>
</g>
<g>
</g>
<g>
</g>
<g>
</g>
<g>
</g>
<g>
</g>
<g>
</g>
<g>
</g>
<g>
</g>
<g>
</g>
<g>
</g>
<g>
</g>
</svg>
