<?xml version="1.0" encoding="iso-8859-1"?>
<!-- Generator: Adobe Illustrator 19.0.0, SVG Export Plug-In . SVG Version: 6.00 Build 0)  -->
<svg version="1.1" id="Layer_1" xmlns="http://www.w3.org/2000/svg" xmlns:xlink="http://www.w3.org/1999/xlink" x="0px" y="0px"
	 viewBox="0 0 512 512" style="enable-background:new 0 0 512 512;" xml:space="preserve">
<g>
	<g>
		<polygon style="fill:#FECA09;" points="512,420.881 477.288,420.881 451.254,368.814 416.542,368.814 390.508,420.881 
			147.525,420.881 112.814,368.814 43.39,368.814 43.39,229.966 112.822,229.966 112.814,195.254 347.119,195.254 347.119,229.966 
			390.508,229.966 416.542,273.356 451.254,273.356 477.288,195.254 512,195.254 		"/>
		<path style="fill:#FECA09;" d="M43.39,299.39H8.678c-4.799,0-8.678-3.879-8.678-8.678c0-4.799,3.879-8.678,8.678-8.678H43.39
			c4.799,0,8.678,3.879,8.678,8.678C52.068,295.511,48.189,299.39,43.39,299.39"/>
		<path style="fill:#FECA09;" d="M8.678,334.102c-4.799,0-8.678-3.879-8.678-8.678V256c0-4.799,3.879-8.678,8.678-8.678
			s8.678,3.879,8.678,8.678v69.424C17.356,330.223,13.477,334.102,8.678,334.102"/>
	</g>
	<g>
		<polygon style="fill:#FC5923;" points="156.199,143.186 312.402,143.186 312.402,91.119 156.199,91.119 		"/>
		<polygon style="fill:#FC5923;" points="190.911,195.254 277.691,195.254 277.691,143.186 190.911,143.186 		"/>
		<polygon style="fill:#FC5923;" points="43.385,368.814 112.809,368.814 112.809,229.966 43.385,229.966 		"/>
		<polygon style="fill:#FC5923;" points="416.538,368.814 451.25,368.814 451.25,273.356 416.538,273.356 		"/>
	</g>
</g>
<g>
</g>
<g>
</g>
<g>
</g>
<g>
</g>
<g>
</g>
<g>
</g>
<g>
</g>
<g>
</g>
<g>
</g>
<g>
</g>
<g>
</g>
<g>
</g>
<g>
</g>
<g>
</g>
<g>
</g>
</svg>
