<?xml version="1.0" encoding="iso-8859-1"?>
<!-- Generator: Adobe Illustrator 19.0.0, SVG Export Plug-In . SVG Version: 6.00 Build 0)  -->
<svg version="1.1" id="Layer_1" xmlns="http://www.w3.org/2000/svg" xmlns:xlink="http://www.w3.org/1999/xlink" x="0px" y="0px"
	 viewBox="0 0 473.931 473.931" style="enable-background:new 0 0 473.931 473.931;" xml:space="preserve">
<circle style="fill:#E8E8DF;" cx="236.966" cy="236.966" r="236.966"/>
<g>
	<path style="fill:#93793D;" d="M239.701,183.788c-12.389,0-22.436,15.73-22.436,35.128l-12.688,193.067
		c0,19.397,15.719,21.863,35.124,21.863c19.412,0,35.124-2.466,35.124-21.863l-12.688-193.067
		C262.137,199.522,252.082,183.788,239.701,183.788z"/>
	<polygon style="fill:#93793D;" points="255.196,311.913 351.516,260.666 354.906,263.977 268.453,350.79 	"/>
	<polygon style="fill:#93793D;" points="231.349,315.67 127.609,181.805 124.541,184.012 211.024,351.894 	"/>
	<polygon style="fill:#93793D;" points="203.163,116.863 200.233,119.276 219.724,212.322 250.212,189.793 	"/>
	<polygon style="fill:#93793D;" points="238.279,196.42 281.051,154.138 283.337,155.994 261.467,213.647 	"/>
</g>
<g>
	<path style="fill:#B7C133;" d="M160.993,165.378c-10.817,4.307-17.713,1.014-23.876,6.978c-4.599,4.46-4.707,11.816-0.247,16.415
		c4.464,4.599,11.816,4.711,16.423,0.247C161.775,180.783,160.993,165.378,160.993,165.378z"/>
	<path style="fill:#B7C133;" d="M122.539,116.799c-6.556,9.515-14.069,10.604-15.865,18.922c-1.328,6.223,2.63,12.359,8.857,13.695
		c6.219,1.336,12.352-2.619,13.68-8.842C131.68,129.091,122.539,116.799,122.539,116.799z"/>
	<path style="fill:#B7C133;" d="M79.142,108.938c3.121,11.124-0.849,17.597,4.393,24.299c3.94,4.999,11.188,5.882,16.187,1.957
		c5.014-3.933,5.89-11.173,1.964-16.179C94.438,109.765,79.142,108.938,79.142,108.938z"/>
	<path style="fill:#B7C133;" d="M102.741,211.903c6.937-7.266,6.526-13.867,13.294-16.872c5.059-2.249,10.978,0.037,13.235,5.085
		c2.245,5.066-0.045,10.993-5.093,13.242C114.835,217.505,102.741,211.903,102.741,211.903z"/>
	<path style="fill:#B7C133;" d="M135.721,145.932c-6.511,6.567-12.591,6.357-15.188,12.655c-1.931,4.718,0.322,10.107,5.044,12.045
		c4.7,1.938,10.092-0.311,12.03-5.021C141.18,156.914,135.721,145.932,135.721,145.932z"/>
	<path style="fill:#B7C133;" d="M74.057,182.639c13.601-7.629,15.981-17.598,27.382-18.986c8.505-1.036,16.269,5.044,17.313,13.564
		c1.021,8.527-5.051,16.277-13.571,17.324C89.439,196.439,74.057,182.639,74.057,182.639z"/>
	<path style="fill:#B7C133;" d="M78.068,153.214c7.873-5.07,8.954-11.135,15.712-12.378c5.078-0.928,9.946,2.428,10.881,7.491
		c0.92,5.078-2.432,9.946-7.491,10.881C87.804,160.918,78.068,153.214,78.068,153.214z"/>
	<path style="fill:#B7C133;" d="M372.193,296.46c-4.041-10.907-0.576-17.732-6.395-24.033c-4.348-4.707-11.693-4.999-16.4-0.655
		c-4.707,4.352-5.006,11.697-0.651,16.404C356.758,296.864,372.193,296.46,372.193,296.46z"/>
	<path style="fill:#B7C133;" d="M421.696,259.229c-9.347-6.788-10.245-14.327-18.518-16.333c-6.189-1.482-12.423,2.324-13.916,8.505
		c-1.497,6.193,2.316,12.419,8.498,13.908C409.184,268.063,421.696,259.229,421.696,259.229z"/>
	<path style="fill:#B7C133;" d="M430.635,216.038c-11.203,2.844-17.583-1.287-24.4,3.79c-5.108,3.813-6.155,11.031-2.361,16.134
		c3.809,5.111,11.027,6.159,16.138,2.365C429.419,231.304,430.635,216.038,430.635,216.038z"/>
	<path style="fill:#B7C133;" d="M327.108,237.085c7.094,7.106,13.702,6.862,16.539,13.699c2.118,5.104-0.307,10.982-5.414,13.107
		c-5.115,2.114-10.978-0.307-13.104-5.422C321.219,249.033,327.108,237.085,327.108,237.085z"/>
	<path style="fill:#B7C133;" d="M392.245,271.685c-6.395-6.668-6.035-12.744-12.262-15.498c-4.677-2.047-10.121,0.071-12.176,4.741
		c-2.054,4.651,0.067,10.103,4.722,12.15C381.136,276.872,392.245,271.685,392.245,271.685z"/>
	<path style="fill:#B7C133;" d="M357.072,209.127c7.293,13.788,17.205,16.419,18.32,27.842c0.819,8.531-5.452,16.142-13.987,16.98
		c-8.55,0.808-16.157-5.459-16.991-13.998C342.906,224.169,357.072,209.127,357.072,209.127z"/>
	<path style="fill:#B7C133;" d="M386.389,213.875c4.883,7.989,10.911,9.22,11.992,16.007c0.804,5.096-2.675,9.889-7.768,10.694
		c-5.093,0.793-9.875-2.679-10.69-7.76C378.438,223.409,386.389,213.875,386.389,213.875z"/>
	<path style="fill:#B7C133;" d="M302.042,219.181c-5.658-10.163-3.274-17.437-9.983-22.772c-5.014-3.989-12.322-3.158-16.31,1.856
		c-3.981,5.018-3.151,12.322,1.856,16.31C286.855,221.939,302.042,219.181,302.042,219.181z"/>
	<path style="fill:#B7C133;" d="M323.498,194.515c-7.476-13.455-4.348-23.087-13.212-30.155c-6.642-5.268-16.303-4.172-21.594,2.47
		c-5.276,6.634-4.18,16.303,2.462,21.59C303.408,198.175,323.498,194.515,323.498,194.515z"/>
	<path style="fill:#B7C133;" d="M336.672,148.978c-10.282-5.283-12.314-12.595-20.8-13.313c-6.35-0.52-11.929,4.195-12.453,10.533
		c-0.535,6.346,4.187,11.921,10.526,12.445C325.66,159.62,336.672,148.978,336.672,148.978z"/>
	<path style="fill:#B7C133;" d="M353.57,112.672c-10.634,4.516-17.553,1.411-23.539,7.469c-4.456,4.546-4.393,11.846,0.138,16.303
		c4.546,4.471,11.839,4.408,16.303-0.123C354.711,127.946,353.57,112.672,353.57,112.672z"/>
	<path style="fill:#B7C133;" d="M262.877,111.714c2.601,17.927,12.415,24.703,9.156,37.646c-2.425,9.669-12.277,15.551-21.96,13.126
		c-9.669-2.455-15.536-12.269-13.119-21.968C241.478,122.655,262.877,111.714,262.877,111.714z"/>
	<path style="fill:#B7C133;" d="M243.581,106.21c-4.576,11.049-1.287,18.219-7.521,24.46c-4.632,4.666-12.236,4.677-16.898,0.034
		c-4.662-4.666-4.67-12.217-0.03-16.909C227.753,105.185,243.581,106.21,243.581,106.21z"/>
	<path style="fill:#B7C133;" d="M175.025,100.058c9.324,12.512,19.506,13.601,22.357,24.722c2.11,8.303-2.922,16.782-11.233,18.918
		c-8.325,2.103-16.801-2.93-18.922-11.244C163.317,117.091,175.025,100.058,175.025,100.058z"/>
	<path style="fill:#B7C133;" d="M169.479,198.489c12.812-7.891,14.72-17.586,25.631-19.382c8.165-1.325,15.888,4.221,17.22,12.389
		c1.328,8.176-4.224,15.887-12.389,17.22C184.854,211.162,169.479,198.489,169.479,198.489z"/>
	<path style="fill:#B7C133;" d="M318.607,90.745c3.435,9.777,9.699,12.501,9.295,20.104c-0.307,5.706-5.175,10.099-10.874,9.792
		c-5.687-0.314-10.069-5.171-9.785-10.866C307.801,99.246,318.607,90.745,318.607,90.745z"/>
	<path style="fill:#B7C133;" d="M279.502,91.393c9.897,11.727,19.988,12.209,23.446,22.944c2.567,8.067-1.863,16.703-9.916,19.274
		c-8.052,2.563-16.67-1.86-19.263-9.901C268.999,108.84,279.502,91.393,279.502,91.393z"/>
	<path style="fill:#B7C133;" d="M201.314,79.482c3.442,9.777,9.706,12.501,9.295,20.101c-0.299,5.706-5.175,10.099-10.866,9.8
		c-5.691-0.314-10.084-5.175-9.792-10.866C190.497,87.984,201.314,79.482,201.314,79.482z"/>
	<path style="fill:#B7C133;" d="M171.29,155.298c11.349-1.489,15.689-7.629,23.846-5.482c6.065,1.624,9.706,7.876,8.09,13.972
		c-1.631,6.08-7.876,9.714-13.972,8.097C178.014,168.896,171.29,155.298,171.29,155.298z"/>
</g>
<g>
</g>
<g>
</g>
<g>
</g>
<g>
</g>
<g>
</g>
<g>
</g>
<g>
</g>
<g>
</g>
<g>
</g>
<g>
</g>
<g>
</g>
<g>
</g>
<g>
</g>
<g>
</g>
<g>
</g>
</svg>
