<?xml version="1.0" encoding="iso-8859-1"?>
<!-- Generator: Adobe Illustrator 19.0.0, SVG Export Plug-In . SVG Version: 6.00 Build 0)  -->
<svg version="1.1" id="Layer_1" xmlns="http://www.w3.org/2000/svg" xmlns:xlink="http://www.w3.org/1999/xlink" x="0px" y="0px"
	 viewBox="0 0 512 512" style="enable-background:new 0 0 512 512;" xml:space="preserve">
<circle style="fill:#273B7A;" cx="256" cy="256" r="256"/>
<path style="fill:#121149;" d="M510.409,284.536l-161.87-161.87l-37.154-12.447l-22.809,22.809v117.374
	c-16.808,4.227-44.356,11.167-67.232,17.003l-31.891-7.552l0.467,6.025l-15.039-14.441l-26.498,0.824l-16.956,16.956v10.216
	l-2.451,27.555l36.238,38.331l-2.419,16.601l-49.764-49.985l-0.417,10.026l-1.488-1.379l-3.25,18.706l24.142,22.73l-2.955,9.544
	l22.649,21.22l-1.717,29.182l89.491,89.491c5.463,0.348,10.966,0.545,16.517,0.545C387.737,512,496.214,412.488,510.409,284.536z"/>
<g>
	<path style="fill:#71E2EF;" d="M165.21,362.93c-1.903,0-3.448-1.545-3.448-3.448v-22.828c0-1.903,1.545-3.448,3.448-3.448
		s3.448,1.545,3.448,3.448v22.828C168.658,361.388,167.114,362.93,165.21,362.93z"/>
	<path style="fill:#71E2EF;" d="M131.544,372.615c-1.903,0-3.448-1.545-3.448-3.448V346.34c0-1.903,1.545-3.448,3.448-3.448
		s3.448,1.545,3.448,3.448v22.828C134.992,371.072,133.448,372.615,131.544,372.615z"/>
	<path style="fill:#71E2EF;" d="M110.33,340.333c-1.903,0-3.448-1.545-3.448-3.448v-22.828c0-1.903,1.545-3.448,3.448-3.448
		c1.903,0,3.448,1.545,3.448,3.448v22.828C113.778,338.789,112.233,340.333,110.33,340.333z"/>
	<path style="fill:#71E2EF;" d="M149.992,421.962c-1.903,0-3.448-1.545-3.448-3.448v-22.828c0-1.903,1.545-3.448,3.448-3.448
		s3.448,1.545,3.448,3.448v22.828C153.44,420.419,151.895,421.962,149.992,421.962z"/>
	<path style="fill:#71E2EF;" d="M145.689,323.051c-1.903,0-3.448-1.545-3.448-3.448v-38.629c0-8.575,6.975-15.55,15.548-15.55
		h12.343c1.903,0,3.448,1.545,3.448,3.448s-1.545,3.448-3.448,3.448h-12.343c-4.772,0-8.652,3.882-8.652,8.654v38.629
		C149.137,321.507,147.592,323.051,145.689,323.051z"/>
	<path style="fill:#71E2EF;" d="M131.391,308.05c-1.903,0-3.448-1.545-3.448-3.448v-25.135c0-16.015,13.029-29.044,29.044-29.044
		h15.45c1.903,0,3.448,1.545,3.448,3.448s-1.545,3.448-3.448,3.448h-15.45c-12.212,0-22.149,9.937-22.149,22.149v25.135
		C134.839,306.507,133.294,308.05,131.391,308.05z"/>
</g>
<path style="fill:#FEE187;" d="M363.746,219.87l-7.892-7.892c9.33-9.33,8.19-58.432-19.527-86.149
	c-9.952-9.952-26.246-9.852-36.323,0.224c-9.952,9.952-9.952,26.146,0,36.099l-7.892,7.892c-14.303-14.303-14.305-37.578,0-51.883
	c14.427-14.427,37.802-14.527,52.107-0.224c13.633,13.633,23.381,34.202,26.748,56.432
	C373.4,190.443,372.779,210.835,363.746,219.87z"/>
<polygon style="fill:#EAA22F;" points="263.521,227.58 237.694,253.407 190.788,255.59 189.452,264.811 304.293,293.447 
	269.34,260.567 269.619,260.615 "/>
<path style="fill:#FFC61B;" d="M382.159,250.733l-53.303,53.303c-8.083,8.083-21.352,7.525-28.727-1.21l-74.705-88.479
	l67.044-67.046l88.479,74.705C389.684,229.383,390.244,242.65,382.159,250.733z"/>
<g>
	<path style="fill:#EAA22F;" d="M380.949,222.006l-88.479-74.705l-33.652,33.652l97.532,95.591l25.812-25.812
		C390.244,242.65,389.684,229.383,380.949,222.006z"/>
	<polygon style="fill:#EAA22F;" points="292.469,147.303 225.425,214.347 241.245,233.086 311.208,163.123 	"/>
</g>
<g>
	<polygon style="fill:#FF5419;" points="311.208,163.123 292.469,147.303 258.817,180.955 276.27,198.061 	"/>
	
		<rect x="170.298" y="254.484" transform="matrix(-0.0622 0.9981 -0.9981 -0.0622 459.6487 87.7885)" style="fill:#FF5419;" width="36.565" height="10.716"/>
</g>
<g>
</g>
<g>
</g>
<g>
</g>
<g>
</g>
<g>
</g>
<g>
</g>
<g>
</g>
<g>
</g>
<g>
</g>
<g>
</g>
<g>
</g>
<g>
</g>
<g>
</g>
<g>
</g>
<g>
</g>
</svg>
