<?xml version="1.0" encoding="iso-8859-1"?>
<!-- Generator: Adobe Illustrator 19.0.0, SVG Export Plug-In . SVG Version: 6.00 Build 0)  -->
<svg version="1.1" id="Layer_1" xmlns="http://www.w3.org/2000/svg" xmlns:xlink="http://www.w3.org/1999/xlink" x="0px" y="0px"
	 viewBox="0 0 491.315 491.315" style="enable-background:new 0 0 491.315 491.315;" xml:space="preserve">
<rect x="75.443" style="fill:#EBF0F3;" width="340.429" height="491.315"/>
<path style="fill:#E56353;" d="M210.296,48.327c-10.358-10.37-24.673-16.788-40.487-16.797
	c-15.814-0.008-30.136,6.394-40.505,16.752l40.474,40.519L210.296,48.327z"/>
<path style="fill:#D15241;" d="M120.586,48.277c-10.37,10.359-16.788,24.673-16.797,40.487
	c-0.009,15.815,6.394,30.136,16.752,40.506l40.518-40.474L120.586,48.277z"/>
<path style="fill:#FCD462;" d="M210.296,48.327l-40.518,40.474l40.474,40.518c10.369-10.359,16.788-24.673,16.796-40.488
	C227.056,73.017,220.654,58.696,210.296,48.327z"/>
<path style="fill:#D5D6DB;" d="M169.777,88.801l-40.518,40.474c10.359,10.37,24.673,16.788,40.487,16.797h0.001L169.777,88.801
	L169.777,88.801z"/>
<path style="fill:#44C4A1;" d="M169.777,88.801l-0.03,57.27c15.814,0.008,30.136-6.394,40.505-16.752L169.777,88.801z"/>
<rect x="250.885" y="31.58" style="fill:#D15241;" width="16.773" height="16.773"/>
<rect x="250.885" y="55.757" style="fill:#D5D6DB;" width="16.773" height="16.773"/>
<rect x="250.834" y="79.939" style="fill:#E56353;" width="16.773" height="16.773"/>
<rect x="250.834" y="104.12" style="fill:#44C4A1;" width="16.773" height="16.773"/>
<rect x="250.834" y="128.307" style="fill:#FCD462;" width="16.773" height="16.773"/>
<g>
	<rect x="109.573" y="181.299" style="fill:#D5D6DB;" width="273.971" height="7.496"/>
	<polygon style="fill:#D5D6DB;" points="384.024,140.384 281.358,140.563 281.361,133.068 384.027,132.889 	"/>
	<polygon style="fill:#D5D6DB;" points="383.486,116.203 280.82,116.382 280.823,108.887 383.49,108.709 	"/>
	<polygon style="fill:#D5D6DB;" points="383.499,92.023 280.832,92.202 280.837,84.708 383.503,84.528 	"/>
	<polygon style="fill:#D5D6DB;" points="383.546,67.844 280.879,68.022 280.883,60.528 383.549,60.348 	"/>
	<polygon style="fill:#D5D6DB;" points="383.591,43.663 280.925,43.843 280.929,36.348 383.596,36.169 	"/>
	<rect x="109.517" y="209.556" style="fill:#D5D6DB;" width="273.971" height="7.496"/>
	<rect x="109.466" y="237.824" style="fill:#D5D6DB;" width="273.971" height="7.496"/>
	<rect x="109.409" y="266.076" style="fill:#D5D6DB;" width="273.971" height="7.496"/>
	<polygon style="fill:#D5D6DB;" points="257.902,301.661 109.354,301.753 109.358,294.258 257.907,294.166 	"/>
</g>
<g>
	<polygon style="fill:#64798A;" points="116.756,456.167 116.832,316.94 109.495,316.935 109.42,456.163 109.416,463.499 
		116.752,463.504 383.405,463.648 383.41,456.312 	"/>
	<path style="fill:#64798A;" d="M137.614,436.657c-0.626,0-1.257-0.208-1.781-0.634c-1.212-0.987-1.396-2.769-0.41-3.98
		l35.319-43.443l51.252,24.849l31.83-24.504l39.33,15.63l35.112-19.695l15.938-39.191c0.591-1.447,2.235-2.145,3.686-1.556
		c1.448,0.589,2.144,2.239,1.556,3.685l-16.685,41.025l-39.189,21.984l-38.845-15.436l-32.052,24.676l-50.368-24.422l-32.491,39.97
		C139.253,436.301,138.436,436.657,137.614,436.657z"/>
</g>
<circle style="fill:#FCD462;" cx="171.566" cy="393.216" r="6.82"/>
<circle style="fill:#44C4A1;" cx="221.906" cy="415.949" r="6.82"/>
<circle style="fill:#E56353;" cx="254.802" cy="393.267" r="6.82"/>
<circle style="fill:#D5D6DB;" cx="293.176" cy="406.886" r="6.82"/>
<circle style="fill:#DC8744;" cx="330.091" cy="386.458" r="6.82"/>
<g>
</g>
<g>
</g>
<g>
</g>
<g>
</g>
<g>
</g>
<g>
</g>
<g>
</g>
<g>
</g>
<g>
</g>
<g>
</g>
<g>
</g>
<g>
</g>
<g>
</g>
<g>
</g>
<g>
</g>
</svg>
