<?xml version="1.0" encoding="iso-8859-1"?>
<!-- Generator: Adobe Illustrator 19.0.0, SVG Export Plug-In . SVG Version: 6.00 Build 0)  -->
<svg version="1.1" id="Layer_1" xmlns="http://www.w3.org/2000/svg" xmlns:xlink="http://www.w3.org/1999/xlink" x="0px" y="0px"
	 viewBox="0 0 512 512" style="enable-background:new 0 0 512 512;" xml:space="preserve">
<path style="fill:#EFF2FA;" d="M256,256c-53.629,0-97.103,43.475-97.103,97.103h194.207C353.103,299.475,309.629,256,256,256z"/>
<g>
	<path style="fill:#D7DEED;" d="M256,317.793c-19.501,0-35.31,15.809-35.31,35.31h70.621
		C291.31,333.602,275.501,317.793,256,317.793z"/>
	<path style="fill:#D7DEED;" d="M485.517,52.966H26.483C11.857,52.966,0,64.822,0,79.448v353.103
		c0,14.626,11.857,26.483,26.483,26.483h459.034c14.626,0,26.483-11.857,26.483-26.483V79.448
		C512,64.822,500.143,52.966,485.517,52.966z M494.345,432.552c0,4.875-3.953,8.828-8.828,8.828H26.483
		c-4.875,0-8.828-3.953-8.828-8.828V114.759c0-4.875,3.953-8.828,8.828-8.828h459.034c4.875,0,8.828,3.953,8.828,8.828V432.552z"/>
</g>
<circle style="fill:#FF6464;" cx="26.483" cy="79.448" r="8.828"/>
<circle style="fill:#FFE182;" cx="52.966" cy="79.448" r="8.828"/>
<circle style="fill:#A5D76E;" cx="79.448" cy="79.448" r="8.828"/>
<g>
	<path style="fill:#EFF2FA;" d="M123.586,88.276h-8.828c-4.875,0-8.828-3.953-8.828-8.828l0,0c0-4.875,3.953-8.828,8.828-8.828
		h8.828c4.875,0,8.828,3.953,8.828,8.828l0,0C132.414,84.323,128.461,88.276,123.586,88.276z"/>
	<path style="fill:#EFF2FA;" d="M158.897,88.276h-8.828c-4.875,0-8.828-3.953-8.828-8.828l0,0c0-4.875,3.953-8.828,8.828-8.828
		h8.828c4.875,0,8.828,3.953,8.828,8.828l0,0C167.724,84.323,163.772,88.276,158.897,88.276z"/>
	<path style="fill:#EFF2FA;" d="M450.207,88.276h-8.828c-4.875,0-8.828-3.953-8.828-8.828l0,0c0-4.875,3.953-8.828,8.828-8.828
		h8.828c4.875,0,8.828,3.953,8.828,8.828l0,0C459.034,84.323,455.082,88.276,450.207,88.276z"/>
	<path style="fill:#EFF2FA;" d="M485.517,88.276h-8.828c-4.875,0-8.828-3.953-8.828-8.828l0,0c0-4.875,3.953-8.828,8.828-8.828
		h8.828c4.875,0,8.828,3.953,8.828,8.828l0,0C494.345,84.323,490.392,88.276,485.517,88.276z"/>
	<path style="fill:#EFF2FA;" d="M406.069,88.276H194.207c-4.875,0-8.828-3.953-8.828-8.828l0,0c0-4.875,3.953-8.828,8.828-8.828
		h211.862c4.875,0,8.828,3.953,8.828,8.828l0,0C414.897,84.323,410.944,88.276,406.069,88.276z"/>
</g>
<path style="fill:#FFB473;" d="M379.586,353.103h52.966c0-97.354-79.202-176.552-176.552-176.552v52.966
	C324.147,229.517,379.586,284.957,379.586,353.103z"/>
<path style="fill:#FFE182;" d="M132.414,353.103H79.448c0-97.354,79.202-176.552,176.552-176.552v52.966
	C187.853,229.517,132.414,284.957,132.414,353.103z"/>
<path style="fill:#C3E678;" d="M79.448,353.103h52.966c0-34.073,13.86-64.97,36.238-87.348l-37.434-37.434
	C99.249,260.29,79.448,304.427,79.448,353.103z"/>
<g>
	<path style="fill:#FF6464;" d="M343.348,265.756c22.378,22.378,36.238,53.274,36.238,87.348h52.966
		c0-48.676-19.8-92.813-51.769-124.782L343.348,265.756z"/>
	<path style="fill:#FF6464;" d="M238.345,379.586c-2.259,0-4.518-0.862-6.241-2.586c-3.448-3.448-3.448-9.035,0-12.483
		l150.069-150.069c3.448-3.448,9.035-3.448,12.483,0s3.448,9.035,0,12.483L244.587,377
		C242.862,378.724,240.604,379.586,238.345,379.586z"/>
</g>
<circle style="fill:#5B5D6E;" cx="256" cy="353.103" r="17.655"/>
<g>
</g>
<g>
</g>
<g>
</g>
<g>
</g>
<g>
</g>
<g>
</g>
<g>
</g>
<g>
</g>
<g>
</g>
<g>
</g>
<g>
</g>
<g>
</g>
<g>
</g>
<g>
</g>
<g>
</g>
</svg>
