<?xml version="1.0" encoding="iso-8859-1"?>
<!-- Generator: Adobe Illustrator 19.0.0, SVG Export Plug-In . SVG Version: 6.00 Build 0)  -->
<svg version="1.1" id="Layer_1" xmlns="http://www.w3.org/2000/svg" xmlns:xlink="http://www.w3.org/1999/xlink" x="0px" y="0px"
	 viewBox="0 0 511.999 511.999" style="enable-background:new 0 0 511.999 511.999;" xml:space="preserve">
<rect x="230.356" y="240.678" style="fill:#464655;" width="51.293" height="97.77"/>
<path style="fill:#5B5D6E;" d="M454.447,152.046H57.552C25.767,152.046,0,177.814,0,209.599l0,0
	c0,31.785,25.767,57.552,57.552,57.552h396.895c31.785,0,57.552-25.767,57.552-57.552l0,0
	C512,177.814,486.232,152.046,454.447,152.046z"/>
<path style="fill:#717287;" d="M25.916,209.599L25.916,209.599c0-31.785,25.767-57.552,57.552-57.552H57.552
	C25.767,152.046,0,177.814,0,209.599l0,0c0,31.785,25.767,57.552,57.552,57.552h25.916
	C51.683,267.151,25.916,241.384,25.916,209.599z"/>
<circle style="fill:#464655;" cx="72.113" cy="209.601" r="22.444"/>
<circle style="fill:#9BDC6E;" cx="154.615" cy="209.601" r="17.467"/>
<circle style="fill:#464655;" cx="436.014" cy="209.601" r="17.467"/>
<circle style="fill:#FF6465;" cx="224.418" cy="209.601" r="17.467"/>
<path style="fill:#5B5D6E;" d="M332.351,332.524c-17.443-12.35-38.454-18.649-59.828-18.649h-33.048
	c-21.374,0-42.383,6.3-59.828,18.649c-10.737,7.601-19.684,17.05-19.684,27.429h192.071
	C352.035,349.574,343.088,340.126,332.351,332.524z"/>
<path style="fill:#717287;" d="M207.818,332.524c17.443-12.35,38.454-18.649,59.828-18.649h-28.169
	c-21.374,0-42.383,6.3-59.828,18.649c-10.737,7.601-19.684,17.05-19.684,27.429h28.169
	C188.133,349.574,197.081,340.126,207.818,332.524z"/>
<g>
</g>
<g>
</g>
<g>
</g>
<g>
</g>
<g>
</g>
<g>
</g>
<g>
</g>
<g>
</g>
<g>
</g>
<g>
</g>
<g>
</g>
<g>
</g>
<g>
</g>
<g>
</g>
<g>
</g>
</svg>
