<?xml version="1.0" encoding="iso-8859-1"?>
<!-- Generator: Adobe Illustrator 19.0.0, SVG Export Plug-In . SVG Version: 6.00 Build 0)  -->
<svg version="1.1" id="Layer_1" xmlns="http://www.w3.org/2000/svg" xmlns:xlink="http://www.w3.org/1999/xlink" x="0px" y="0px"
	 viewBox="0 0 512 512" style="enable-background:new 0 0 512 512;" xml:space="preserve">
<path style="fill:#AB91EA;" d="M512,256.006C512,397.402,397.394,512.004,256.004,512C114.606,512.004,0,397.402,0,256.006
	C-0.007,114.61,114.606,0,256.004,0C397.394,0,512,114.614,512,256.006z"/>
<path style="fill:#947ADB;" d="M504.496,317.581c-0.415-0.419-188.256-188.268-188.757-188.757
	C299.581,112.367,278.748,102.4,256,102.4c-51.169,0-92.8,50.243-92.8,112c0,34.56,13.078,65.426,33.536,85.951
	c0.487,0.509,55.729,55.753,56.063,56.093V403.2c0,2.155,1.133,3.966,2.763,5.125c0.417,0.585,0.903,1.073,1.487,1.487
	c0.417,0.586,85.729,85.899,86.315,86.315c0.117,0.166,0.293,0.272,0.423,0.423C423.084,467.61,484.002,400.566,504.496,317.581z"/>
<path style="fill:#F4F6F9;" d="M348.8,214.4c0-61.756-41.631-112-92.8-112s-92.8,50.244-92.8,112
	c0,60.453,39.92,109.745,89.6,111.805V403.2c0,3.537,2.863,6.4,6.4,6.4c3.537,0,6.4-2.863,6.4-6.4v-77.403
	C312.274,319.98,348.8,272.244,348.8,214.4z M265.6,312.815v-19.41c0.454-0.269,0.934-0.489,1.325-0.88l38.4-38.4
	c2.5-2.5,2.5-6.55,0-9.05c-2.5-2.499-6.55-2.5-9.05,0L265.6,275.75V192c0-3.537-2.863-6.4-6.4-6.4c-3.537,0-6.4,2.863-6.4,6.4
	v121.398c-42.623-2.106-76.8-45.637-76.8-98.998c0-54.7,35.888-99.2,80-99.2s80,44.5,80,99.2
	C336,265.065,305.194,306.907,265.6,312.815z"/>
<g>
</g>
<g>
</g>
<g>
</g>
<g>
</g>
<g>
</g>
<g>
</g>
<g>
</g>
<g>
</g>
<g>
</g>
<g>
</g>
<g>
</g>
<g>
</g>
<g>
</g>
<g>
</g>
<g>
</g>
</svg>
