<svg xmlns="http://www.w3.org/2000/svg" viewBox="0 0 512 512"><path d="M512 256.006C512 397.402 397.394 512.004 256.004 512 114.606 512.004 0 397.402 0 256.006-.007 114.61 114.606 0 256.004 0 397.394 0 512 114.614 512 256.006z" fill="#ab91ea"/><path d="M504.496 317.581c-.415-.419-188.256-188.268-188.757-188.757C299.581 112.367 278.748 102.4 256 102.4c-51.169 0-92.8 50.243-92.8 112 0 34.56 13.078 65.426 33.536 85.951.487.509 55.729 55.753 56.063 56.093V403.2c0 2.155 1.133 3.966 2.763 5.125a6.213 6.213 0 0 0 1.487 1.487c.417.586 85.729 85.899 86.315 86.315.117.166.293.272.423.423 79.297-28.94 140.215-95.984 160.709-178.969z" fill="#947adb"/><path d="M348.8 214.4c0-61.756-41.631-112-92.8-112s-92.8 50.244-92.8 112c0 60.453 39.92 109.745 89.6 111.805V403.2c0 3.537 2.863 6.4 6.4 6.4 3.537 0 6.4-2.863 6.4-6.4v-77.403c46.674-5.817 83.2-53.553 83.2-111.397zm-83.2 98.415v-19.41c.454-.269.934-.489 1.325-.88l38.4-38.4c2.5-2.5 2.5-6.55 0-9.05a6.399 6.399 0 0 0-9.05 0L265.6 275.75V192c0-3.537-2.863-6.4-6.4-6.4a6.397 6.397 0 0 0-6.4 6.4v121.398c-42.623-2.106-76.8-45.637-76.8-98.998 0-54.7 35.888-99.2 80-99.2s80 44.5 80 99.2c0 50.665-30.806 92.507-70.4 98.415z" fill="#f4f6f9"/></svg>