<?xml version="1.0" encoding="iso-8859-1"?>
<!-- Generator: Adobe Illustrator 19.0.0, SVG Export Plug-In . SVG Version: 6.00 Build 0)  -->
<svg version="1.1" id="Layer_1" xmlns="http://www.w3.org/2000/svg" xmlns:xlink="http://www.w3.org/1999/xlink" x="0px" y="0px"
	 viewBox="0 0 512 512" style="enable-background:new 0 0 512 512;" xml:space="preserve">
<rect x="190.335" y="340.816" style="fill:#D3EFFD;" width="230.098" height="163.085"/>
<rect x="165.651" y="413.896" transform="matrix(-0.9132 0.4075 -0.4075 -0.9132 750.6324 705.8203)" style="opacity:0.5;fill:#FFFFFF;enable-background:new    ;" width="268.995" height="37.908"/>
<polygon style="fill:#D3EFFD;" points="53.984,81.613 53.984,116.911 65.803,242.24 267.194,242.24 279.013,116.911 279.013,81.613 
	"/>
<g>
	<rect x="142.651" y="255.341" style="fill:#5D5D5D;" width="47.684" height="248.912"/>
	<rect x="241.513" y="344.114" style="fill:#5D5D5D;" width="31.949" height="160.128"/>
</g>
<g>
	<rect x="190.335" y="414.456" style="fill:#3E3B43;" width="51.167" height="22.793"/>
	<rect x="273.454" y="414.456" style="fill:#3E3B43;" width="51.167" height="22.793"/>
	<rect x="356.572" y="414.456" style="fill:#3E3B43;" width="51.167" height="22.793"/>
</g>
<g>
	<rect x="324.621" y="344.114" style="fill:#5D5D5D;" width="31.949" height="160.128"/>
	<rect x="407.513" y="344.114" style="fill:#5D5D5D;" width="31.949" height="160.128"/>
</g>
<rect x="190.335" y="304.028" style="fill:#F7B737;" width="230.098" height="30.764"/>
<path style="fill:#2D774E;" d="M147.763,90.189V54.785c0-3.411,2.791-6.202,6.202-6.202h25.067c3.411,0,6.202,2.791,6.202,6.202
	v35.404H147.763z"/>
<g>
	<polygon style="opacity:0.5;fill:#FFFFFF;enable-background:new    ;" points="53.984,81.613 53.984,116.911 65.803,242.24 
		109.806,242.24 109.806,81.613 	"/>
	<rect x="166.498" y="81.613" style="opacity:0.5;fill:#FFFFFF;enable-background:new    ;" width="54.165" height="160.624"/>
</g>
<path style="fill:#5D5D5D;" d="M223.306,238.105v35.362c0,3.411-2.791,6.202-6.202,6.202H116.009c-3.411,0-6.202-2.791-6.202-6.202
	v-35.362L223.306,238.105L223.306,238.105z"/>
<path style="fill:#2D774E;" d="M177.184,50.934V6.502c0-3.577-2.791-6.502-6.202-6.502h-8.851c-3.411,0-6.202,2.926-6.202,6.502
	v44.432C155.928,50.934,177.184,50.934,177.184,50.934z"/>
<path style="fill:#3E3B43;" d="M439.456,512H142.655c-4.282,0-7.753-3.471-7.753-7.753s3.471-7.753,7.753-7.753h296.801
	c4.282,0,7.753,3.471,7.753,7.753S443.738,512,439.456,512z"/>
<rect x="53.982" y="81.613" style="fill:#54CE8E;" width="225.033" height="35.3"/>
<polygon style="fill:#5D5D5D;" points="62.91,211.568 65.803,242.24 267.194,242.24 270.086,211.568 "/>
<g>
	<rect x="109.801" y="242.244" style="fill:#3E3B43;" width="113.499" height="13.098"/>
	<rect x="241.513" y="356.198" style="fill:#3E3B43;" width="31.949" height="13.098"/>
	<rect x="142.651" y="279.674" style="fill:#3E3B43;" width="47.684" height="13.098"/>
	<rect x="324.621" y="356.198" style="fill:#3E3B43;" width="31.949" height="13.098"/>
	<rect x="407.513" y="356.198" style="fill:#3E3B43;" width="31.949" height="13.098"/>
</g>
<rect x="190.335" y="324.66" style="fill:#54CE8E;" width="267.683" height="31.949"/>
<g>
</g>
<g>
</g>
<g>
</g>
<g>
</g>
<g>
</g>
<g>
</g>
<g>
</g>
<g>
</g>
<g>
</g>
<g>
</g>
<g>
</g>
<g>
</g>
<g>
</g>
<g>
</g>
<g>
</g>
</svg>
