<?xml version="1.0" encoding="iso-8859-1"?>
<!-- Generator: Adobe Illustrator 19.0.0, SVG Export Plug-In . SVG Version: 6.00 Build 0)  -->
<svg version="1.1" id="Layer_1" xmlns="http://www.w3.org/2000/svg" xmlns:xlink="http://www.w3.org/1999/xlink" x="0px" y="0px"
	 viewBox="0 0 512 512" style="enable-background:new 0 0 512 512;" xml:space="preserve">
<circle style="fill:#AAF2F0;" cx="256" cy="256" r="256"/>
<path style="fill:#71E2EF;" d="M272.943,511.428c129.693-8.476,233.022-113.516,238.789-243.931L376.68,132.446l-33.197,37.495
	L256,82.46l-17.58,50.509l-4.868,7.592l102.384,102.384l-29.187,29.187L192.274,157.658L174.54,168.22l-9.781,5.825l-1.383,0.824
	l0.907,0.907l-3.753,13.627l114.474,114.474l-29.187,29.187L143.432,230.681l-10.218,14.795l-47.881,7.651l86.94,86.94
	l-36.954,33.739L272.943,511.428z"/>
<circle style="fill:#E09112;" cx="256" cy="253.121" r="104.176"/>
<path style="fill:#FF5419;" d="M360.17,253.126c0-57.532-46.639-104.17-104.17-104.17v208.343
	C313.534,357.297,360.17,310.658,360.17,253.126z"/>
<circle style="fill:#FFC61B;" cx="256" cy="253.121" r="86.988"/>
<path style="fill:#EAA22F;" d="M342.985,253.126c0-48.04-38.943-86.983-86.983-86.985v173.968
	C304.04,340.111,342.985,301.166,342.985,253.126z"/>
<g>
	<polygon style="fill:#FF5419;" points="233.553,140.559 256,82.46 278.449,140.559 	"/>
	<polygon style="fill:#FF5419;" points="278.449,365.694 256,423.793 233.553,365.694 	"/>
</g>
<g>
	<polygon style="fill:#C92F00;" points="256.002,82.461 256.002,140.559 278.449,140.559 	"/>
	<polygon style="fill:#C92F00;" points="256.002,365.694 256.002,423.793 278.449,365.694 	"/>
	<polygon style="fill:#C92F00;" points="368.568,230.679 426.667,253.126 368.568,275.575 	"/>
</g>
<polygon style="fill:#FF5419;" points="143.434,275.575 85.333,253.126 143.434,230.679 "/>
<polygon style="fill:#C92F00;" points="319.724,157.656 376.68,132.448 351.47,189.402 "/>
<g>
	<polygon style="fill:#FF5419;" points="192.276,348.596 135.32,373.807 160.53,316.85 	"/>
	<polygon style="fill:#FF5419;" points="160.53,189.402 135.321,132.448 192.276,157.656 	"/>
</g>
<polygon style="fill:#C92F00;" points="351.47,316.85 376.68,373.807 319.726,348.596 "/>
<g>
</g>
<g>
</g>
<g>
</g>
<g>
</g>
<g>
</g>
<g>
</g>
<g>
</g>
<g>
</g>
<g>
</g>
<g>
</g>
<g>
</g>
<g>
</g>
<g>
</g>
<g>
</g>
<g>
</g>
</svg>
