<svg xmlns="http://www.w3.org/2000/svg" viewBox="0 0 512 512"><circle cx="256" cy="256" r="256" fill="#aaf2f0"/><path d="M272.943 511.428c129.693-8.476 233.022-113.516 238.789-243.931L376.68 132.446l-33.197 37.495L256 82.46l-17.58 50.509-4.868 7.592 102.384 102.384-29.187 29.187-114.475-114.474-17.734 10.562-9.781 5.825-1.383.824.907.907-3.753 13.627 114.474 114.474-29.187 29.187-102.385-102.383-10.218 14.795-47.881 7.651 86.94 86.94-36.954 33.739 137.624 137.622z" fill="#71e2ef"/><circle cx="256" cy="253.121" r="104.176" fill="#e09112"/><path d="M360.17 253.126c0-57.532-46.639-104.17-104.17-104.17v208.343c57.534-.002 104.17-46.641 104.17-104.173z" fill="#ff5419"/><circle cx="256" cy="253.121" r="86.988" fill="#ffc61b"/><path d="M342.985 253.126c0-48.04-38.943-86.983-86.983-86.985v173.968c48.038.002 86.983-38.943 86.983-86.983z" fill="#eaa22f"/><path d="M233.553 140.559L256 82.46l22.449 58.099zm44.896 225.135L256 423.793l-22.447-58.099z" fill="#ff5419"/><path d="M256.002 82.461v58.098h22.447zm0 283.233v58.099l22.447-58.099zm112.566-135.015l58.099 22.447-58.099 22.449z" fill="#c92f00"/><path fill="#ff5419" d="M143.434 275.575l-58.101-22.449 58.101-22.447z"/><path fill="#c92f00" d="M319.724 157.656l56.956-25.208-25.21 56.954z"/><path d="M192.276 348.596l-56.956 25.211 25.21-56.957zM160.53 189.402l-25.209-56.954 56.955 25.208z" fill="#ff5419"/><path fill="#c92f00" d="M351.47 316.85l25.21 56.957-56.954-25.211z"/></svg>