<svg xmlns="http://www.w3.org/2000/svg" viewBox="0 0 512 512"><circle cx="256" cy="256" r="256" fill="#ea8953"/><path d="M298.747 141.056v.133L278.4 120.837a33.612 33.612 0 0 0-3.211-3.205l-.144-.144v.011c-5.877-5.072-13.515-8.165-21.888-8.165-18.523 0-33.536 15.013-33.536 33.536v130.795c-21.072 11.776-35.323 34.288-35.323 60.144 0 21.573 9.936 40.816 25.467 53.44l-.011.011 115.253 115.253c85.493-23.883 152.885-90.997 177.173-176.32L317.04 141.056h-18.293z" opacity=".1"/><path d="M286.693 273.664V142.869c0-18.523-15.013-33.536-33.536-33.536-18.523 0-33.536 15.013-33.536 33.536v130.795c-21.072 11.776-35.323 34.288-35.323 60.139 0 38.032 30.832 68.859 68.859 68.859 38.032 0 68.864-30.832 68.864-68.859-.005-25.851-14.261-48.363-35.328-60.139z" fill="#e1e6e9"/><path d="M253.152 397.691c-35.227 0-63.888-28.661-63.888-63.888 0-23.12 12.56-44.501 32.779-55.797l2.549-1.424V142.869c0-15.749 12.811-28.56 28.56-28.56s28.56 12.811 28.56 28.56v133.712l2.549 1.424c20.219 11.296 32.779 32.677 32.779 55.797 0 35.227-28.661 63.889-63.888 63.889z" fill="#fff"/><path d="M260.384 142.869c0-3.984-3.243-7.227-7.232-7.227-3.984 0-7.227 3.243-7.227 7.227v67.333h14.459v-67.333z" fill="#ebf0f3"/><path d="M273.84 296.619l-4.107-2.299a18.275 18.275 0 0 1-9.349-15.952v-68.16h-14.459v68.165a18.28 18.28 0 0 1-9.344 15.947l-4.128 2.315c-17.504 9.771-26.389 30.875-19.525 51.12 5.056 14.912 18.469 25.963 34.064 28.165 26.192 3.701 48.72-16.629 48.72-42.117-.005-15.398-8.373-29.643-21.872-37.184z" fill="#e56353"/><path d="M298.773 141.056h18.293v5.333h-18.293zm0 11.525h28.96v5.333h-28.96zm0 11.526h18.293v5.333h-18.293zm0 11.525h18.293v5.333h-18.293zm0 11.515h28.96v5.333h-28.96zm0 11.52h18.293V204h-18.293zm0 11.52h18.293v5.333h-18.293zm0 11.552h28.96v5.333h-28.96zm0 11.525h18.293v5.333h-18.293zm0 11.525h18.293v5.333h-18.293zm0 11.531h28.96v5.333h-28.96z" fill="#3a556a"/></svg>