<?xml version="1.0" encoding="iso-8859-1"?>
<!-- Generator: Adobe Illustrator 19.0.0, SVG Export Plug-In . SVG Version: 6.00 Build 0)  -->
<svg version="1.1" id="Layer_1" xmlns="http://www.w3.org/2000/svg" xmlns:xlink="http://www.w3.org/1999/xlink" x="0px" y="0px"
	 viewBox="0 0 512 512" style="enable-background:new 0 0 512 512;" xml:space="preserve">
<circle style="fill:#EA8953;" cx="256" cy="256" r="256"/>
<path style="opacity:0.1;enable-background:new    ;" d="M298.747,141.056v0.133L278.4,120.837
	c-0.997-1.141-2.069-2.208-3.211-3.205l-0.144-0.144v0.011c-5.877-5.072-13.515-8.165-21.888-8.165l0,0
	c-18.523,0-33.536,15.013-33.536,33.536v130.795c-21.072,11.776-35.323,34.288-35.323,60.144c0,21.573,9.936,40.816,25.467,53.44
	l-0.011,0.011l115.253,115.253c85.493-23.883,152.885-90.997,177.173-176.32L317.04,141.056H298.747z"/>
<path style="fill:#E1E6E9;" d="M286.693,273.664V142.869c0-18.523-15.013-33.536-33.536-33.536l0,0
	c-18.523,0-33.536,15.013-33.536,33.536v130.795c-21.072,11.776-35.323,34.288-35.323,60.139c0,38.032,30.832,68.859,68.859,68.859
	c38.032,0,68.864-30.832,68.864-68.859C322.016,307.952,307.76,285.44,286.693,273.664z"/>
<path style="fill:#FFFFFF;" d="M253.152,397.691c-35.227,0-63.888-28.661-63.888-63.888c0-23.12,12.56-44.501,32.779-55.797
	l2.549-1.424V142.869c0-15.749,12.811-28.56,28.56-28.56s28.56,12.811,28.56,28.56v133.712l2.549,1.424
	c20.219,11.296,32.779,32.677,32.779,55.797C317.04,369.029,288.379,397.691,253.152,397.691z"/>
<path style="fill:#EBF0F3;" d="M260.384,142.869c0-3.984-3.243-7.227-7.232-7.227c-3.984,0-7.227,3.243-7.227,7.227v67.333h14.459
	V142.869z"/>
<path style="fill:#E56353;" d="M273.84,296.619l-4.107-2.299c-5.776-3.232-9.349-9.333-9.349-15.952v-68.16h-14.459v68.165
	c0,6.613-3.573,12.715-9.344,15.947l-4.128,2.315c-17.504,9.771-26.389,30.875-19.525,51.12
	c5.056,14.912,18.469,25.963,34.064,28.165c26.192,3.701,48.72-16.629,48.72-42.117C295.707,318.405,287.339,304.16,273.84,296.619z
	"/>
<g>
	<rect x="298.773" y="141.056" style="fill:#3A556A;" width="18.293" height="5.333"/>
	<rect x="298.773" y="152.581" style="fill:#3A556A;" width="28.96" height="5.333"/>
	<rect x="298.773" y="164.107" style="fill:#3A556A;" width="18.293" height="5.333"/>
	<rect x="298.773" y="175.632" style="fill:#3A556A;" width="18.293" height="5.333"/>
	<rect x="298.773" y="187.147" style="fill:#3A556A;" width="28.96" height="5.333"/>
	<rect x="298.773" y="198.667" style="fill:#3A556A;" width="18.293" height="5.333"/>
	<rect x="298.773" y="210.187" style="fill:#3A556A;" width="18.293" height="5.333"/>
	<rect x="298.773" y="221.739" style="fill:#3A556A;" width="28.96" height="5.333"/>
	<rect x="298.773" y="233.264" style="fill:#3A556A;" width="18.293" height="5.333"/>
	<rect x="298.773" y="244.789" style="fill:#3A556A;" width="18.293" height="5.333"/>
	<rect x="298.773" y="256.32" style="fill:#3A556A;" width="28.96" height="5.333"/>
</g>
<g>
</g>
<g>
</g>
<g>
</g>
<g>
</g>
<g>
</g>
<g>
</g>
<g>
</g>
<g>
</g>
<g>
</g>
<g>
</g>
<g>
</g>
<g>
</g>
<g>
</g>
<g>
</g>
<g>
</g>
</svg>
