<?xml version="1.0" encoding="iso-8859-1"?>
<!-- Generator: Adobe Illustrator 19.0.0, SVG Export Plug-In . SVG Version: 6.00 Build 0)  -->
<svg version="1.1" id="Layer_1" xmlns="http://www.w3.org/2000/svg" xmlns:xlink="http://www.w3.org/1999/xlink" x="0px" y="0px"
	 viewBox="0 0 508 508" style="enable-background:new 0 0 508 508;" xml:space="preserve">
<circle style="fill:#FFD05B;" cx="254" cy="254" r="254"/>
<path style="fill:#F9B54C;" d="M39.2,389.2C84,460.4,163.6,508,254,508s170-47.6,214.8-118.8H39.2z"/>
<rect x="134" y="117.6" style="fill:#F1543F;" width="60" height="22.8"/>
<path style="fill:#FF7058;" d="M383.2,132.4H124.8c-21.2,0-38.8,17.2-38.8,38.8v105.6c0,21.2,17.2,38.8,38.8,38.8h258.4
	c21.2,0,38.8-17.2,38.8-38.8v-106C422,149.6,404.8,132.4,383.2,132.4z"/>
<path style="fill:#2B3B4E;" d="M422,341.2H86c-7.2,0-12.8-5.6-12.8-12.8l0,0c0-7.2,5.6-12.8,12.8-12.8h336c7.2,0,12.8,5.6,12.8,12.8
	l0,0C435.2,335.2,429.2,341.2,422,341.2z"/>
<circle style="fill:#324A5E;" cx="380.8" cy="359.6" r="30.8"/>
<circle style="fill:#ACB3BA;" cx="380.8" cy="359.6" r="19.6"/>
<circle style="fill:#324A5E;" cx="314.4" cy="359.6" r="30.8"/>
<circle style="fill:#ACB3BA;" cx="314.4" cy="359.6" r="19.6"/>
<circle style="fill:#324A5E;" cx="183.2" cy="359.6" r="30.8"/>
<circle style="fill:#ACB3BA;" cx="183.2" cy="359.6" r="19.6"/>
<circle style="fill:#324A5E;" cx="116.8" cy="359.6" r="30.8"/>
<circle style="fill:#ACB3BA;" cx="116.8" cy="359.6" r="19.6"/>
<g>
	<rect x="299.2" y="156.4" style="fill:#CED5E0;" width="52.4" height="6.4"/>
	<rect x="299.2" y="177.6" style="fill:#CED5E0;" width="52.4" height="6.4"/>
	<rect x="299.2" y="199.2" style="fill:#CED5E0;" width="52.4" height="6.4"/>
	<rect x="299.2" y="220.8" style="fill:#CED5E0;" width="52.4" height="6.4"/>
	<rect x="299.2" y="242.4" style="fill:#CED5E0;" width="52.4" height="6.4"/>
	<rect x="299.2" y="264" style="fill:#CED5E0;" width="52.4" height="6.4"/>
	<rect x="299.2" y="285.6" style="fill:#CED5E0;" width="52.4" height="6.4"/>
</g>
<g>
	<rect x="347.2" y="126.8" style="fill:#E6E9EE;" width="9.2" height="188.4"/>
	<rect x="294.8" y="126.8" style="fill:#E6E9EE;" width="9.2" height="188.4"/>
</g>
<g>
</g>
<g>
</g>
<g>
</g>
<g>
</g>
<g>
</g>
<g>
</g>
<g>
</g>
<g>
</g>
<g>
</g>
<g>
</g>
<g>
</g>
<g>
</g>
<g>
</g>
<g>
</g>
<g>
</g>
</svg>
