<svg xmlns="http://www.w3.org/2000/svg" viewBox="0 0 512 512"><path d="M256 512C114.837 512 0 397.157 0 256S114.837 0 256 0s256 114.843 256 256-114.837 256-256 256z" fill="#d7ebff"/><path d="M512 256C512 114.843 397.163 0 256 0v512c141.163 0 256-114.843 256-256z" fill="#c4e2ff"/><path d="M256 478.609c-122.75 0-222.609-99.864-222.609-222.609S133.25 33.391 256 33.391 478.609 133.256 478.609 256 378.75 478.609 256 478.609z" fill="#3abbe6"/><path d="M478.609 256c0-122.744-99.859-222.609-222.609-222.609v445.217c122.75.001 222.609-99.864 222.609-222.608z" fill="#33a6cc"/><circle cx="256" cy="122.435" r="33.391" fill="#fff"/><path d="M289.391 122.435c0-18.442-14.949-33.391-33.391-33.391v66.783c18.442-.001 33.391-14.95 33.391-33.392z" fill="#edf0f2"/><path d="M256 422.957c-18.442 0-33.391-14.949-33.391-33.391V222.609c0-18.442 14.949-33.391 33.391-33.391s33.391 14.949 33.391 33.391v166.956c0 18.442-14.949 33.392-33.391 33.392z" fill="#fff"/><path d="M289.391 389.565V222.609c0-18.442-14.949-33.391-33.391-33.391v233.739c18.442 0 33.391-14.95 33.391-33.392z" fill="#edf0f2"/></svg>