<svg xmlns="http://www.w3.org/2000/svg" viewBox="0 0 512 512"><path fill="#b5e45f" d="M512 159.485v-33.392h-77.137V77.137h-48.956V0h-33.392v77.137h-42.083V0h-33.391v77.137h-42.082V0h-33.391v77.137h-42.083V0h-33.392v77.137H77.137v48.956H0v33.392h77.137v42.083H0v33.391h77.137v42.082H0v33.391h77.137v42.083H0v33.392h77.137v48.956h48.956V512h33.392v-77.137h42.083V512h33.391v-77.137h42.082V512h33.391v-77.137h42.083V512h33.392v-77.137h48.956v-48.956H512v-33.392h-77.137v-42.083H512v-33.391h-77.137v-42.082H512v-33.391h-77.137v-42.083z"/><g fill="#7dbb4e"><path d="M512 159.485v-33.392h-77.137V77.137h-48.956V0h-33.392v77.137h-42.083V0h-33.391v77.137H256v357.726h21.041V512h33.391v-77.137h42.083V512h33.392v-77.137h48.956v-48.956H512v-33.392h-77.137v-42.083H512v-33.391h-77.137v-42.082H512v-33.391h-77.137v-42.083z"/><path d="M110.525 110.525h290.938v290.938H110.525z"/></g><path fill="#588d3f" d="M256 110.525h145.475v290.938H256z"/><path d="M342.486 256.072c6.115-6.477 9.87-15.204 9.87-24.814 0-18.792-14.335-34.225-32.664-35.987.292-1.011.545-3.572.545-9.452 0-17.739-14.381-32.119-32.119-32.119s-32.119 14.381-32.119 32.119c0-17.739-14.381-32.119-32.119-32.119s-32.119 14.381-32.119 32.119c0 5.88.255 8.441.545 9.452-18.33 1.762-32.664 17.195-32.664 35.987 0 9.61 3.755 18.337 9.87 24.814l-.08-.073c-6.072 6.469-9.79 15.172-9.79 24.744 0 19.079 14.778 34.697 33.509 36.057l-.002.01a32.12 32.12 0 0 0-1.389 9.372c0 17.739 14.381 32.119 32.119 32.119s32.119-14.381 32.119-32.119c0 17.739 14.381 32.119 32.119 32.119s32.119-14.381 32.119-32.119c0-3.26-.486-6.407-1.389-9.372l-.002-.01c18.731-1.361 33.509-16.978 33.509-36.057 0-9.572-3.719-18.275-9.79-24.744l-.078.073z" fill="#eebf70"/><path d="M342.486 256.072c6.115-6.477 9.87-15.204 9.87-24.814 0-19.081-14.778-34.711-33.513-36.069 0 0 1.394 4.399 1.394-9.371 0-17.739-14.381-32.119-32.119-32.119s-32.119 14.381-32.119 32.119v140.364c0 17.739 14.381 32.119 32.119 32.119 17.739 0 32.119-14.381 32.119-32.119 0-3.26-.486-6.407-1.389-9.372l-.002-.01c18.731-1.361 33.509-16.978 33.509-36.057 0-9.572-3.719-18.275-9.79-24.744l-.079.073z" fill="#e79c25"/><path d="M369.052 231.258c0-21.634-13.254-40.546-32.236-48.652-1.662-25.423-22.862-45.601-48.698-45.601-12.291 0-23.527 4.577-32.118 12.102-8.592-7.525-19.827-12.102-32.118-12.102-25.836 0-47.036 20.178-48.698 45.601-18.982 8.106-32.236 27.018-32.236 48.652a52.529 52.529 0 0 0 6.158 24.725 52.687 52.687 0 0 0-6.158 24.76c0 21.835 13.308 40.617 32.237 48.669 1.67 25.415 22.866 45.585 48.697 45.585 12.291 0 23.528-4.576 32.118-12.102 8.592 7.525 19.827 12.102 32.118 12.102 25.83 0 47.026-20.169 48.697-45.585 18.93-8.052 32.237-26.834 32.237-48.669a52.702 52.702 0 0 0-6.158-24.76 52.535 52.535 0 0 0 6.158-24.725zm-145.17 110.347c-6.527 0-12.107-4.082-14.355-9.822a52.964 52.964 0 0 0 25.469-15.564l-24.75-22.416c-3.741 4.132-8.869 6.407-14.436 6.407-10.736 0-19.469-8.734-19.469-19.469 0-.117.014-.233.017-.349a52.565 52.565 0 0 0 19.453 3.725v-33.391c-10.736 0-19.469-8.734-19.469-19.469 0-6.647 3.405-12.582 8.583-16.105 5.473 7.279 12.966 13.059 21.817 16.38l11.728-31.264c-5.987-2.246-10.008-8.053-10.008-14.45 0-8.505 6.92-15.423 15.423-15.423 8.504 0 15.421 6.92 15.421 15.423v140.364c-.002 8.505-6.92 15.423-15.424 15.423zm64.236 0c-8.505 0-15.422-6.919-15.422-15.422V185.818c0-8.505 6.919-15.423 15.422-15.423s15.423 6.919 15.423 15.423c0 6.398-4.021 12.205-10.008 14.45l11.728 31.264c8.851-3.32 16.344-9.1 21.817-16.38 5.178 3.523 8.583 9.458 8.583 16.105 0 10.735-8.734 19.469-19.469 19.469v33.391a52.567 52.567 0 0 0 19.454-3.725c.002.117.017.232.017.349 0 10.735-8.734 19.469-19.469 19.469-5.567 0-10.694-2.275-14.436-6.407l-24.75 22.416a52.98 52.98 0 0 0 25.469 15.564c-2.251 5.74-7.832 9.822-14.359 9.822z" fill="#f3d49d"/><path d="M369.052 231.258c0-21.634-13.254-40.546-32.236-48.652-1.662-25.423-22.862-45.601-48.698-45.601-12.291 0-23.527 4.577-32.118 12.102v213.789c8.592 7.525 19.827 12.102 32.118 12.102 25.83 0 47.026-20.169 48.697-45.585 18.93-8.052 32.237-26.834 32.237-48.669a52.702 52.702 0 0 0-6.158-24.76 52.542 52.542 0 0 0 6.158-24.726zm-80.934 110.347c-8.505 0-15.422-6.919-15.422-15.422V185.818c0-8.505 6.919-15.423 15.422-15.423s15.423 6.919 15.423 15.423c0 6.398-4.021 12.205-10.008 14.45l11.728 31.264c8.851-3.32 16.344-9.1 21.817-16.38 5.178 3.523 8.583 9.458 8.583 16.105 0 10.735-8.734 19.469-19.469 19.469v33.391a52.567 52.567 0 0 0 19.454-3.725c.002.117.017.232.017.349 0 10.735-8.734 19.469-19.469 19.469-5.567 0-10.694-2.275-14.436-6.407l-24.75 22.416a52.98 52.98 0 0 0 25.469 15.564c-2.251 5.74-7.832 9.822-14.359 9.822z" fill="#eebf70"/></svg>