<svg xmlns="http://www.w3.org/2000/svg" viewBox="0 0 512 512"><circle cx="256" cy="256" r="256" fill="#273b7a"/><path d="M347.253 495.237c59.082-22.549 107.668-66.341 136.402-122.053L284.446 174.976l-3.437 45.746-86.723-85.676-20.458 85.432-27.627 72.507 80.749 79.612-2.769.703 123.072 121.937z" fill="#121149"/><path d="M126.305 244.91c0-37.543 67.979-109.866 67.979-109.866s67.979 72.321 67.979 109.866-30.434 67.979-67.977 67.979-67.981-30.436-67.981-67.979z" fill="#38c6d9"/><path d="M194.286 135.044s67.979 72.321 67.979 109.866-30.436 67.979-67.979 67.979V135.044z" fill="#02b2b2"/><path d="M199.113 312.889c0-47.128 85.333-137.912 85.333-137.912s85.333 90.784 85.333 137.912-38.205 85.333-85.333 85.333-85.333-38.205-85.333-85.333z" fill="#8ceff4"/><path d="M284.446 174.976s85.333 90.784 85.333 137.912-38.205 85.333-85.333 85.333V174.976z" fill="#71e2ef"/></svg>