<svg xmlns="http://www.w3.org/2000/svg" viewBox="0 0 512 512"><circle cx="256" cy="256" r="256" fill="#ff2746"/><path d="M505.446 313.811l-146.891-146.89L131 393.04l118.882 118.882c2.034.048 4.072.078 6.118.078 121.504 0 223.237-84.649 249.446-198.189z" fill="#940030"/><path fill="#fff" d="M300.23 108.596H131V393.04h227.555V166.921z"/><path fill="#dbdbdb" d="M358.555 166.921l-58.325-58.325h-62.043V393.04h120.368z"/><path fill="#c4c4c4" d="M300.23 166.921h58.325l-58.325-58.325z"/><path d="M206.734 421.669c7.825 7.825 20.511 7.825 28.336 0l83.877-83.877c7.825-7.825 7.825-20.511 0-28.336-7.825-7.825-20.511-7.825-28.336 0l-83.877 83.877c-7.825 7.825-7.825 20.511 0 28.336z" fill="#121149"/><path d="M318.473 309.029L206.305 421.197c.147.155.276.321.428.474 7.825 7.825 20.511 7.825 28.336 0l83.877-83.877c7.825-7.825 7.825-20.511 0-28.336-.151-.153-.316-.282-.473-.429z" fill="#0a0a33"/><circle cx="346.712" cy="281.686" r="82.553" fill="#273b7a"/><path d="M405.09 223.315c-.152-.152-.31-.29-.462-.44L287.904 339.599c.15.152.288.31.44.462 32.239 32.239 84.508 32.239 116.746 0s32.239-84.509 0-116.746z" fill="#121149"/><circle cx="346.712" cy="281.686" r="61.714" fill="#71e2ef"/><path d="M389.892 237.609l-87.254 87.254c.15.152.288.31.44.462 24.1 24.1 63.176 24.1 87.276 0 24.1-24.1 24.1-63.176 0-87.276-.15-.152-.308-.29-.462-.44z" fill="#38c6d9"/></svg>