<svg xmlns="http://www.w3.org/2000/svg" viewBox="0 0 512 512"><circle cx="256" cy="256" r="256" fill="#ecf0f1"/><circle cx="256" cy="256" r="256" fill="#e4e7ed"/><path d="M131.443 320.516c-2.203-95.501 101.353-171.722 118.98-284.368 17.627 112.646 121.183 188.936 118.98 284.368 0 156.506-237.96 156.506-237.96 0z" fill="#6b7f9e"/><path d="M250.423 36.148c17.627 112.646 121.183 188.936 118.98 284.368 0 120.564-141.151 148.174-206.012 83.038 53.775 42.208 150.997 25.889 181.431-38.765 47.372-100.664-94.606-210.418-94.399-328.641z" fill="#5d718f"/><path d="M213.93 159.88s-97.98 115.675-63.966 183.428c28.437 56.666 24.719-106.656 63.966-183.428z" fill="#8597b1"/><path d="M411.817 146.453c-197.061-15.836-143.699 167.66-51.641 110.511 42.208-26.234 27.955-93.366 51.641-110.511z" fill="#5fdc68"/><path d="M390.61 154.647c-76.497 12.876-86.687 160.224-85.586 271.354a202.98 202.98 0 0 1-11.705 4.2c1.377-113.334 17.351-267.223 97.222-275.555h.069z" fill="#ffe356"/><path d="M194.857 239.75c127.311-17.971 99.701 92.265 42.827 61.762-27.954-14.941-26.026-53.43-42.827-61.762z" fill="#5fdc68"/><path d="M302.408 345.442l-3.098.207c-11.292-77.668-70.438-84.002-70.576-84.071 38.971 6.059 70.713 34.909 73.674 83.933v-.069z" fill="#ffe356"/><path d="M411.817 292.906c-122.836-37.87-113.059 75.327-52.054 54.257 29.952-10.328 34.152-48.68 52.054-54.257z" fill="#5fdc68"/><path d="M294.903 380.351l2.479 4.062c21.827-79.113 78.838-78.356 79.045-78.425-41.245 1.171-72.022 23.961-81.524 74.363z" fill="#ffe356"/></svg>