<svg xmlns="http://www.w3.org/2000/svg" viewBox="0 0 512 512"><g fill="#feca09"><path d="M512 420.881h-34.712l-26.034-52.067h-34.712l-26.034 52.067H147.525l-34.711-52.067H43.39V229.966h69.432l-.008-34.712h234.305v34.712h43.389l26.034 43.39h34.712l26.034-78.102H512z"/><path d="M43.39 299.39H8.678A8.67 8.67 0 0 1 0 290.712a8.67 8.67 0 0 1 8.678-8.678H43.39a8.67 8.67 0 0 1 8.678 8.678 8.67 8.67 0 0 1-8.678 8.678"/><path d="M8.678 334.102A8.67 8.67 0 0 1 0 325.424V256c0-4.799 3.879-8.678 8.678-8.678s8.678 3.879 8.678 8.678v69.424a8.67 8.67 0 0 1-8.678 8.678"/></g><g fill="#fc5923"><path d="M156.199 143.186h156.203V91.119H156.199z"/><path d="M190.911 195.254h86.78v-52.068h-86.78zM43.385 368.814h69.424V229.966H43.385zm373.153 0h34.712v-95.458h-34.712z"/></g></svg>