<svg xmlns="http://www.w3.org/2000/svg" viewBox="0 0 512 512"><path d="M256 256c-53.629 0-97.103 43.475-97.103 97.103h194.207C353.103 299.475 309.629 256 256 256z" fill="#eff2fa"/><g fill="#d7deed"><path d="M256 317.793c-19.501 0-35.31 15.809-35.31 35.31h70.621c-.001-19.501-15.81-35.31-35.311-35.31z"/><path d="M485.517 52.966H26.483C11.857 52.966 0 64.822 0 79.448v353.103c0 14.626 11.857 26.483 26.483 26.483h459.034c14.626 0 26.483-11.857 26.483-26.483V79.448c0-14.626-11.857-26.482-26.483-26.482zm8.828 379.586a8.829 8.829 0 0 1-8.828 8.828H26.483a8.829 8.829 0 0 1-8.828-8.828V114.759a8.829 8.829 0 0 1 8.828-8.828h459.034a8.829 8.829 0 0 1 8.828 8.828v317.793z"/></g><circle cx="26.483" cy="79.448" r="8.828" fill="#ff6464"/><circle cx="52.966" cy="79.448" r="8.828" fill="#ffe182"/><circle cx="79.448" cy="79.448" r="8.828" fill="#a5d76e"/><path d="M123.586 88.276h-8.828a8.829 8.829 0 0 1 0-17.656h8.828a8.829 8.829 0 0 1 0 17.656zm35.311 0h-8.828a8.829 8.829 0 0 1 0-17.656h8.828a8.829 8.829 0 0 1 8.828 8.828 8.83 8.83 0 0 1-8.828 8.828zm291.31 0h-8.828a8.829 8.829 0 0 1 0-17.656h8.828a8.829 8.829 0 0 1 8.828 8.828 8.83 8.83 0 0 1-8.828 8.828zm35.31 0h-8.828a8.829 8.829 0 0 1 0-17.656h8.828a8.829 8.829 0 0 1 0 17.656zm-79.448 0H194.207a8.829 8.829 0 0 1 0-17.656h211.862a8.829 8.829 0 0 1 0 17.656z" fill="#eff2fa"/><path d="M379.586 353.103h52.966c0-97.354-79.202-176.552-176.552-176.552v52.966c68.147 0 123.586 55.44 123.586 123.586z" fill="#ffb473"/><path d="M132.414 353.103H79.448c0-97.354 79.202-176.552 176.552-176.552v52.966c-68.147 0-123.586 55.44-123.586 123.586z" fill="#ffe182"/><path d="M79.448 353.103h52.966c0-34.073 13.86-64.97 36.238-87.348l-37.434-37.434c-31.969 31.969-51.77 76.106-51.77 124.782z" fill="#c3e678"/><g fill="#ff6464"><path d="M343.348 265.756c22.378 22.378 36.238 53.274 36.238 87.348h52.966c0-48.676-19.8-92.813-51.769-124.782l-37.435 37.434z"/><path d="M238.345 379.586a8.796 8.796 0 0 1-6.241-2.586 8.825 8.825 0 0 1 0-12.483l150.069-150.069c3.448-3.448 9.035-3.448 12.483 0s3.448 9.035 0 12.483L244.587 377a8.802 8.802 0 0 1-6.242 2.586z"/></g><circle cx="256" cy="353.103" r="17.655" fill="#5b5d6e"/></svg>