<svg xmlns="http://www.w3.org/2000/svg" viewBox="0 0 511.999 511.999"><path fill="#464655" d="M230.356 240.678h51.293v97.77h-51.293z"/><path d="M454.447 152.046H57.552C25.767 152.046 0 177.814 0 209.599c0 31.785 25.767 57.552 57.552 57.552h396.895c31.785 0 57.552-25.767 57.552-57.552.001-31.785-25.767-57.553-57.552-57.553z" fill="#5b5d6e"/><path d="M25.916 209.599c0-31.785 25.767-57.552 57.552-57.552H57.552C25.767 152.046 0 177.814 0 209.599s25.767 57.552 57.552 57.552h25.916c-31.785 0-57.552-25.767-57.552-57.552z" fill="#717287"/><circle cx="72.113" cy="209.601" r="22.444" fill="#464655"/><circle cx="154.615" cy="209.601" r="17.467" fill="#9bdc6e"/><circle cx="436.014" cy="209.601" r="17.467" fill="#464655"/><circle cx="224.418" cy="209.601" r="17.467" fill="#ff6465"/><path d="M332.351 332.524c-17.443-12.35-38.454-18.649-59.828-18.649h-33.048c-21.374 0-42.383 6.3-59.828 18.649-10.737 7.601-19.684 17.05-19.684 27.429h192.071c.001-10.379-8.946-19.827-19.683-27.429z" fill="#5b5d6e"/><path d="M207.818 332.524c17.443-12.35 38.454-18.649 59.828-18.649h-28.169c-21.374 0-42.383 6.3-59.828 18.649-10.737 7.601-19.684 17.05-19.684 27.429h28.169c-.001-10.379 8.947-19.827 19.684-27.429z" fill="#717287"/></svg>