<svg xmlns="http://www.w3.org/2000/svg" viewBox="0 0 508 508"><circle cx="254" cy="254" r="254" fill="#ffd05b"/><path d="M39.2 389.2C84 460.4 163.6 508 254 508s170-47.6 214.8-118.8H39.2z" fill="#f9b54c"/><path fill="#f1543f" d="M134 117.6h60v22.8h-60z"/><path d="M383.2 132.4H124.8c-21.2 0-38.8 17.2-38.8 38.8v105.6c0 21.2 17.2 38.8 38.8 38.8h258.4c21.2 0 38.8-17.2 38.8-38.8v-106c0-21.2-17.2-38.4-38.8-38.4z" fill="#ff7058"/><path d="M422 341.2H86c-7.2 0-12.8-5.6-12.8-12.8 0-7.2 5.6-12.8 12.8-12.8h336c7.2 0 12.8 5.6 12.8 12.8.4 6.8-5.6 12.8-12.8 12.8z" fill="#2b3b4e"/><circle cx="380.8" cy="359.6" r="30.8" fill="#324a5e"/><circle cx="380.8" cy="359.6" r="19.6" fill="#acb3ba"/><circle cx="314.4" cy="359.6" r="30.8" fill="#324a5e"/><circle cx="314.4" cy="359.6" r="19.6" fill="#acb3ba"/><circle cx="183.2" cy="359.6" r="30.8" fill="#324a5e"/><circle cx="183.2" cy="359.6" r="19.6" fill="#acb3ba"/><circle cx="116.8" cy="359.6" r="30.8" fill="#324a5e"/><circle cx="116.8" cy="359.6" r="19.6" fill="#acb3ba"/><path d="M299.2 156.4h52.4v6.4h-52.4zm0 21.2h52.4v6.4h-52.4zm0 21.6h52.4v6.4h-52.4zm0 21.6h52.4v6.4h-52.4zm0 21.6h52.4v6.4h-52.4zm0 21.6h52.4v6.4h-52.4zm0 21.6h52.4v6.4h-52.4z" fill="#ced5e0"/><path d="M347.2 126.8h9.2v188.4h-9.2zm-52.4 0h9.2v188.4h-9.2z" fill="#e6e9ee"/></svg>